<?xml version="1.0" encoding="UTF-8"?>
<svg id="Layer_1" xmlns="http://www.w3.org/2000/svg" version="1.1" viewBox="0 0 83 48">
  <!-- Generator: Adobe Illustrator 29.2.1, SVG Export Plug-In . SVG Version: 2.1.0 Build 116)  -->
  <defs>
    <style>
      .st0 {
        fill-rule: evenodd;
      }

      .st0, .st1 {
        fill: #121212;
      }

      .st2 {
        fill: #fbfbfb;
      }
    </style>
  </defs>
  <rect class="st2" width="83" height="48"/>
  <g>
    <path class="st1" d="M52.2,16.9v2.6h-2.9v-2.6c0-.4,0-.8.2-1.1.2-.4.3-.7.6-.9.3-.3.6-.5.9-.6.3-.2.7-.2,1.1-.2h9c.4,0,.8,0,1.1.2.3.1.7.4.9.6.3.2.5.6.6.9.2.3.2.7.2,1.1v3.6c0,.4,0,.7-.1,1s-.2.6-.4.8c-.2.2-.4.5-.6.7s-.6.4-.9.6l-9.9,4.6v2.9h9.4v-2.6h2.9v5.4h-15.1v-5.3c0-.4,0-.7.1-1,0-.3.2-.6.4-.8s.4-.5.6-.7c.3-.2.6-.4.9-.6l9.9-4.7v-4.1h-9.1Z"/>
    <path class="st1" d="M40.6,29.8h4.2v4.2h-4.2s0-4.2,0-4.2Z"/>
    <path class="st1" d="M35.7,31.1c0,.4,0,.8-.2,1.1-.2.3-.3.7-.6.9s-.6.5-.9.6c-.3.2-.7.2-1.1.2h-10c-.4,0-.8,0-1.1-.2-.3-.2-.6-.3-.9-.6-.3-.3-.5-.6-.6-.9-.1-.4-.2-.7-.2-1.1v-14.3c0-.4,0-.8.2-1.1.1-.4.4-.7.6-.9.3-.3.6-.5.9-.6.4-.2.7-.2,1.1-.2h10c.4,0,.8,0,1.1.2.3.1.7.4.9.6.3.2.5.6.6.9.2.3.2.7.2,1.1v14.3ZM22.9,16.9v14.3h10v-14.3h-10Z"/>
    <path class="st0" d="M35.8,17.1l-12,16.3-2.3-1.7,11.9-16.3s2.3,1.7,2.3,1.7Z"/>
  </g>
</svg>