<?xml version="1.0" encoding="UTF-8"?>
<svg id="Layer_1" xmlns="http://www.w3.org/2000/svg" version="1.1" viewBox="0 0 83 48">
  <!-- Generator: Adobe Illustrator 29.2.1, SVG Export Plug-In . SVG Version: 2.1.0 Build 116)  -->
  <defs>
    <style>
      .st0 {
        fill-rule: evenodd;
      }

      .st0, .st1 {
        fill: #121212;
      }

      .st2 {
        fill: #fbfbfb;
      }
    </style>
  </defs>
  <rect class="st2" width="83" height="48"/>
  <g>
    <path class="st1" d="M39,29.8h4.2v4.2h-4.2v-4.2Z"/>
    <path class="st1" d="M34.2,31.1c0,.4,0,.8-.2,1.1-.2.3-.3.6-.6.9s-.6.5-.9.6c-.3.2-.7.2-1.1.2h-10c-.4,0-.8,0-1.1-.2-.3-.2-.6-.3-.9-.6-.3-.3-.5-.6-.6-.9-.1-.4-.2-.7-.2-1.1v-14.2c0-.4,0-.8.2-1.1.1-.4.4-.6.6-.9.3-.3.6-.5.9-.6.4-.2.7-.2,1.1-.2h10c.4,0,.8,0,1.1.2.3.1.7.4.9.6.3.2.5.6.6.9.2.3.2.7.2,1.1v14.3ZM21.4,16.9v14.2h10v-14.2h-10Z"/>
    <path class="st0" d="M34.2,17.1l-11.9,16.2-2.3-1.7,11.9-16.2s2.3,1.7,2.3,1.7Z"/>
    <path class="st1" d="M49.9,34l9.9-17.1h-12.3v-2.9h17v.9l-10.9,19.1h-3.6Z"/>
  </g>
</svg>