<svg width="28" height="27" viewBox="0 0 28 27" fill="none" xmlns="http://www.w3.org/2000/svg">
<path d="M26 12.2352C26 11.0797 25.535 10.4297 24.999 10.0438C24.6861 9.81855 24.332 9.67456 24 9.58869V14.8817C24.3321 14.7958 24.6861 14.6519 24.999 14.4266C25.5351 14.0406 26 13.3907 26 12.2352ZM4.49805 23.1776L4.5 23.2069V23.2352C4.5 23.5609 4.58299 24.0472 4.7998 24.4237C4.99513 24.7627 5.27205 24.9852 5.75 24.9852C6.22795 24.9852 6.50487 24.7627 6.7002 24.4237C6.91254 24.055 6.99565 23.5811 6.99902 23.2557L6.55566 17.4852H4.06055L4.49805 23.1776ZM1.5 14.7352C1.5 15.4731 2.11464 15.9852 2.75 15.9852H8.5V6.98518H3.25C2.50317 6.98518 2.08451 7.29621 1.83496 7.60725C1.70264 7.77223 1.61277 7.9448 1.55762 8.08576C1.50801 8.21259 1.50078 8.27513 1.5 8.26643V14.7352ZM22.5 1.75178C22.4999 1.57236 22.3163 1.4516 22.1514 1.52229L9.9873 6.73518H10V16.2557L22.1445 21.8953C22.3102 21.9722 22.4998 21.8513 22.5 21.6688V1.75178ZM24 8.05549C24.5928 8.15941 25.2708 8.39127 25.876 8.82698C26.7981 9.49102 27.5 10.591 27.5 12.2352C27.5 13.8796 26.7983 14.9803 25.876 15.6444C25.2709 16.08 24.5928 16.3099 24 16.4139V21.6688C23.9998 22.9475 22.6726 23.7942 21.5127 23.2557L9.13477 17.5086C9.10182 17.4933 9.06563 17.4852 9.0293 17.4852H8.06055L8.49805 23.1776L8.5 23.2069V23.2352C8.5 23.7427 8.383 24.5065 8 25.1717C7.59533 25.8743 6.87201 26.4852 5.75 26.4852C4.62799 26.4852 3.90467 25.8743 3.5 25.1717C3.1312 24.5312 3.01049 23.7993 3.00195 23.2928L2.55371 17.4754C1.25576 17.3771 0 16.3175 0 14.7352V8.23518C3.7505e-05 8.03141 0.0706393 7.77125 0.161133 7.53987C0.262204 7.28148 0.422509 6.97009 0.665039 6.6678C1.16551 6.04414 1.99701 5.48518 3.25 5.48518H9.04492C9.07872 5.48515 9.11249 5.47798 9.14355 5.46467L21.5605 0.143382C22.7153 -0.351507 23.9999 0.495483 24 1.75178V8.05549Z" fill="#121212"/>
</svg>
