<svg width="47" height="47" viewBox="0 0 47 47" fill="none" xmlns="http://www.w3.org/2000/svg">
<rect width="46.7858" height="46.7858" rx="10" fill="#F1EFF4"/>
<g clip-path="url(#clip0_1235_96)">
<path d="M30.7165 24.4927C27.7133 24.4927 25.2792 26.9153 25.2792 29.9037C25.2792 32.8923 27.7133 35.3154 30.7165 35.3154C33.7192 35.3154 36.1533 32.8923 36.1533 29.9037C36.1533 26.9153 33.7192 24.4927 30.7165 24.4927ZM16.5904 24.493C13.5877 24.4933 11.1533 26.9153 11.1533 29.9039C11.1533 32.8923 13.5877 35.3151 16.5904 35.3151C19.5933 35.3151 22.0277 32.8923 22.0277 29.9039C22.0277 26.9153 19.5933 24.493 16.5901 24.493H16.5904ZM29.0904 17.7287C29.0904 20.7171 26.6563 23.1404 23.6536 23.1404C20.6504 23.1404 18.2163 20.7171 18.2163 17.7287C18.2163 14.7403 20.6504 12.3175 23.6536 12.3175C26.6563 12.3175 29.0901 14.7403 29.0901 17.7287H29.0904Z" fill="url(#paint0_radial_1235_96)"/>
</g>
<defs>
<radialGradient id="paint0_radial_1235_96" cx="0" cy="0" r="1" gradientUnits="userSpaceOnUse" gradientTransform="translate(23.6567 24.9007) scale(16.575 15.2476)">
<stop stop-color="#FFB900"/>
<stop offset="0.6" stop-color="#F95D8F"/>
<stop offset="0.999" stop-color="#F95353"/>
</radialGradient>
<clipPath id="clip0_1235_96">
<rect width="25" height="23" fill="white" transform="translate(11.1533 12.3163)"/>
</clipPath>
</defs>
</svg>
