<?xml version="1.0" encoding="UTF-8"?>
<svg id="Layer_1" xmlns="http://www.w3.org/2000/svg" version="1.1" viewBox="0 0 38 38">
  <!-- Generator: Adobe Illustrator 29.8.3, SVG Export Plug-In . SVG Version: 2.1.1 Build 3)  -->
  <defs>
    <style>
      .st0 {
        fill: #ff1515;
      }
    </style>
  </defs>
  <path class="st0" d="M8.54,4.93c4.23,3.18,8.79,9.62,10.46,13.08,1.67-3.46,6.23-9.9,10.46-13.08,3.06-2.29,8.01-4.07,8.01,1.58,0,1.13-.65,9.47-1.03,10.83-1.32,4.71-6.12,5.91-10.4,5.19,7.47,1.27,9.37,5.48,5.27,9.69-7.79,8-11.2-2.01-12.07-4.57-.16-.47-.23-.69-.24-.5,0-.19-.08.03-.24.5-.87,2.56-4.28,12.57-12.07,4.57-4.1-4.21-2.2-8.42,5.27-9.69-4.27.73-9.08-.47-10.4-5.19-.38-1.36-1.03-9.7-1.03-10.83C.53.86,5.48,2.64,8.54,4.93h0Z"/>
</svg>