<svg width="41" height="41" viewBox="0 0 41 41" fill="none" xmlns="http://www.w3.org/2000/svg">
<path d="M38.25 10C38.25 8.75736 37.2426 7.75 36 7.75H5C3.75736 7.75 2.75 8.75736 2.75 10V31C2.75 32.2426 3.75736 33.25 5 33.25H36C37.2426 33.25 38.25 32.2426 38.25 31V10ZM39.75 31C39.75 33.0711 38.0711 34.75 36 34.75H5C2.92893 34.75 1.25 33.0711 1.25 31V10C1.25 7.92893 2.92893 6.25 5 6.25H36C38.0711 6.25 39.75 7.92893 39.75 10V31Z" fill="#FF1515"/>
<path d="M18.7203 22.043C19.5869 22.8594 20.9404 22.8594 21.807 22.043L37.0126 7.71717L38.0415 8.8096L22.8352 23.1347C21.4359 24.4529 19.2762 24.4943 17.8295 23.2583L17.6921 23.1347L2.48587 8.8096L3.51476 7.71717L18.7203 22.043Z" fill="#FF1515"/>
<path d="M3.51478 33.8097L2.48588 32.7173L15.9851 19.9997L17.014 21.0921L3.51478 33.8097ZM23.706 21.2737L24.7349 20.1813C29.2618 24.446 32.7336 27.7169 38.0415 32.7173L37.0126 33.8097C31.7047 28.8093 28.2328 25.5384 23.706 21.2737Z" fill="#FF1515"/>
</svg>
