<?xml version="1.0" encoding="UTF-8"?>
<svg id="Layer_1" xmlns="http://www.w3.org/2000/svg" version="1.1" viewBox="0 0 38 38">
  <!-- Generator: Adobe Illustrator 29.8.3, SVG Export Plug-In . SVG Version: 2.1.1 Build 3)  -->
  <defs>
    <style>
      .st0 {
        fill: #ff1515;
      }
    </style>
  </defs>
  <g>
    <g>
      <path class="st0" d="M35.54,31.22l-12.86-12.86c-.29.53-.67,1.01-1.16,1.39l12.79,12.79c.31-.51.72-.96,1.23-1.32Z"/>
      <path class="st0" d="M3.27,32.56s.02.02.03.03l12.56-12.56c-.53-.33-.96-.76-1.29-1.25L2.23,31.12c.44.41.79.9,1.05,1.44Z"/>
    </g>
    <path class="st0" d="M33.81,6.35l-12.91,12.91c-1.18,1.18-3.1,1.18-4.28,0L4.05,6.69c-.44.41-.97.74-1.59.96l12.89,12.89c1.88,1.88,4.94,1.88,6.82,0l12.92-12.92c-.52-.34-.95-.77-1.28-1.27Z"/>
  </g>
  <path class="st0" d="M32.7,7.28c1.67,0,3.02,1.35,3.02,3.02v18.39c0,1.67-1.35,3.03-3.03,3.03H5.3c-1.67,0-3.02-1.35-3.02-3.03V10.3c0-1.67,1.35-3.02,3.02-3.02h27.39M32.7,5.48H5.3C2.64,5.48.48,7.64.48,10.3v18.39c0,2.66,2.16,4.83,4.82,4.83h27.39c2.66,0,4.83-2.16,4.83-4.83V10.3c0-2.66-2.16-4.82-4.82-4.82h0Z"/>
</svg>