<svg width="37" height="25" viewBox="0 0 37 25" fill="none" xmlns="http://www.w3.org/2000/svg">
<path d="M33.8338 0.810528C35.4997 0.895167 36.8244 2.27259 36.8244 3.95953V21.0383L36.8201 21.2002C36.7384 22.8125 35.4461 24.1054 33.8338 24.1873L33.6711 24.1917V22.3993C33.9712 22.3993 34.2477 22.3004 34.4727 22.1358L23.4486 13.3391L21.3604 15.0064C19.9291 16.1485 17.9163 16.1847 16.4487 15.114L16.3087 15.0064L14.2187 13.3391L3.12192 22.1945C3.32985 22.3233 3.57439 22.3993 3.83697 22.3993V24.1917L3.67418 24.1873C2.06196 24.1054 0.769603 22.8125 0.68797 21.2002L0.683594 21.0383V3.95953C0.683594 2.2726 2.00829 0.895181 3.67418 0.810528L3.83697 0.806152H33.6711L33.8338 0.810528ZM33.6711 22.3993V24.1917H3.83697V22.3993H33.6711ZM2.47602 20.4169L12.7825 12.1926L2.47602 3.96828V20.4169ZM24.8857 12.1926L35.032 20.2892V4.09606L24.8857 12.1926ZM3.83697 2.59858C3.77342 2.59858 3.71091 2.60415 3.64967 2.61258L17.4263 13.6061L17.5847 13.7216C18.3946 14.2605 19.4699 14.2219 20.2419 13.6061L33.987 2.63709C33.8855 2.61295 33.7799 2.59858 33.6711 2.59858H3.83697Z" fill="#FF1515"/>
</svg>
