<svg width="48" height="48" viewBox="0 0 48 48" fill="none" xmlns="http://www.w3.org/2000/svg">
<rect x="0.84668" y="0.775513" width="46.7858" height="46.7858" rx="10" fill="#F0E7FC"/>
<path d="M21.3156 33.5256C23.0585 33.5256 24.473 32.0933 24.473 30.3286V27.1315H21.3156C19.5727 27.1315 18.1582 28.5638 18.1582 30.3286C18.1582 32.0933 19.5727 33.5256 21.3156 33.5256Z" fill="#0ACF83"/>
<path d="M18.1562 24.0903C18.1562 22.3256 19.5708 20.8933 21.3137 20.8933H24.4711V27.2874H21.3137C19.5708 27.2874 18.1562 25.8551 18.1562 24.0903Z" fill="#A259FF"/>
<path d="M18.1582 17.5404C18.1582 15.7756 19.5727 14.3433 21.3156 14.3433H24.473V20.7374H21.3156C19.5727 20.7374 18.1582 19.3051 18.1582 17.5404Z" fill="#F24E1E"/>
<path d="M24.4727 14.3433H27.6301C29.373 14.3433 30.7875 15.7756 30.7875 17.5404C30.7875 19.3051 29.373 20.7374 27.6301 20.7374H24.4727V14.3433Z" fill="#FF7262"/>
<path d="M30.7875 23.9343C30.7875 25.6991 29.373 27.1314 27.6301 27.1314C25.8872 27.1314 24.4727 25.6991 24.4727 23.9343C24.4727 22.1696 25.8872 20.7373 27.6301 20.7373C29.373 20.7373 30.7875 22.1696 30.7875 23.9343Z" fill="#1ABCFE"/>
</svg>
