<svg width="46" height="46" viewBox="0 0 46 46" fill="none" xmlns="http://www.w3.org/2000/svg">
<rect width="46" height="46" rx="10" fill="#EDEDED"/>
<g clip-path="url(#clip0_1131_4)">
<path d="M26.6042 13.9271V31.8021C26.6042 33.8022 27.9841 34.9167 29.4479 34.9167C30.8021 34.9167 32.2917 33.9688 32.2917 31.8021V14.0625C32.2917 12.229 30.9375 11.0833 29.4479 11.0833C27.9583 11.0833 26.6042 12.3468 26.6042 13.9271Z" fill="#F9AB00"/>
<path d="M19.1562 23V31.8021C19.1562 33.8022 20.5361 34.9167 22 34.9167C23.3542 34.9167 24.8438 33.9687 24.8438 31.8021V23.1354C24.8438 21.3019 23.4896 20.1562 22 20.1562C20.5104 20.1562 19.1562 21.4197 19.1562 23Z" fill="#E37400"/>
<path d="M14.5521 34.9167C16.1226 34.9167 17.3958 33.6435 17.3958 32.0729C17.3958 30.5024 16.1226 29.2292 14.5521 29.2292C12.9815 29.2292 11.7083 30.5024 11.7083 32.0729C11.7083 33.6435 12.9815 34.9167 14.5521 34.9167Z" fill="#E37400"/>
</g>
<defs>
<clipPath id="clip0_1131_4">
<rect width="26" height="26" fill="white" transform="translate(9 10)"/>
</clipPath>
</defs>
</svg>
