<svg width="30" height="39" viewBox="0 0 30 39" fill="none" xmlns="http://www.w3.org/2000/svg">
<path d="M18.5078 0.25C19.5022 0.25012 20.456 0.645478 21.1592 1.34863L28.4014 8.59082L28.5303 8.72559C29.153 9.41336 29.4999 10.31 29.5 11.2422V35C29.5 37.0711 27.8211 38.75 25.75 38.75H3.75C1.67893 38.75 0 37.0711 0 35V4C2.25493e-07 1.92893 1.67893 0.25 3.75 0.25H18.5078ZM3.75 1.75C2.50736 1.75 1.5 2.75736 1.5 4V35C1.5 36.2426 2.50736 37.25 3.75 37.25H25.75C26.9926 37.25 28 36.2426 28 35V11.2422C28 11.0751 27.9794 10.9104 27.9434 10.75H22.75C20.7439 10.7499 19.1055 9.1745 19.0049 7.19336L19 7V1.80664C18.8395 1.77059 18.6748 1.75003 18.5078 1.75H3.75ZM25.3271 31.2539C25.7051 31.2925 26 31.6118 26 32C26 32.3882 25.7051 32.7075 25.3271 32.7461L25.25 32.75H5.25C4.83579 32.75 4.5 32.4142 4.5 32C4.5 31.5858 4.83579 31.25 5.25 31.25H25.25L25.3271 31.2539ZM25.3271 25.2539C25.7051 25.2925 26 25.6118 26 26C26 26.3882 25.7051 26.7075 25.3271 26.7461L25.25 26.75H5.25C4.83579 26.75 4.5 26.4142 4.5 26C4.5 25.5858 4.83579 25.25 5.25 25.25H25.25L25.3271 25.2539ZM11.25 13.25C14.7018 13.25 17.5 16.0482 17.5 19.5V20C17.5 20.4142 17.1642 20.75 16.75 20.75C16.3358 20.75 16 20.4142 16 20V19.5C16 16.8766 13.8734 14.75 11.25 14.75C8.62665 14.75 6.5 16.8766 6.5 19.5V20C6.5 20.4142 6.16421 20.75 5.75 20.75C5.33579 20.75 5 20.4142 5 20V19.5C5 16.0482 7.79822 13.25 11.25 13.25ZM11.25 5C13.183 5 14.75 6.567 14.75 8.5C14.75 10.433 13.183 12 11.25 12C9.317 12 7.75 10.433 7.75 8.5C7.75 6.567 9.317 5 11.25 5ZM11.25 6.5C10.1454 6.5 9.25 7.39543 9.25 8.5C9.25 9.60457 10.1454 10.5 11.25 10.5C12.3546 10.5 13.25 9.60457 13.25 8.5C13.25 7.39543 12.3546 6.5 11.25 6.5ZM20.5 7L20.5117 7.23047C20.6271 8.36478 21.5853 9.24988 22.75 9.25H26.9395L20.5 2.81055V7Z" fill="#FF1515"/>
</svg>
