<svg width="32" height="20" viewBox="0 0 32 20" fill="none" xmlns="http://www.w3.org/2000/svg">
<path d="M4 2V17H28V2H4ZM30 19H2V2C2 0.895431 2.89543 4.83192e-08 4 0H28L28.2041 0.0107422C29.2128 0.113005 30 0.96435 30 2V19Z" fill="black"/>
<path d="M31.9902 18.3838C31.9043 19.2311 31.2311 19.9043 30.3838 19.9902L30.2002 20H1.7998C0.805847 19.9999 0.000105578 19.1942 0 18.2002C0 17.5789 0.4721 17.0674 1.07715 17.0059L1.2002 17H30.7998C31.4625 17 32 17.5375 32 18.2002L31.9902 18.3838Z" fill="black"/>
</svg>
