<?xml version="1.0" encoding="UTF-8"?>
<svg id="Layer_1" xmlns="http://www.w3.org/2000/svg" version="1.1" viewBox="0 0 38 38">
  <!-- Generator: Adobe Illustrator 29.8.3, SVG Export Plug-In . SVG Version: 2.1.1 Build 3)  -->
  <defs>
    <style>
      .st0 {
        fill: #ff1515;
      }
    </style>
  </defs>
  <path class="st0" d="M32.69,2.28c1.67,0,3.02,1.35,3.02,3.02v27.39c0,1.67-1.35,3.03-3.03,3.03H5.3c-1.67,0-3.02-1.35-3.02-3.03V5.3c0-1.67,1.35-3.02,3.02-3.02h27.39M32.69.48H5.3C2.64.48.48,2.64.48,5.3v27.39c0,2.66,2.16,4.83,4.82,4.83h27.39c2.66,0,4.83-2.16,4.83-4.83V5.3c0-2.66-2.16-4.82-4.82-4.82h0Z"/>
  <rect class="st0" x="7.12" y="14.57" width="5.51" height="17.47" rx=".88" ry=".88"/>
  <circle class="st0" cx="9.87" cy="9.53" r="3.56"/>
  <path class="st0" d="M32.21,31.23c0,.45-.36.81-.81.81h-4.02c-.45,0-.81-.36-.81-.81v-7.37c0-1.1.32-4.82-2.87-4.82-2.48,0-2.98,2.54-3.08,3.69v8.5c0,.45-.36.81-.81.81h-3.89c-.45,0-.81-.36-.81-.81v-15.85c0-.45.36-.81.81-.81h3.89c.45,0,.81.36.81.81v1.37c.92-1.38,2.28-2.44,5.19-2.44,6.44,0,6.4,6.02,6.4,9.32v7.6h0Z"/>
</svg>