<?xml version="1.0" encoding="UTF-8"?>
<svg id="Layer_1" xmlns="http://www.w3.org/2000/svg" version="1.1" viewBox="0 0 38 38">
  <!-- Generator: Adobe Illustrator 29.8.3, SVG Export Plug-In . SVG Version: 2.1.1 Build 3)  -->
  <defs>
    <style>
      .st0 {
        fill: #ff1515;
      }
    </style>
  </defs>
  <path class="st0" d="M34.14.52H3.86C2.02.52.52,2.02.52,3.86v30.27c0,1.85,1.5,3.34,3.34,3.34h30.27c1.85,0,3.34-1.5,3.34-3.34V3.86c0-1.85-1.5-3.34-3.34-3.34ZM35.73,34.14c0,.88-.71,1.59-1.59,1.59H3.86c-.88,0-1.59-.71-1.59-1.59V3.86c0-.88.71-1.59,1.59-1.59h30.27c.88,0,1.59.71,1.59,1.59v30.27Z"/>
  <rect class="st0" x="5.87" y="14.1" width="6.09" height="19.31" rx=".97" ry=".97"/>
  <path class="st0" d="M8.91,4.59c-2.17,0-3.93,1.76-3.93,3.93s1.76,3.93,3.93,3.93,3.93-1.76,3.93-3.93-1.76-3.93-3.93-3.93Z"/>
  <path class="st0" d="M26.52,13.81c-3.21,0-4.72,1.18-5.74,2.7v-1.51c0-.49-.4-.89-.89-.89h-4.3c-.49,0-.89.4-.89.89v17.52c0,.49.4.89.89.89h4.3c.49,0,.89-.4.89-.89v-9.39c.11-1.26.67-4.07,3.41-4.07,3.53,0,3.17,4.11,3.17,5.32v8.14c0,.49.4.89.89.89h4.44c.49,0,.89-.4.89-.89v-8.4c0-3.65.04-10.3-7.08-10.3Z"/>
</svg>