
<svg xmlns="http://www.w3.org/2000/svg" version="1.1" xmlns:xlink="http://www.w3.org/1999/xlink" preserveAspectRatio="none" x="0px" y="0px" width="954px" height="400px" viewBox="0 0 954 400">
<defs>
<g id="Tween_40_0_Layer0_0_FILL">
<path fill="#000000" stroke="none" d="
M 341.75 137.6
Q 340.1 137.6 338.95 138.8 337.75 139.95 337.75 141.6
L 337.75 160.35
Q 337.75 162 338.95 163.2 340.1 164.35 341.75 164.35
L 360.5 164.35
Q 362.15 164.35 363.35 163.2 364.5 162 364.5 160.35
L 364.5 141.6
Q 364.5 139.95 363.35 138.8 362.15 137.6 360.5 137.6
L 341.75 137.6 Z"/>
</g>

<g id="Tween_38_0_Layer0_0_FILL">
<path fill="#000000" stroke="none" d="
M 341.75 172.15
Q 340.1 172.15 338.95 173.35 337.75 174.5 337.75 176.15
L 337.75 194.9
Q 337.75 196.55 338.95 197.75 340.1 198.9 341.75 198.9
L 360.5 198.9
Q 362.15 198.9 363.35 197.75 364.5 196.55 364.5 194.9
L 364.5 176.15
Q 364.5 174.5 363.35 173.35 362.15 172.15 360.5 172.15
L 341.75 172.15 Z"/>
</g>

<g id="Tween_36_0_Layer0_0_FILL">
<path fill="#000000" stroke="none" d="
M 364.5 229.5
L 364.5 210.7
Q 364.5 209.05 363.35 207.9 362.15 206.7 360.5 206.7
L 341.75 206.7
Q 340.1 206.7 338.95 207.9 337.75 209.05 337.75 210.7
L 337.75 229.5
Q 337.75 231.15 338.95 232.35 340.1 233.5 341.75 233.5
L 360.5 233.5
Q 362.15 233.5 363.35 232.35 364.5 231.15 364.5 229.5 Z"/>
</g>

<g id="Tween_34_0_Layer0_0_FILL">
<path fill="#000000" stroke="none" d="
M 341.75 241.3
Q 340.1 241.3 338.95 242.45 337.75 243.6 337.75 245.3
L 337.75 264.05
Q 337.75 265.7 338.95 266.9 340.1 268.05 341.75 268.05
L 360.5 268.05
Q 362.15 268.05 363.35 266.9 364.5 265.7 364.5 264.05
L 364.5 245.3
Q 364.5 243.6 363.35 242.45 362.15 241.3 360.5 241.3
L 341.75 241.3 Z"/>
</g>

<g id="Tween_32_0_Layer0_0_FILL">
<path fill="#000000" stroke="none" d="
M 328.8 197.75
Q 329.95 196.55 329.95 194.9
L 329.95 176.15
Q 329.95 174.5 328.8 173.35 327.6 172.15 325.95 172.15
L 307.2 172.15
Q 305.5 172.15 304.35 173.35 303.2 174.5 303.2 176.15
L 303.2 194.9
Q 303.2 196.55 304.35 197.75 305.5 198.9 307.2 198.9
L 325.95 198.9
Q 327.6 198.9 328.8 197.75 Z"/>
</g>

<g id="Tween_30_0_Layer0_0_FILL">
<path fill="#000000" stroke="none" d="
M 295.4 141.6
Q 295.4 139.95 294.25 138.8 293.05 137.6 291.4 137.6
L 272.6 137.6
Q 270.95 137.6 269.8 138.8 268.6 139.95 268.6 141.6
L 268.6 160.35
Q 268.6 162 269.8 163.2 270.95 164.35 272.6 164.35
L 291.4 164.35
Q 293.05 164.35 294.25 163.2 295.4 162 295.4 160.35
L 295.4 141.6 Z"/>
</g>

<g id="Tween_28_0_Layer0_0_FILL">
<path fill="#000000" stroke="none" d="
M 272.6 172.15
Q 270.95 172.15 269.8 173.35 268.6 174.5 268.6 176.15
L 268.6 194.9
Q 268.6 196.55 269.8 197.75 270.95 198.9 272.6 198.9
L 291.4 198.9
Q 293.05 198.9 294.25 197.75 295.4 196.55 295.4 194.9
L 295.4 176.15
Q 295.4 174.5 294.25 173.35 293.05 172.15 291.4 172.15
L 272.6 172.15 Z"/>
</g>

<g id="Tween_26_0_Layer0_0_FILL">
<path fill="#000000" stroke="none" d="
M 291.4 233.5
Q 293.05 233.5 294.25 232.35 295.4 231.15 295.4 229.5
L 295.4 210.7
Q 295.4 209.05 294.25 207.9 293.05 206.7 291.4 206.7
L 272.6 206.7
Q 270.95 206.7 269.8 207.9 268.6 209.05 268.6 210.7
L 268.6 229.5
Q 268.6 231.15 269.8 232.35 270.95 233.5 272.6 233.5
L 291.4 233.5 Z"/>
</g>

<g id="Tween_24_0_Layer0_0_FILL">
<path fill="#000000" stroke="none" d="
M 295.4 245.3
Q 295.4 243.6 294.25 242.45 293.05 241.3 291.4 241.3
L 272.6 241.3
Q 270.95 241.3 269.8 242.45 268.6 243.6 268.6 245.3
L 268.6 264.05
Q 268.6 265.7 269.8 266.9 270.95 268.05 272.6 268.05
L 291.4 268.05
Q 293.05 268.05 294.25 266.9 295.4 265.7 295.4 264.05
L 295.4 245.3 Z"/>
</g>

<g id="Tween_22_0_Layer0_0_FILL">
<path fill="#FF1515" stroke="none" d="
M 203.5 129.8
L 222.25 129.8
Q 223.9 129.8 225.1 128.65 226.25 127.45 226.25 125.8
L 226.25 107
Q 226.25 105.35 225.1 104.2 223.9 103 222.25 103
L 203.5 103
Q 201.85 103 200.7 104.2 199.5 105.35 199.5 107
L 199.5 125.8
Q 199.5 127.45 200.7 128.65 201.85 129.8 203.5 129.8 Z"/>
</g>

<g id="Tween_20_0_Layer0_0_FILL">
<path fill="#000000" stroke="none" d="
M 238.05 137.6
Q 236.4 137.6 235.25 138.8 234.05 139.95 234.05 141.6
L 234.05 160.35
Q 234.05 162 235.25 163.2 236.4 164.35 238.05 164.35
L 256.8 164.35
Q 258.45 164.35 259.65 163.2 260.8 162 260.8 160.35
L 260.8 141.6
Q 260.8 139.95 259.65 138.8 258.45 137.6 256.8 137.6
L 238.05 137.6 Z"/>
</g>

<g id="Tween_18_0_Layer0_0_FILL">
<path fill="#000000" stroke="none" d="
M 238.05 172.15
Q 236.4 172.15 235.25 173.35 234.05 174.5 234.05 176.15
L 234.05 194.9
Q 234.05 196.55 235.25 197.75 236.4 198.9 238.05 198.9
L 256.8 198.9
Q 258.45 198.9 259.65 197.75 260.8 196.55 260.8 194.9
L 260.8 176.15
Q 260.8 174.5 259.65 173.35 258.45 172.15 256.8 172.15
L 238.05 172.15 Z"/>
</g>

<g id="Tween_14_0_Layer0_0_FILL">
<path fill="#000000" stroke="none" d="
M 256.8 233.5
Q 258.45 233.5 259.65 232.35 260.8 231.15 260.8 229.5
L 260.8 210.7
Q 260.8 209.05 259.65 207.9 258.45 206.7 256.8 206.7
L 238.05 206.7
Q 236.4 206.7 235.25 207.9 234.05 209.05 234.05 210.7
L 234.05 229.5
Q 234.05 231.15 235.25 232.35 236.4 233.5 238.05 233.5
L 256.8 233.5 Z"/>
</g>

<g id="Tween_12_0_Layer0_0_FILL">
<path fill="#000000" stroke="none" d="
M 260.8 245.3
Q 260.8 243.6 259.65 242.45 258.45 241.3 256.8 241.3
L 238.05 241.3
Q 236.4 241.3 235.25 242.45 234.05 243.6 234.05 245.3
L 234.05 264.05
Q 234.05 265.7 235.25 266.9 236.4 268.05 238.05 268.05
L 256.8 268.05
Q 258.45 268.05 259.65 266.9 260.8 265.7 260.8 264.05
L 260.8 245.3 Z"/>
</g>

<g id="Tween_10_0_Layer0_0_FILL">
<path fill="#000000" stroke="none" d="
M 200.7 173.35
Q 199.5 174.5 199.5 176.15
L 199.5 194.9
Q 199.5 196.55 200.7 197.75 201.85 198.9 203.5 198.9
L 222.25 198.9
Q 223.9 198.9 225.1 197.75 226.25 196.55 226.25 194.9
L 226.25 176.15
Q 226.25 174.5 225.1 173.35 223.9 172.15 222.25 172.15
L 203.5 172.15
Q 201.85 172.15 200.7 173.35 Z"/>
</g>

<g id="Tween_8_0_Layer0_0_FILL">
<path fill="#000000" stroke="none" d="
M 226.25 245.3
Q 226.25 243.6 225.1 242.45 223.9 241.3 222.25 241.3
L 203.5 241.3
Q 201.85 241.3 200.7 242.45 199.5 243.6 199.5 245.3
L 199.5 264.05
Q 199.5 265.7 200.7 266.9 201.85 268.05 203.5 268.05
L 222.25 268.05
Q 223.9 268.05 225.1 266.9 226.25 265.7 226.25 264.05
L 226.25 245.3 Z"/>
</g>

<g id="Tween_6_0_Layer0_0_FILL">
<path fill="#000000" stroke="none" d="
M 168.95 241.3
Q 167.25 241.3 166.1 242.45 164.95 243.6 164.95 245.3
L 164.95 264.05
Q 164.95 265.7 166.1 266.9 167.25 268.05 168.95 268.05
L 187.7 268.05
Q 189.35 268.05 190.55 266.9 191.7 265.7 191.7 264.05
L 191.7 245.3
Q 191.7 243.6 190.55 242.45 189.35 241.3 187.7 241.3
L 168.95 241.3 Z"/>
</g>

<g id="Symbol_1_0_Layer0_0_FILL">
<path fill="#000000" stroke="none" d="
M 25.6 1.2
Q 24.4 0 22.75 0
L 4 0
Q 2.3 0 1.15 1.2 0 2.35 0 4
L 0 22.8
Q 0 24.45 1.15 25.65 2.3 26.8 4 26.8
L 22.75 26.8
Q 24.4 26.8 25.6 25.65 26.75 24.45 26.75 22.8
L 26.75 4
Q 26.75 2.35 25.6 1.2 Z"/>
</g>

<g id="Tween_43_0_Layer0_0_MEMBER_0_FILL">
<path fill="#1A1A1A" stroke="none" d="
M 298.95 48.8
L 297.4 48.8 297.4 51.2 298.95 51.2 298.95 48.8 Z"/>
</g>

<g id="Tween_43_0_Layer0_0_MEMBER_1_FILL">
<path fill="#1A1A1A" stroke="none" d="
M 295.65 42.8
L 295.3 42.8
Q 293.95 42.8 292.8 43.9
L 292.8 42.95 291.4 42.95 291.4 51.2 292.8 51.2 292.8 45.15
Q 294 44.1 295.3 44.1
L 295.65 44.1 295.65 42.8 Z"/>
</g>

<g id="Tween_43_0_Layer0_0_MEMBER_2_FILL">
<path fill="#1A1A1A" stroke="none" d="
M 285.9 42.75
Q 284.85 42.75 284 43.25 283.1 43.8 282.65 44.75 282.15 45.85 282.15 47.1 282.15 48.45 282.65 49.4 283.1 50.35 284.05 50.9 284.9 51.45 286.3 51.45 287.95 51.45 289.2 50.75
L 288.8 49.6
Q 287.45 50.2 286.4 50.2 284.95 50.2 284.3 49.4 283.65 48.6 283.65 47.2
L 289.4 47.2 289.4 46.65
Q 289.4 44.7 288.45 43.75 287.6 42.75 285.9 42.75
M 285.9 44
Q 286.9 44 287.35 44.5 287.8 44.9 287.9 46.05
L 283.7 46.05
Q 284.05 44 285.9 44 Z"/>
</g>

<g id="Tween_43_0_Layer0_0_MEMBER_3_FILL">
<path fill="#1A1A1A" stroke="none" d="
M 280.45 47.1
Q 280.45 44.9 279.45 43.85 278.5 42.75 276.8 42.75 275.6 42.75 274.45 43.75
L 274.45 42.95 273.05 42.95 273.05 54.7 274.45 54.7 274.45 50.45
Q 275.5 51.45 276.8 51.45 278.5 51.45 279.45 50.35 280.45 49.3 280.45 47.1
M 276.6 44.05
Q 277.8 44.05 278.4 44.8 279.05 45.7 279.05 47.1 279.05 48.5 278.4 49.4 277.8 50.15 276.6 50.15 275.5 50.15 274.45 49.25
L 274.45 44.95
Q 275.5 44.05 276.6 44.05 Z"/>
</g>

<g id="Tween_43_0_Layer0_0_MEMBER_4_FILL">
<path fill="#1A1A1A" stroke="none" d="
M 262.7 47.1
Q 262.7 48.2 263.2 49.35 263.65 50.3 264.55 50.9 265.4 51.45 266.8 51.45 268.2 51.45 269 50.9 269.95 50.3 270.4 49.35 270.85 48.3 270.85 47.1 270.85 45.9 270.4 44.9 269.95 43.9 269 43.3 268.05 42.75 266.8 42.75 265.5 42.75 264.55 43.3 263.6 43.9 263.2 44.9 262.7 46 262.7 47.1
M 264.85 49.35
Q 264.2 48.5 264.2 47.1 264.2 45.7 264.85 44.9 265.6 44 266.8 44 268.05 44 268.7 44.9 269.4 45.75 269.4 47.1 269.4 48.4 268.7 49.35 268 50.2 266.8 50.2 265.6 50.2 264.85 49.35 Z"/>
</g>

<g id="Tween_43_0_Layer0_0_MEMBER_5_FILL">
<path fill="#1A1A1A" stroke="none" d="
M 259.85 49.1
L 259.85 38.6 258.45 38.6 258.45 49.45
Q 258.45 50.45 258.95 50.95 259.5 51.4 260.55 51.4 261.1 51.4 261.5 51.3
L 261.5 50
Q 261.3 50.1 260.75 50.1 260.25 50.1 260.05 49.9 259.85 49.6 259.85 49.1 Z"/>
</g>

<g id="Tween_43_0_Layer0_0_MEMBER_6_FILL">
<path fill="#1A1A1A" stroke="none" d="
M 253 42.75
Q 251.9 42.75 251.1 43.25 250.15 43.8 249.75 44.75 249.25 45.7 249.25 47.1 249.25 48.45 249.7 49.4 250.25 50.4 251.1 50.9 252 51.45 253.35 51.45 255.05 51.45 256.3 50.75
L 255.85 49.6
Q 254.6 50.2 253.45 50.2 252 50.2 251.4 49.4 250.7 48.55 250.7 47.2
L 256.45 47.2 256.45 46.65
Q 256.45 44.75 255.55 43.75 254.7 42.75 253 42.75
M 250.8 46.05
Q 251.15 44 253 44 253.95 44 254.45 44.5 254.9 44.95 255 46.05
L 250.8 46.05 Z"/>
</g>

<g id="Tween_43_0_Layer0_0_MEMBER_7_FILL">
<path fill="#1A1A1A" stroke="none" d="
M 248.1 42.95
L 246.65 42.95 244.2 49.8 241.7 42.95 240.25 42.95 243.35 51.35 245 51.35 248.1 42.95 Z"/>
</g>

<g id="Tween_43_0_Layer0_0_MEMBER_8_FILL">
<path fill="#1A1A1A" stroke="none" d="
M 232.55 44.75
Q 232.05 45.7 232.05 47.1 232.05 48.45 232.5 49.4 233.05 50.4 233.9 50.9 234.8 51.45 236.15 51.45 237.85 51.45 239.1 50.75
L 238.65 49.6
Q 237.4 50.2 236.25 50.2 234.8 50.2 234.2 49.4 233.5 48.55 233.5 47.2
L 239.25 47.2 239.25 46.65
Q 239.25 44.75 238.35 43.75 237.5 42.75 235.8 42.75 234.7 42.75 233.9 43.25 232.95 43.8 232.55 44.75
M 235.8 44
Q 236.75 44 237.25 44.5 237.7 44.95 237.8 46.05
L 233.6 46.05
Q 233.95 44 235.8 44 Z"/>
</g>

<g id="Tween_43_0_Layer0_0_MEMBER_9_FILL">
<path fill="#1A1A1A" stroke="none" d="
M 229.85 38.6
L 228.45 38.6 228.45 43.75
Q 227.3 42.75 226.05 42.75 224.35 42.75 223.4 43.85 222.4 45 222.4 47.1 222.4 49.2 223.4 50.35 224.35 51.45 226.05 51.45 227.3 51.45 228.45 50.45
L 228.45 51.2 229.85 51.2 229.85 38.6
M 224.45 49.4
Q 223.85 48.6 223.85 47.1 223.85 45.65 224.45 44.8 225.05 44.05 226.25 44.05 227.35 44.05 228.45 44.95
L 228.45 49.25
Q 227.35 50.15 226.25 50.15 225.05 50.15 224.45 49.4 Z"/>
</g>

<g id="Tween_43_0_Layer0_0_MEMBER_10_FILL">
<path fill="#1A1A1A" stroke="none" d="
M 210.5 43.85
Q 209.5 44.9 209.5 47.1 209.5 49.3 210.5 50.35 211.45 51.45 213.15 51.45 214.4 51.45 215.55 50.45
L 215.55 51.2 216.95 51.2 216.95 38.6 215.55 38.6 215.55 43.75
Q 214.4 42.75 213.15 42.75 211.45 42.75 210.5 43.85
M 211.55 49.4
Q 210.95 48.6 210.95 47.1 210.95 45.65 211.55 44.8 212.15 44.05 213.35 44.05 214.45 44.05 215.55 44.95
L 215.55 49.25
Q 214.45 50.15 213.35 50.15 212.15 50.15 211.55 49.4 Z"/>
</g>

<g id="Tween_43_0_Layer0_0_MEMBER_11_FILL">
<path fill="#1A1A1A" stroke="none" d="
M 204.2 44.1
Q 205.15 44.1 205.6 44.6 206 45.1 206 46.25
L 206 51.2 207.4 51.2 207.4 46.25
Q 207.4 44.45 206.65 43.6 205.9 42.8 204.4 42.8 203.15 42.8 201.85 43.85
L 201.85 42.95 200.45 42.95 200.45 51.2 201.85 51.2 201.85 45.1
Q 203.1 44.1 204.2 44.1 Z"/>
</g>

<g id="Tween_43_0_Layer0_0_MEMBER_12_FILL">
<path fill="#1A1A1A" stroke="none" d="
M 191.7 44.75
Q 191.25 45.75 191.25 47.1 191.25 48.45 191.7 49.4 192.25 50.4 193.1 50.9 194 51.45 195.35 51.45 197.05 51.45 198.3 50.75
L 197.85 49.6
Q 196.6 50.2 195.45 50.2 194 50.2 193.4 49.4 192.7 48.55 192.7 47.2
L 198.45 47.2 198.45 46.65
Q 198.45 44.75 197.55 43.75 196.6 42.75 195 42.75 193.9 42.75 193.1 43.25 192.2 43.8 191.7 44.75
M 195 44
Q 195.95 44 196.4 44.5 196.9 44.95 197 46.05
L 192.8 46.05
Q 193.1 44 195 44 Z"/>
</g>

<g id="Tween_43_0_Layer0_0_MEMBER_13_FILL">
<path fill="#1A1A1A" stroke="none" d="
M 182.1 43.05
L 182.1 44.35 183.2 44.35 183.2 49.4
Q 183.2 50.5 183.65 50.95 184.1 51.4 185.2 51.4 185.75 51.4 186.4 51.25
L 186.4 50 185.45 50.1
Q 184.95 50.1 184.75 49.9 184.6 49.7 184.6 49.1
L 184.6 44.35 186.5 44.35 186.5 43.05 184.6 43.05 184.6 40.25 183.2 40.25 183.2 43.05 182.1 43.05 Z"/>
</g>

<g id="Tween_43_0_Layer0_0_MEMBER_14_FILL">
<path fill="#1A1A1A" stroke="none" d="
M 177.3 42.8
Q 176 42.8 174.8 43.85
L 174.8 42.95 173.35 42.95 173.35 51.2 174.8 51.2 174.8 45.1
Q 175.95 44.1 177.1 44.1 178.15 44.1 178.5 44.6 178.9 45.1 178.9 46.25
L 178.9 51.2 180.3 51.2 180.3 46.25
Q 180.3 44.45 179.55 43.6 178.8 42.8 177.3 42.8 Z"/>
</g>

<g id="Tween_43_0_Layer0_0_MEMBER_15_FILL">
<path fill="#1A1A1A" stroke="none" d="
M 169.35 43.3
Q 168.4 42.75 167.15 42.75 165.85 42.75 164.9 43.3 163.95 43.9 163.55 44.9 163.05 45.85 163.05 47.1 163.05 48.35 163.55 49.35 164 50.3 164.9 50.9 165.75 51.45 167.15 51.45 168.55 51.45 169.35 50.9 170.3 50.3 170.75 49.35 171.2 48.3 171.2 47.1 171.2 45.9 170.75 44.9 170.3 43.9 169.35 43.3
M 165.2 49.35
Q 164.55 48.5 164.55 47.1 164.55 45.7 165.2 44.9 165.9 44 167.15 44 168.4 44 169.05 44.9 169.75 45.75 169.75 47.1 169.75 48.4 169.05 49.35 168.35 50.2 167.15 50.2 165.9 50.2 165.2 49.35 Z"/>
</g>

<g id="Tween_43_0_Layer0_0_MEMBER_16_FILL">
<path fill="#1A1A1A" stroke="none" d="
M 161.8 42.8
L 161.45 42.8
Q 160.1 42.8 158.95 43.9
L 158.95 42.95 157.55 42.95 157.55 51.2 158.95 51.2 158.95 45.15
Q 160.15 44.1 161.45 44.1
L 161.8 44.1 161.8 42.8 Z"/>
</g>

<g id="Tween_43_0_Layer0_0_MEMBER_17_FILL">
<path fill="#1A1A1A" stroke="none" d="
M 150.1 41.2
L 155.5 41.2 155.5 39.9 148.65 39.9 148.65 51.2 150.1 51.2 150.1 46.4 154.75 46.4 154.75 45.1 150.1 45.1 150.1 41.2 Z"/>
</g>

<g id="Tween_43_0_Layer0_0_MEMBER_18_FILL">
<path fill="#1A1A1A" stroke="none" d="
M 135.95 43.85
Q 135 44.95 135 47.1 135 49.25 135.95 50.35 137 51.45 138.65 51.45 139.9 51.45 141.05 50.45
L 141.05 51.2 142.45 51.2 142.45 38.6 141.05 38.6 141.05 43.75
Q 139.9 42.75 138.65 42.75 137 42.75 135.95 43.85
M 141.05 44.95
L 141.05 49.25
Q 139.85 50.15 138.8 50.15 137.65 50.15 137.05 49.4 136.45 48.6 136.45 47.1 136.45 45.65 137.05 44.8 137.65 44.05 138.8 44.05 139.95 44.05 141.05 44.95 Z"/>
</g>

<g id="Tween_43_0_Layer0_0_MEMBER_19_FILL">
<path fill="#1A1A1A" stroke="none" d="
M 129.9 42.8
Q 128.55 42.8 127.35 43.85
L 127.35 42.95 125.95 42.95 125.95 51.2 127.35 51.2 127.35 45.1
Q 128.6 44.1 129.7 44.1 130.7 44.1 131.05 44.6 131.45 45 131.45 46.25
L 131.45 51.2 132.9 51.2 132.9 46.25
Q 132.9 44.45 132.15 43.6 131.4 42.8 129.9 42.8 Z"/>
</g>

<g id="Tween_43_0_Layer0_0_MEMBER_20_FILL">
<path fill="#1A1A1A" stroke="none" d="
M 121.55 44.45
Q 121.95 44.7 122.1 45.1
L 122.25 46.3
Q 121.4 45.8 120.2 45.8 118.8 45.8 117.95 46.55 117.15 47.2 117.15 48.6 117.15 49.55 117.5 50.1 117.85 50.75 118.5 51.1 119.1 51.4 119.9 51.4 120.65 51.4 121.1 51.15 121.6 50.95 122.25 50.4
L 122.25 51.2 123.65 51.2 123.65 46.45
Q 123.65 45.45 123.4 44.6 123.2 43.85 122.5 43.4 121.85 42.95 120.5 42.95
L 119.2 42.95 119.2 44.2 120.3 44.2
Q 121.05 44.2 121.55 44.45
M 122.25 47.35
L 122.25 49.25
Q 121.7 49.7 121.15 49.95 120.5 50.2 120.1 50.2 119.4 50.2 119 49.85 118.55 49.4 118.55 48.6 118.55 47.75 119.1 47.35 119.65 46.95 120.4 46.95 121.35 46.95 122.25 47.35 Z"/>
</g>

<g id="Tween_43_0_Layer0_0_MEMBER_21_FILL">
<path fill="#1A1A1A" stroke="none" d="
M 112.9 42.8
L 112.55 42.8
Q 111.3 42.8 110.05 43.9
L 110.05 42.95 108.65 42.95 108.65 51.2 110.05 51.2 110.05 45.15
Q 111.35 44.1 112.55 44.1
L 112.9 44.1 112.9 42.8 Z"/>
</g>

<g id="Tween_43_0_Layer0_0_MEMBER_22_FILL">
<path fill="#1A1A1A" stroke="none" d="
M 99.45 47.1
Q 99.45 48.45 99.9 49.4 100.45 50.4 101.3 50.9 102.2 51.45 103.55 51.45 105.25 51.45 106.5 50.75
L 106.05 49.6
Q 104.8 50.2 103.7 50.2 102.25 50.2 101.6 49.4 100.9 48.55 100.9 47.2
L 106.65 47.2 106.65 46.65
Q 106.65 44.75 105.75 43.75 104.9 42.75 103.2 42.75 102.1 42.75 101.3 43.25 100.35 43.8 99.95 44.75 99.45 45.7 99.45 47.1
M 103.2 44
Q 104.15 44 104.65 44.5 105.1 44.95 105.2 46.05
L 101 46.05
Q 101.35 44 103.2 44 Z"/>
</g>

<g id="Tween_43_0_Layer0_0_MEMBER_23_FILL">
<path fill="#1A1A1A" stroke="none" d="
M 94.35 42.8
Q 93.1 42.8 91.8 43.85
L 91.8 42.95 90.4 42.95 90.4 51.2 91.8 51.2 91.8 45.1
Q 93.05 44.1 94.15 44.1 95.2 44.1 95.55 44.6 95.95 45.1 95.95 46.25
L 95.95 51.2 97.35 51.2 97.35 46.25
Q 97.35 44.45 96.6 43.6 95.85 42.8 94.35 42.8 Z"/>
</g>

<g id="Tween_43_0_Layer0_0_MEMBER_24_FILL">
<path fill="#1A1A1A" stroke="none" d="
M 87.95 42.95
L 86.55 42.95 86.55 43.75
Q 85.4 42.75 84.2 42.75 82.55 42.75 81.5 43.8 80.5 44.95 80.5 46.95 80.5 48.95 81.5 50.1 82.5 51.15 84.2 51.15 85.5 51.15 86.55 50.15
L 86.55 51.25
Q 86.55 52.15 86.35 52.6 86.2 53.1 85.65 53.4 85 53.65 84 53.65 83.45 53.65 82.75 53.5
L 81.35 53.05 81.35 54.4 82.8 54.85
Q 83.7 54.95 84.45 54.95 86.4 54.95 87.2 54 87.95 53.1 87.95 51.4
L 87.95 42.95
M 82.6 44.8
Q 83.2 44.05 84.35 44.05 85.5 44.05 86.55 44.95
L 86.55 48.95
Q 85.5 49.85 84.35 49.85 83.15 49.85 82.6 49.15 81.95 48.35 81.95 46.95 81.95 45.6 82.6 44.8 Z"/>
</g>

<g id="Tween_43_0_Layer0_0_MEMBER_25_FILL">
<path fill="#1A1A1A" stroke="none" d="
M 76.95 39.15
L 76.95 41.4 78.35 41.4 78.35 39.15 76.95 39.15
M 78.35 42.95
L 76.95 42.95 76.95 51.2 78.35 51.2 78.35 42.95 Z"/>
</g>

<g id="Tween_43_0_Layer0_0_MEMBER_26_FILL">
<path fill="#1A1A1A" stroke="none" d="
M 70.65 45.85
Q 70.35 45.55 70.35 45.05 70.35 44.6 70.7 44.3 71.1 44 71.85 44 72.6 44 73.2 44.15
L 74.4 44.6 74.4 43.25
Q 73.65 42.95 73.15 42.9 72.55 42.75 71.8 42.75 70.4 42.75 69.65 43.35 68.9 43.95 68.9 45.1 68.9 46.15 69.5 46.75 70.05 47.25 71.15 47.55
L 72.1 47.75
Q 72.75 47.95 73.05 48.2 73.35 48.45 73.35 49 73.35 49.55 73 49.9 72.65 50.2 71.8 50.2 70.15 50.2 68.7 49.45
L 68.7 50.8
Q 69.5 51.15 70.2 51.3 70.9 51.45 71.8 51.45 73.25 51.45 73.95 50.8 74.8 50.2 74.8 48.95 74.8 48.2 74.5 47.65 74.3 47.2 73.75 46.9
L 72.55 46.45 71.55 46.25
Q 71 46.1 70.65 45.85 Z"/>
</g>

<g id="Tween_43_0_Layer0_0_MEMBER_27_FILL">
<path fill="#1A1A1A" stroke="none" d="
M 60.05 47.1
Q 60.05 48.45 60.55 49.4 61 50.4 61.95 50.9 62.8 51.45 64.2 51.45 65.85 51.45 67.1 50.75
L 66.7 49.6
Q 65.35 50.2 64.3 50.2 62.85 50.2 62.2 49.4 61.6 48.65 61.5 47.2
L 67.3 47.2 67.3 46.65
Q 67.3 44.7 66.35 43.75 65.5 42.75 63.8 42.75 62.75 42.75 61.9 43.25 61 43.8 60.55 44.75 60.05 45.85 60.05 47.1
M 63.8 44
Q 64.75 44 65.25 44.5 65.7 44.9 65.8 46.05
L 61.6 46.05
Q 61.95 44 63.8 44 Z"/>
</g>

<g id="Tween_43_0_Layer0_0_MEMBER_28_FILL">
<path fill="#1A1A1A" stroke="none" d="
M 52.7 39.9
L 48.95 39.9 48.95 51.2 52.7 51.2
Q 55.55 51.2 56.95 49.8 58.35 48.4 58.35 45.6 58.35 42.8 56.9 41.35 55.45 39.9 52.7 39.9
M 56.85 45.55
Q 56.85 47.85 55.8 48.9 54.85 49.95 52.7 49.95
L 50.4 49.95 50.4 41.2 52.7 41.2
Q 54.75 41.2 55.8 42.25 56.85 43.3 56.85 45.55 Z"/>
</g>

<g id="Tween_43_0_Layer0_0_MEMBER_29_FILL">
<path fill="#1A1A1A" stroke="none" d="
M 42.5 39.9
L 41.05 39.9 41.05 51.2 42.5 51.2 42.5 39.9 Z"/>
</g>

<g id="Tween_43_0_Layer0_0_MEMBER_30_FILL">
<path fill="#1A1A1A" stroke="none" d="
M 37.9 47.25
L 37.9 39.9 36.45 39.9 36.45 47.25
Q 36.45 48.65 35.75 49.45 35 50.2 33.6 50.2 32.2 50.2 31.45 49.45 30.75 48.65 30.75 47.25
L 30.75 39.9 29.3 39.9 29.3 47.25
Q 29.3 49.3 30.35 50.4 31.5 51.45 33.6 51.45 35.75 51.45 36.85 50.4 37.9 49.3 37.9 47.25 Z"/>
</g>

<g id="Tween_43_0_Layer0_0_MEMBER_31_FILL">
<path fill="#1A1A1A" stroke="none" d="
M 27.75 37.35
L 26.3 37.35 21.65 53.85 23.1 53.85 27.75 37.35 Z"/>
</g>

<g id="Tween_43_0_Layer0_0_MEMBER_32_FILL">
<path fill="#1A1A1A" stroke="none" d="
M 17.05 45.4
L 20.8 39.9 19.1 39.9 16.15 44.3 13.2 39.9 11.5 39.9 15.25 45.4 11.25 51.2 12.95 51.2 16.15 46.45 19.35 51.2 21.05 51.2 17.05 45.4 Z"/>
</g>

<g id="Tween_43_0_Layer0_0_MEMBER_33_FILL">
<path fill="#1A1A1A" stroke="none" d="
M 9.05 47.25
L 9.05 39.9 7.6 39.9 7.6 47.25
Q 7.6 48.7 6.85 49.45 6.2 50.2 4.75 50.2 3.35 50.2 2.6 49.45 1.9 48.65 1.9 47.25
L 1.9 39.9 0.45 39.9 0.45 47.25
Q 0.45 49.3 1.5 50.4 2.55 51.45 4.75 51.45 6.9 51.45 7.95 50.4 9.05 49.3 9.05 47.25 Z"/>
</g>

<g id="Tween_43_0_Layer0_0_MEMBER_34_FILL">
<path fill="#0C0C0C" stroke="none" d="
M 288.6 24.55
L 291.15 26.3
Q 293.35 23.85 294.6 20.75 295.85 17.75 295.85 13.5 295.85 9.3 294.6 6.3 293.35 3.25 291.15 0.75
L 288.6 2.5
Q 292.05 7.15 292.05 13.5 292.05 19.9 288.6 24.55 Z"/>
</g>

<g id="Tween_43_0_Layer0_0_MEMBER_35_FILL">
<path fill="#0C0C0C" stroke="none" d="
M 285.9 22.9
L 285.9 18.45 282.15 18.45 282.15 22.9 285.9 22.9
M 285.9 12.6
L 285.9 8.1 282.15 8.1 282.15 12.6 285.9 12.6 Z"/>
</g>

<g id="Tween_43_0_Layer0_0_MEMBER_36_FILL">
<path fill="#0C0C0C" stroke="none" d="
M 271.2 9.4
Q 269.85 7.95 267 7.95 264.85 7.95 262.75 9.65
L 262.75 8.3 259.25 8.3 259.25 22.9 262.75 22.9 262.75 12.65
Q 264.6 11.1 266.35 11.1 267.85 11.1 268.45 11.85 269.1 12.5 269.1 14.1
L 269.1 22.9 272.6 22.9 272.6 14.1
Q 272.6 10.8 271.2 9.4 Z"/>
</g>

<g id="Tween_43_0_Layer0_0_MEMBER_37_FILL">
<path fill="#0C0C0C" stroke="none" d="
M 256.6 8.3
L 253.2 8.3 249.6 18.2 246.25 8.3 242.6 8.3 247.85 22.9 247.45 24.1
Q 246.9 25.45 246.35 25.85 245.85 26.3 244.8 26.3 244 26.3 243.3 26.15
L 243.3 29.2
Q 244.2 29.5 245.35 29.5 246.65 29.5 247.6 29.1 248.6 28.7 249.2 27.8 249.85 26.95 250.45 25.25
L 256.6 8.3 Z"/>
</g>

<g id="Tween_43_0_Layer0_0_MEMBER_38_FILL">
<path fill="#0C0C0C" stroke="none" d="
M 241.3 7.95
L 240.7 7.95
Q 238.55 7.95 236.5 9.75
L 236.5 8.3 233 8.3 233 22.9 236.5 22.9 236.5 12.75
Q 238.55 11.1 240.7 11.1
L 241.3 11.1 241.3 7.95 Z"/>
</g>

<g id="Tween_43_0_Layer0_0_MEMBER_39_FILL">
<path fill="#0C0C0C" stroke="none" d="
M 228.75 11.15
Q 228.3 9.8 226.95 9.05 225.6 8.3 223 8.3
L 220.15 8.3 220.15 11.3 222.6 11.3
Q 223.75 11.3 224.55 11.65 225.25 11.95 225.4 12.6 225.65 13.2 225.7 14.15 224 13.35 222.1 13.35 219.55 13.35 218.1 14.65 216.65 15.95 216.65 18.3 216.65 20.65 218.05 21.95 219.45 23.25 221.75 23.25 222.95 23.25 223.75 22.85 224.75 22.45 225.7 21.6
L 225.7 22.9 229.2 22.9 229.2 14.4
Q 229.2 12.45 228.75 11.15
M 222.8 16
Q 224.35 16 225.7 16.7
L 225.7 19
Q 223.95 20.45 222.4 20.45 221.45 20.45 220.8 19.95 220.2 19.45 220.2 18.25 220.2 17.1 220.95 16.55 221.65 16 222.8 16 Z"/>
</g>

<g id="Tween_43_0_Layer0_0_MEMBER_40_FILL">
<path fill="#0C0C0C" stroke="none" d="
M 204.15 22.9
Q 209.35 22.9 211.95 20.45 214.55 17.95 214.55 13 214.55 8.2 211.9 5.6 209.3 3.05 204.15 3.05
L 197.3 3.05 197.3 22.9 204.15 22.9
M 210.9 12.95
Q 210.9 16.6 209.2 18.2 207.55 19.8 204.15 19.8
L 200.95 19.8 200.95 6.2 204.15 6.2
Q 207.5 6.2 209.2 7.85 210.9 9.45 210.9 12.95 Z"/>
</g>

<g id="Tween_43_0_Layer0_0_MEMBER_41_FILL">
<path fill="#0C0C0C" stroke="none" d="
M 186.35 22.15
Q 187.9 20.95 187.9 18.65 187.9 16.65 186.9 15.55 185.85 14.6 183.75 14.05
L 181.6 13.6
Q 181.2 13.5 180.45 13.15 180.1 12.8 180.1 12.2 180.1 10.85 182.4 10.85 183.75 10.85 185 11.15 186.3 11.45 187.25 11.9
L 187.25 8.8
Q 184.55 7.85 182.2 7.85 176.55 7.85 176.55 12.4 176.55 14.25 177.55 15.35 178.55 16.3 180.65 16.75
L 182.75 17.25
Q 183.65 17.5 183.95 17.8 184.35 18.1 184.35 18.8 184.35 20.4 182.1 20.4 180.75 20.4 179.1 20.05 177.85 19.75 176.3 18.9
L 176.3 22.1
Q 177.8 22.8 179.1 23.1 180.5 23.35 182.1 23.35 184.8 23.35 186.35 22.15 Z"/>
</g>

<g id="Tween_43_0_Layer0_0_MEMBER_42_FILL">
<path fill="#0C0C0C" stroke="none" d="
M 169.4 1.8
L 169.4 5.75 172.95 5.75 172.95 1.8 169.4 1.8
M 169.4 8.3
L 169.4 22.9 172.95 22.9 172.95 8.3 169.4 8.3 Z"/>
</g>

<g id="Tween_43_0_Layer0_0_MEMBER_43_FILL">
<path fill="#0C0C0C" stroke="none" d="
M 158.85 9.7
Q 157.1 7.85 154.05 7.85 152.15 7.85 150.55 8.75 149.05 9.6 148.05 11.4 147.15 13.15 147.15 15.55 147.15 17.85 148 19.65 148.95 21.45 150.65 22.4 152.35 23.35 154.8 23.35 156.5 23.35 157.75 23.05 159.2 22.75 160.35 22.05
L 159.4 19.3
Q 158 19.9 157.2 20.1 156.25 20.4 155.2 20.4 151.25 20.4 150.8 16.4
L 160.65 16.4 160.65 15
Q 160.6 11.45 158.85 9.7
M 154.05 10.85
Q 155.4 10.85 156.1 11.55 156.8 12.2 156.95 13.7
L 150.95 13.7
Q 151.5 10.85 154.05 10.85 Z"/>
</g>

<g id="Tween_43_0_Layer0_0_MEMBER_44_FILL">
<path fill="#0C0C0C" stroke="none" d="
M 144.2 14.1
Q 144.2 10.9 142.85 9.45 141.6 7.95 138.8 7.95 137.5 7.95 136.3 8.55 135 9.25 133.95 10.3 133.35 9.1 132.2 8.55 131 7.95 129.3 7.95 127.15 7.95 125.2 9.6
L 125.2 8.3 121.7 8.3 121.7 22.9 125.2 22.9 125.2 12.65
Q 126.9 11.1 128.65 11.1 130.1 11.1 130.6 11.85 131.2 12.55 131.2 14.1
L 131.2 22.9 134.7 22.9 134.7 14.1 134.6 12.75
Q 136.5 11.1 138.15 11.1 139.6 11.1 140.1 11.85 140.7 12.55 140.7 14.1
L 140.7 22.9 144.2 22.9 144.2 14.1 Z"/>
</g>

<g id="Tween_43_0_Layer0_0_MEMBER_45_FILL">
<path fill="#0C0C0C" stroke="none" d="
M 117.45 11.15
Q 117 9.8 115.65 9.05 114.3 8.3 111.7 8.3
L 108.85 8.3 108.85 11.3 111.3 11.3
Q 112.45 11.3 113.25 11.65 113.95 11.95 114.1 12.6 114.35 13.2 114.4 14.15 112.7 13.35 110.8 13.35 108.25 13.35 106.8 14.65 105.35 15.95 105.35 18.3 105.35 20.65 106.75 21.95 108.15 23.25 110.45 23.25 111.65 23.25 112.45 22.85 113.45 22.45 114.4 21.6
L 114.4 22.9 117.9 22.9 117.9 14.4
Q 117.9 12.45 117.45 11.15
M 111.1 20.45
Q 110.05 20.45 109.5 19.95 108.9 19.45 108.9 18.25 108.9 17.1 109.65 16.55 110.35 16 111.5 16 113.05 16 114.4 16.7
L 114.4 19
Q 112.65 20.45 111.1 20.45 Z"/>
</g>

<g id="Tween_43_0_Layer0_0_MEMBER_46_FILL">
<path fill="#0C0C0C" stroke="none" d="
M 102.55 22.9
L 102.55 14.1
Q 102.55 10.8 101.15 9.4 99.8 7.95 96.95 7.95 94.7 7.95 92.7 9.65
L 92.7 8.3 89.2 8.3 89.2 22.9 92.7 22.9 92.7 12.65
Q 94.55 11.1 96.3 11.1 97.8 11.1 98.4 11.85 99.05 12.6 99.05 14.1
L 99.05 22.9 102.55 22.9 Z"/>
</g>

<g id="Tween_43_0_Layer0_0_MEMBER_47_FILL">
<path fill="#0C0C0C" stroke="none" d="
M 80.8 8.3
L 77.4 8.3 73.75 18.2 70.4 8.3 66.8 8.3 72.05 22.9 71.65 24.1
Q 71.1 25.45 70.55 25.85 70.05 26.3 69 26.3 68.2 26.3 67.5 26.15
L 67.5 29.2
Q 68.4 29.5 69.55 29.5 70.85 29.5 71.8 29.1 72.8 28.7 73.4 27.8 74.05 26.95 74.65 25.25
L 80.8 8.3 Z"/>
</g>

<g id="Tween_43_0_Layer0_0_MEMBER_48_FILL">
<path fill="#0C0C0C" stroke="none" d="
M 64.55 14.1
Q 64.55 10.9 63.2 9.45 61.85 7.95 59.15 7.95 57.8 7.95 56.65 8.55 55.45 9.15 54.3 10.3 53.7 9.05 52.5 8.55 51.4 7.95 49.65 7.95 47.5 7.95 45.55 9.6
L 45.55 8.3 42 8.3 42 22.9 45.55 22.9 45.55 12.65
Q 47.25 11.1 48.95 11.1 50.35 11.1 50.95 11.85 51.5 12.45 51.5 14.1
L 51.5 22.9 55.05 22.9 55.05 14.1 54.95 12.75
Q 56.75 11.1 58.45 11.1 59.85 11.1 60.45 11.85 61.05 12.55 61.05 14.1
L 61.05 22.9 64.55 22.9 64.55 14.1 Z"/>
</g>

<g id="Tween_43_0_Layer0_0_MEMBER_49_FILL">
<path fill="#0C0C0C" stroke="none" d="
M 29.25 18.45
L 27.7 26.85 30.85 26.85 32.95 18.45 29.25 18.45 Z"/>
</g>

<g id="Tween_43_0_Layer0_0_MEMBER_50_FILL">
<path fill="#0C0C0C" stroke="none" d="
M 21.15 1.8
L 21.15 5.75 24.65 5.75 24.65 1.8 21.15 1.8
M 21.15 8.3
L 21.15 22.9 24.65 22.9 24.65 8.3 21.15 8.3 Z"/>
</g>

<g id="Tween_43_0_Layer0_0_MEMBER_51_FILL">
<path fill="#0C0C0C" stroke="none" d="
M 16.6 3.05
L 12.95 3.05 12.95 11.35 4.05 11.35 4.05 3.05 0.45 3.05 0.45 22.9 4.05 22.9 4.05 14.5 12.95 14.5 12.95 22.9 16.6 22.9 16.6 3.05 Z"/>
</g>
</defs>

<g transform="matrix( 1, 0, 0, 1, 351.1,150.95) ">
<g transform="matrix( 1, 0, 0, 1, -351.1,-150.95) ">
<use xlink:href="#Tween_40_0_Layer0_0_FILL"/>
</g>
</g>

<g transform="matrix( 1, 0, 0, 1, 351.1,185.5) ">
<g transform="matrix( 1, 0, 0, 1, -351.1,-185.5) ">
<use xlink:href="#Tween_38_0_Layer0_0_FILL"/>
</g>
</g>

<g transform="matrix( 1, 0, 0, 1, 351.1,220.1) ">
<g transform="matrix( 1, 0, 0, 1, -351.1,-220.1) ">
<use xlink:href="#Tween_36_0_Layer0_0_FILL"/>
</g>
</g>

<g transform="matrix( 1, 0, 0, 1, 351.1,254.65) ">
<g transform="matrix( 1, 0, 0, 1, -351.1,-254.65) ">
<use xlink:href="#Tween_34_0_Layer0_0_FILL"/>
</g>
</g>

<g transform="matrix( 1, 0, 0, 1, 316.55,185.5) ">
<g transform="matrix( 1, 0, 0, 1, -316.55,-185.5) ">
<use xlink:href="#Tween_32_0_Layer0_0_FILL"/>
</g>
</g>

<g transform="matrix( 1, 0, 0, 1, 282,150.95) ">
<g transform="matrix( 1, 0, 0, 1, -282,-150.95) ">
<use xlink:href="#Tween_30_0_Layer0_0_FILL"/>
</g>
</g>

<g transform="matrix( 1, 0, 0, 1, 282,185.5) ">
<g transform="matrix( 1, 0, 0, 1, -282,-185.5) ">
<use xlink:href="#Tween_28_0_Layer0_0_FILL"/>
</g>
</g>

<g transform="matrix( 1, 0, 0, 1, 282,220.1) ">
<g transform="matrix( 1, 0, 0, 1, -282,-220.1) ">
<use xlink:href="#Tween_26_0_Layer0_0_FILL"/>
</g>
</g>

<g transform="matrix( 1, 0, 0, 1, 282,254.65) ">
<g transform="matrix( 1, 0, 0, 1, -282,-254.65) ">
<use xlink:href="#Tween_24_0_Layer0_0_FILL"/>
</g>
</g>

<g transform="matrix( 1, 0, 0, 1, 212.85,116.4) ">
<g transform="matrix( 1, 0, 0, 1, -212.85,-116.4) ">
<use xlink:href="#Tween_22_0_Layer0_0_FILL"/>
</g>
</g>

<g transform="matrix( 1, 0, 0, 1, 247.4,150.95) ">
<g transform="matrix( 1, 0, 0, 1, -247.4,-150.95) ">
<use xlink:href="#Tween_20_0_Layer0_0_FILL"/>
</g>
</g>

<g transform="matrix( 1, 0, 0, 1, 247.4,185.5) ">
<g transform="matrix( 1, 0, 0, 1, -247.4,-185.5) ">
<use xlink:href="#Tween_18_0_Layer0_0_FILL"/>
</g>
</g>

<g transform="matrix( 1, 0, 0, 1, 247.4,220.1) ">
<g transform="matrix( 1, 0, 0, 1, -247.4,-220.1) ">
<use xlink:href="#Tween_14_0_Layer0_0_FILL"/>
</g>
</g>

<g transform="matrix( 1, 0, 0, 1, 247.4,254.65) ">
<g transform="matrix( 1, 0, 0, 1, -247.4,-254.65) ">
<use xlink:href="#Tween_12_0_Layer0_0_FILL"/>
</g>
</g>

<g transform="matrix( 1, 0, 0, 1, 212.85,185.5) ">
<g transform="matrix( 1, 0, 0, 1, -212.85,-185.5) ">
<use xlink:href="#Tween_10_0_Layer0_0_FILL"/>
</g>
</g>

<g transform="matrix( 1, 0, 0, 1, 212.85,254.65) ">
<g transform="matrix( 1, 0, 0, 1, -212.85,-254.65) ">
<use xlink:href="#Tween_8_0_Layer0_0_FILL"/>
</g>
</g>

<g transform="matrix( 1, 0, 0, 1, 178.3,254.65) ">
<g transform="matrix( 1, 0, 0, 1, -178.3,-254.65) ">
<use xlink:href="#Tween_6_0_Layer0_0_FILL"/>
</g>
</g>

<g transform="matrix( 1, 0, 0, 1, 164.95,206.7) ">
<g transform="matrix( 1, 0, 0, 1, 0,0) ">
<use xlink:href="#Symbol_1_0_Layer0_0_FILL"/>
</g>
</g>

<g transform="matrix( 1, 0, 0, 1, 604.6,203.9) ">
<g transform="matrix( 1.266265869140625, 0, 0, 1.2668914794921875, -189.55,-35.25) ">
<use xlink:href="#Tween_43_0_Layer0_0_MEMBER_0_FILL"/>
</g>

<g transform="matrix( 1.266265869140625, 0, 0, 1.2668914794921875, -189.55,-35.25) ">
<use xlink:href="#Tween_43_0_Layer0_0_MEMBER_1_FILL"/>
</g>

<g transform="matrix( 1.266265869140625, 0, 0, 1.2668914794921875, -189.55,-35.25) ">
<use xlink:href="#Tween_43_0_Layer0_0_MEMBER_2_FILL"/>
</g>

<g transform="matrix( 1.266265869140625, 0, 0, 1.2668914794921875, -189.55,-35.25) ">
<use xlink:href="#Tween_43_0_Layer0_0_MEMBER_3_FILL"/>
</g>

<g transform="matrix( 1.266265869140625, 0, 0, 1.2668914794921875, -189.55,-35.25) ">
<use xlink:href="#Tween_43_0_Layer0_0_MEMBER_4_FILL"/>
</g>

<g transform="matrix( 1.266265869140625, 0, 0, 1.2668914794921875, -189.55,-35.25) ">
<use xlink:href="#Tween_43_0_Layer0_0_MEMBER_5_FILL"/>
</g>

<g transform="matrix( 1.266265869140625, 0, 0, 1.2668914794921875, -189.55,-35.25) ">
<use xlink:href="#Tween_43_0_Layer0_0_MEMBER_6_FILL"/>
</g>

<g transform="matrix( 1.266265869140625, 0, 0, 1.2668914794921875, -189.55,-35.25) ">
<use xlink:href="#Tween_43_0_Layer0_0_MEMBER_7_FILL"/>
</g>

<g transform="matrix( 1.266265869140625, 0, 0, 1.2668914794921875, -189.55,-35.25) ">
<use xlink:href="#Tween_43_0_Layer0_0_MEMBER_8_FILL"/>
</g>

<g transform="matrix( 1.266265869140625, 0, 0, 1.2668914794921875, -189.55,-35.25) ">
<use xlink:href="#Tween_43_0_Layer0_0_MEMBER_9_FILL"/>
</g>

<g transform="matrix( 1.266265869140625, 0, 0, 1.2668914794921875, -189.55,-35.25) ">
<use xlink:href="#Tween_43_0_Layer0_0_MEMBER_10_FILL"/>
</g>

<g transform="matrix( 1.266265869140625, 0, 0, 1.2668914794921875, -189.55,-35.25) ">
<use xlink:href="#Tween_43_0_Layer0_0_MEMBER_11_FILL"/>
</g>

<g transform="matrix( 1.266265869140625, 0, 0, 1.2668914794921875, -189.55,-35.25) ">
<use xlink:href="#Tween_43_0_Layer0_0_MEMBER_12_FILL"/>
</g>

<g transform="matrix( 1.266265869140625, 0, 0, 1.2668914794921875, -189.55,-35.25) ">
<use xlink:href="#Tween_43_0_Layer0_0_MEMBER_13_FILL"/>
</g>

<g transform="matrix( 1.266265869140625, 0, 0, 1.2668914794921875, -189.55,-35.25) ">
<use xlink:href="#Tween_43_0_Layer0_0_MEMBER_14_FILL"/>
</g>

<g transform="matrix( 1.266265869140625, 0, 0, 1.2668914794921875, -189.55,-35.25) ">
<use xlink:href="#Tween_43_0_Layer0_0_MEMBER_15_FILL"/>
</g>

<g transform="matrix( 1.266265869140625, 0, 0, 1.2668914794921875, -189.55,-35.25) ">
<use xlink:href="#Tween_43_0_Layer0_0_MEMBER_16_FILL"/>
</g>

<g transform="matrix( 1.266265869140625, 0, 0, 1.2668914794921875, -189.55,-35.25) ">
<use xlink:href="#Tween_43_0_Layer0_0_MEMBER_17_FILL"/>
</g>

<g transform="matrix( 1.266265869140625, 0, 0, 1.2668914794921875, -189.55,-35.25) ">
<use xlink:href="#Tween_43_0_Layer0_0_MEMBER_18_FILL"/>
</g>

<g transform="matrix( 1.266265869140625, 0, 0, 1.2668914794921875, -189.55,-35.25) ">
<use xlink:href="#Tween_43_0_Layer0_0_MEMBER_19_FILL"/>
</g>

<g transform="matrix( 1.266265869140625, 0, 0, 1.2668914794921875, -189.55,-35.25) ">
<use xlink:href="#Tween_43_0_Layer0_0_MEMBER_20_FILL"/>
</g>

<g transform="matrix( 1.266265869140625, 0, 0, 1.2668914794921875, -189.55,-35.25) ">
<use xlink:href="#Tween_43_0_Layer0_0_MEMBER_21_FILL"/>
</g>

<g transform="matrix( 1.266265869140625, 0, 0, 1.2668914794921875, -189.55,-35.25) ">
<use xlink:href="#Tween_43_0_Layer0_0_MEMBER_22_FILL"/>
</g>

<g transform="matrix( 1.266265869140625, 0, 0, 1.2668914794921875, -189.55,-35.25) ">
<use xlink:href="#Tween_43_0_Layer0_0_MEMBER_23_FILL"/>
</g>

<g transform="matrix( 1.266265869140625, 0, 0, 1.2668914794921875, -189.55,-35.25) ">
<use xlink:href="#Tween_43_0_Layer0_0_MEMBER_24_FILL"/>
</g>

<g transform="matrix( 1.266265869140625, 0, 0, 1.2668914794921875, -189.55,-35.25) ">
<use xlink:href="#Tween_43_0_Layer0_0_MEMBER_25_FILL"/>
</g>

<g transform="matrix( 1.266265869140625, 0, 0, 1.2668914794921875, -189.55,-35.25) ">
<use xlink:href="#Tween_43_0_Layer0_0_MEMBER_26_FILL"/>
</g>

<g transform="matrix( 1.266265869140625, 0, 0, 1.2668914794921875, -189.55,-35.25) ">
<use xlink:href="#Tween_43_0_Layer0_0_MEMBER_27_FILL"/>
</g>

<g transform="matrix( 1.266265869140625, 0, 0, 1.2668914794921875, -189.55,-35.25) ">
<use xlink:href="#Tween_43_0_Layer0_0_MEMBER_28_FILL"/>
</g>

<g transform="matrix( 1.266265869140625, 0, 0, 1.2668914794921875, -189.55,-35.25) ">
<use xlink:href="#Tween_43_0_Layer0_0_MEMBER_29_FILL"/>
</g>

<g transform="matrix( 1.266265869140625, 0, 0, 1.2668914794921875, -189.55,-35.25) ">
<use xlink:href="#Tween_43_0_Layer0_0_MEMBER_30_FILL"/>
</g>

<g transform="matrix( 1.266265869140625, 0, 0, 1.2668914794921875, -189.55,-35.25) ">
<use xlink:href="#Tween_43_0_Layer0_0_MEMBER_31_FILL"/>
</g>

<g transform="matrix( 1.266265869140625, 0, 0, 1.2668914794921875, -189.55,-35.25) ">
<use xlink:href="#Tween_43_0_Layer0_0_MEMBER_32_FILL"/>
</g>

<g transform="matrix( 1.266265869140625, 0, 0, 1.2668914794921875, -189.55,-35.25) ">
<use xlink:href="#Tween_43_0_Layer0_0_MEMBER_33_FILL"/>
</g>

<g transform="matrix( 1.266265869140625, 0, 0, 1.2668914794921875, -189.55,-35.25) ">
<use xlink:href="#Tween_43_0_Layer0_0_MEMBER_34_FILL"/>
</g>

<g transform="matrix( 1.266265869140625, 0, 0, 1.2668914794921875, -189.55,-35.25) ">
<use xlink:href="#Tween_43_0_Layer0_0_MEMBER_35_FILL"/>
</g>

<g transform="matrix( 1.266265869140625, 0, 0, 1.2668914794921875, -189.55,-35.25) ">
<use xlink:href="#Tween_43_0_Layer0_0_MEMBER_36_FILL"/>
</g>

<g transform="matrix( 1.266265869140625, 0, 0, 1.2668914794921875, -189.55,-35.25) ">
<use xlink:href="#Tween_43_0_Layer0_0_MEMBER_37_FILL"/>
</g>

<g transform="matrix( 1.266265869140625, 0, 0, 1.2668914794921875, -189.55,-35.25) ">
<use xlink:href="#Tween_43_0_Layer0_0_MEMBER_38_FILL"/>
</g>

<g transform="matrix( 1.266265869140625, 0, 0, 1.2668914794921875, -189.55,-35.25) ">
<use xlink:href="#Tween_43_0_Layer0_0_MEMBER_39_FILL"/>
</g>

<g transform="matrix( 1.266265869140625, 0, 0, 1.2668914794921875, -189.55,-35.25) ">
<use xlink:href="#Tween_43_0_Layer0_0_MEMBER_40_FILL"/>
</g>

<g transform="matrix( 1.266265869140625, 0, 0, 1.2668914794921875, -189.55,-35.25) ">
<use xlink:href="#Tween_43_0_Layer0_0_MEMBER_41_FILL"/>
</g>

<g transform="matrix( 1.266265869140625, 0, 0, 1.2668914794921875, -189.55,-35.25) ">
<use xlink:href="#Tween_43_0_Layer0_0_MEMBER_42_FILL"/>
</g>

<g transform="matrix( 1.266265869140625, 0, 0, 1.2668914794921875, -189.55,-35.25) ">
<use xlink:href="#Tween_43_0_Layer0_0_MEMBER_43_FILL"/>
</g>

<g transform="matrix( 1.266265869140625, 0, 0, 1.2668914794921875, -189.55,-35.25) ">
<use xlink:href="#Tween_43_0_Layer0_0_MEMBER_44_FILL"/>
</g>

<g transform="matrix( 1.266265869140625, 0, 0, 1.2668914794921875, -189.55,-35.25) ">
<use xlink:href="#Tween_43_0_Layer0_0_MEMBER_45_FILL"/>
</g>

<g transform="matrix( 1.266265869140625, 0, 0, 1.2668914794921875, -189.55,-35.25) ">
<use xlink:href="#Tween_43_0_Layer0_0_MEMBER_46_FILL"/>
</g>

<g transform="matrix( 1.266265869140625, 0, 0, 1.2668914794921875, -189.55,-35.25) ">
<use xlink:href="#Tween_43_0_Layer0_0_MEMBER_47_FILL"/>
</g>

<g transform="matrix( 1.266265869140625, 0, 0, 1.2668914794921875, -189.55,-35.25) ">
<use xlink:href="#Tween_43_0_Layer0_0_MEMBER_48_FILL"/>
</g>

<g transform="matrix( 1.266265869140625, 0, 0, 1.2668914794921875, -189.55,-35.25) ">
<use xlink:href="#Tween_43_0_Layer0_0_MEMBER_49_FILL"/>
</g>

<g transform="matrix( 1.266265869140625, 0, 0, 1.2668914794921875, -189.55,-35.25) ">
<use xlink:href="#Tween_43_0_Layer0_0_MEMBER_50_FILL"/>
</g>

<g transform="matrix( 1.266265869140625, 0, 0, 1.2668914794921875, -189.55,-35.25) ">
<use xlink:href="#Tween_43_0_Layer0_0_MEMBER_51_FILL"/>
</g>
</g>
</svg>
