<svg width="376" height="69" viewBox="0 0 376 69" fill="none" xmlns="http://www.w3.org/2000/svg">
<path d="M373.836 61.0542H375.784V64.07H373.836V61.0542Z" fill="#1A1A1A"/>
<path d="M371.581 53.4868V55.1352H371.151C370.077 55.1352 369.034 55.566 368.022 56.4277V64.0701H366.262V53.7116H368.022V54.8729C369.046 53.9489 370.089 53.4868 371.151 53.4868H371.581Z" fill="#1A1A1A"/>
<path d="M356.508 59.0315C356.533 60.1804 356.82 61.0983 357.369 61.7851C357.919 62.4719 358.793 62.8153 359.992 62.8153C360.903 62.8153 361.902 62.5593 362.989 62.0473L363.532 63.5084C362.395 64.0953 361.165 64.3887 359.842 64.3887C358.743 64.3887 357.806 64.1577 357.032 63.6957C356.258 63.2336 355.671 62.5905 355.271 61.7663C354.872 60.9422 354.672 59.9806 354.672 58.8817C354.672 57.7203 354.878 56.7338 355.29 55.9221C355.715 55.0979 356.283 54.4736 356.995 54.049C357.706 53.6244 358.506 53.4121 359.392 53.4121C360.753 53.4121 361.821 53.8367 362.595 54.6858C363.37 55.535 363.757 56.7526 363.757 58.3385V59.0315H356.508ZM359.392 54.9856C357.844 54.9856 356.92 55.841 356.62 57.5518H361.902C361.84 56.6776 361.603 56.0345 361.19 55.6224C360.778 55.1978 360.179 54.9856 359.392 54.9856Z" fill="#1A1A1A"/>
<path d="M347.953 53.4121C349.352 53.4121 350.463 53.8804 351.287 54.817C352.124 55.7535 352.542 57.1147 352.542 58.9004C352.542 60.6862 352.124 62.0473 351.287 62.9839C350.463 63.9205 349.352 64.3887 347.953 64.3887C346.942 64.3887 345.943 63.9704 344.956 63.1337V68.4535H343.195V53.7118H344.956V54.6858C345.955 53.8367 346.954 53.4121 347.953 53.4121ZM347.71 62.7591C348.696 62.7591 349.445 62.4344 349.957 61.7851C350.469 61.1232 350.725 60.1617 350.725 58.9004C350.725 57.6392 350.469 56.6839 349.957 56.0345C349.445 55.3852 348.696 55.0605 347.71 55.0605C346.773 55.0605 345.855 55.4476 344.956 56.2218V61.5978C345.88 62.372 346.798 62.7591 347.71 62.7591Z" fill="#1A1A1A"/>
<path d="M335.368 64.3887C334.269 64.3887 333.332 64.1515 332.558 63.6769C331.796 63.1899 331.222 62.5343 330.835 61.7101C330.447 60.8735 330.254 59.9369 330.254 58.9004C330.254 57.864 330.447 56.9336 330.835 56.1094C331.222 55.2728 331.796 54.6172 332.558 54.1426C333.332 53.6556 334.269 53.4121 335.368 53.4121C336.467 53.4121 337.397 53.6556 338.159 54.1426C338.933 54.6172 339.507 55.2728 339.882 56.1094C340.269 56.9336 340.463 57.864 340.463 58.9004C340.463 59.9369 340.269 60.8735 339.882 61.7101C339.507 62.5343 338.933 63.1899 338.159 63.6769C337.397 64.1515 336.467 64.3887 335.368 64.3887ZM335.368 62.7966C336.404 62.7966 337.203 62.4344 337.765 61.7101C338.34 60.9859 338.627 60.0493 338.627 58.9004C338.627 57.7516 338.34 56.8212 337.765 56.1094C337.203 55.3852 336.404 55.023 335.368 55.023C334.331 55.023 333.526 55.3852 332.951 56.1094C332.377 56.8212 332.09 57.7516 332.09 58.9004C332.09 60.0493 332.377 60.9859 332.951 61.7101C333.526 62.4344 334.331 62.7966 335.368 62.7966Z" fill="#1A1A1A"/>
<path d="M327.551 64.3137C326.615 64.3137 325.94 64.1264 325.528 63.7518C325.116 63.3771 324.91 62.7465 324.91 61.8599V48.2234H326.671V61.3916C326.671 61.8911 326.746 62.2345 326.896 62.4218C327.058 62.5967 327.358 62.6841 327.795 62.6841C328.144 62.6841 328.457 62.6466 328.731 62.5717V64.1826C328.232 64.27 327.839 64.3137 327.551 64.3137Z" fill="#1A1A1A"/>
<path d="M315.144 59.0315C315.169 60.1804 315.456 61.0983 316.006 61.7851C316.555 62.4719 317.43 62.8153 318.628 62.8153C319.54 62.8153 320.539 62.5593 321.625 62.0473L322.169 63.5084C321.032 64.0953 319.802 64.3887 318.478 64.3887C317.38 64.3887 316.443 64.1577 315.669 63.6957C314.895 63.2336 314.308 62.5905 313.908 61.7663C313.508 60.9422 313.309 59.9806 313.309 58.8817C313.309 57.7203 313.515 56.7338 313.927 55.9221C314.351 55.0979 314.92 54.4736 315.631 54.049C316.343 53.6244 317.142 53.4121 318.029 53.4121C319.39 53.4121 320.458 53.8367 321.232 54.6858C322.006 55.535 322.393 56.7526 322.393 58.3385V59.0315H315.144ZM318.029 54.9856C316.48 54.9856 315.556 55.841 315.257 57.5518H320.539C320.476 56.6776 320.239 56.0345 319.827 55.6224C319.415 55.1978 318.816 54.9856 318.029 54.9856Z" fill="#1A1A1A"/>
<path d="M311.879 53.7117L307.964 64.2388H305.941L301.988 53.7117H303.824L306.952 62.2907L310.043 53.7117H311.879Z" fill="#1A1A1A"/>
<path d="M293.543 59.0315C293.568 60.1804 293.855 61.0983 294.404 61.7851C294.954 62.4719 295.828 62.8153 297.027 62.8153C297.938 62.8153 298.937 62.5593 300.024 62.0473L300.567 63.5084C299.431 64.0953 298.201 64.3887 296.877 64.3887C295.778 64.3887 294.841 64.1577 294.067 63.6957C293.293 63.2336 292.706 62.5905 292.306 61.7663C291.907 60.9422 291.707 59.9806 291.707 58.8817C291.707 57.7203 291.913 56.7338 292.325 55.9221C292.75 55.0979 293.318 54.4736 294.03 54.049C294.742 53.6244 295.541 53.4121 296.427 53.4121C297.789 53.4121 298.856 53.8367 299.63 54.6858C300.405 55.535 300.792 56.7526 300.792 58.3385V59.0315H293.543ZM296.427 54.9856C294.879 54.9856 293.955 55.841 293.655 57.5518H298.937C298.875 56.6776 298.638 56.0345 298.226 55.6224C297.813 55.1978 297.214 54.9856 296.427 54.9856Z" fill="#1A1A1A"/>
<path d="M288.963 48.2234V64.0702H287.203V63.1336C286.216 63.9703 285.217 64.3886 284.206 64.3886C282.807 64.3886 281.689 63.9204 280.853 62.9838C280.016 62.0472 279.598 60.6861 279.598 58.9003C279.598 57.1146 280.016 55.7534 280.853 54.8169C281.689 53.8803 282.807 53.412 284.206 53.412C285.205 53.412 286.204 53.8366 287.203 54.6857V48.2234H288.963ZM284.43 62.759C285.329 62.759 286.254 62.3719 287.203 61.5977V56.2217C286.279 55.4475 285.354 55.0604 284.43 55.0604C283.444 55.0604 282.695 55.3851 282.183 56.0344C281.683 56.6838 281.433 57.6391 281.433 58.9003C281.433 60.1616 281.683 61.1231 282.183 61.785C282.695 62.4343 283.444 62.759 284.43 62.759Z" fill="#1A1A1A"/>
<path d="M272.741 48.2234V64.0702H270.98V63.1336C269.993 63.9703 268.994 64.3886 267.983 64.3886C266.584 64.3886 265.467 63.9204 264.63 62.9838C263.793 62.0472 263.375 60.6861 263.375 58.9003C263.375 57.1146 263.793 55.7534 264.63 54.8169C265.467 53.8803 266.584 53.412 267.983 53.412C268.982 53.412 269.981 53.8366 270.98 54.6857V48.2234H272.741ZM268.208 62.759C269.107 62.759 270.031 62.3719 270.98 61.5977V56.2217C270.056 55.4475 269.132 55.0604 268.208 55.0604C267.221 55.0604 266.472 55.3851 265.96 56.0344C265.46 56.6838 265.211 57.6391 265.211 58.9003C265.211 60.1616 265.46 61.1231 265.96 61.785C266.472 62.4343 267.221 62.759 268.208 62.759Z" fill="#1A1A1A"/>
<path d="M256.973 53.4868C258.247 53.4868 259.19 53.824 259.802 54.4983C260.426 55.1726 260.738 56.284 260.738 57.8325V64.0701H258.978V57.8325C258.978 56.8585 258.809 56.1654 258.472 55.7533C258.147 55.3412 257.566 55.1352 256.73 55.1352C255.756 55.1352 254.782 55.5598 253.808 56.4089V64.0701H252.047V53.7116H253.808V54.8167C254.832 53.9301 255.887 53.4868 256.973 53.4868Z" fill="#1A1A1A"/>
<path d="M242.289 59.0315C242.314 60.1804 242.601 61.0983 243.15 61.7851C243.7 62.4719 244.574 62.8153 245.773 62.8153C246.684 62.8153 247.683 62.5593 248.77 62.0473L249.313 63.5084C248.177 64.0953 246.947 64.3887 245.623 64.3887C244.524 64.3887 243.588 64.1577 242.813 63.6957C242.039 63.2336 241.452 62.5905 241.053 61.7663C240.653 60.9422 240.453 59.9806 240.453 58.8817C240.453 57.7203 240.659 56.7338 241.071 55.9221C241.496 55.0979 242.064 54.4736 242.776 54.049C243.488 53.6244 244.287 53.4121 245.173 53.4121C246.535 53.4121 247.602 53.8367 248.377 54.6858C249.151 55.535 249.538 56.7526 249.538 58.3385V59.0315H242.289ZM245.173 54.9856C243.625 54.9856 242.701 55.841 242.401 57.5518H247.683C247.621 56.6776 247.384 56.0345 246.972 55.6224C246.56 55.1978 245.96 54.9856 245.173 54.9856Z" fill="#1A1A1A"/>
<path d="M232.098 55.4723V61.3914C232.098 61.891 232.173 62.2344 232.322 62.4217C232.485 62.5965 232.778 62.6839 233.203 62.6839C233.577 62.6839 233.977 62.634 234.402 62.5341V64.1262C233.84 64.2511 233.34 64.3136 232.903 64.3136C231.954 64.3136 231.286 64.12 230.899 63.7329C230.524 63.3458 230.337 62.6964 230.337 61.7848V55.4723H228.988V53.8427H230.337V50.2837H232.098V53.8427H234.495V55.4723H232.098Z" fill="#1A1A1A"/>
<path d="M222.946 53.4868C224.22 53.4868 225.162 53.824 225.774 54.4983C226.399 55.1726 226.711 56.284 226.711 57.8325V64.0701H224.95V57.8325C224.95 56.8585 224.782 56.1654 224.444 55.7533C224.12 55.3412 223.539 55.1352 222.702 55.1352C221.728 55.1352 220.754 55.5598 219.78 56.4089V64.0701H218.02V53.7116H219.78V54.8167C220.804 53.9301 221.859 53.4868 222.946 53.4868Z" fill="#1A1A1A"/>
<path d="M210.188 64.3887C209.089 64.3887 208.152 64.1515 207.378 63.6769C206.616 63.1899 206.042 62.5343 205.655 61.7101C205.268 60.8735 205.074 59.9369 205.074 58.9004C205.074 57.864 205.268 56.9336 205.655 56.1094C206.042 55.2728 206.616 54.6172 207.378 54.1426C208.152 53.6556 209.089 53.4121 210.188 53.4121C211.287 53.4121 212.217 53.6556 212.979 54.1426C213.753 54.6172 214.328 55.2728 214.702 56.1094C215.089 56.9336 215.283 57.864 215.283 58.9004C215.283 59.9369 215.089 60.8735 214.702 61.7101C214.328 62.5343 213.753 63.1899 212.979 63.6769C212.217 64.1515 211.287 64.3887 210.188 64.3887ZM210.188 62.7966C211.224 62.7966 212.024 62.4344 212.586 61.7101C213.16 60.9859 213.447 60.0493 213.447 58.9004C213.447 57.7516 213.16 56.8212 212.586 56.1094C212.024 55.3852 211.224 55.023 210.188 55.023C209.151 55.023 208.346 55.3852 207.772 56.1094C207.197 56.8212 206.91 57.7516 206.91 58.9004C206.91 60.0493 207.197 60.9859 207.772 61.7101C208.346 62.4344 209.151 62.7966 210.188 62.7966Z" fill="#1A1A1A"/>
<path d="M203.456 53.4868V55.1352H203.026C201.952 55.1352 200.909 55.566 199.897 56.4277V64.0701H198.137V53.7116H199.897V54.8729C200.921 53.9489 201.964 53.4868 203.026 53.4868H203.456Z" fill="#1A1A1A"/>
<path d="M188.782 51.5012V56.3714H194.626V58.001H188.782V64.07H186.965V49.8716H195.563V51.5012H188.782Z" fill="#1A1A1A"/>
<path d="M179.155 48.2234V64.0702H177.394V63.1336C176.408 63.9703 175.409 64.3886 174.397 64.3886C172.998 64.3886 171.881 63.9204 171.044 62.9838C170.207 62.0472 169.789 60.6861 169.789 58.9003C169.789 57.1146 170.207 55.7534 171.044 54.8169C171.881 53.8803 172.998 53.412 174.397 53.412C175.396 53.412 176.395 53.8366 177.394 54.6857V48.2234H179.155ZM174.622 62.759C175.521 62.759 176.445 62.3719 177.394 61.5977V56.2217C176.47 55.4475 175.546 55.0604 174.622 55.0604C173.635 55.0604 172.886 55.3851 172.374 56.0344C171.875 56.6838 171.625 57.6391 171.625 58.9003C171.625 60.1616 171.875 61.1231 172.374 61.785C172.886 62.4343 173.635 62.759 174.622 62.759Z" fill="#1A1A1A"/>
<path d="M163.383 53.4868C164.657 53.4868 165.6 53.824 166.212 54.4983C166.836 55.1726 167.148 56.284 167.148 57.8325V64.0701H165.388V57.8325C165.388 56.8585 165.219 56.1654 164.882 55.7533C164.557 55.3412 163.977 55.1352 163.14 55.1352C162.166 55.1352 161.192 55.5598 160.218 56.4089V64.0701H158.457V53.7116H160.218V54.8167C161.242 53.9301 162.297 53.4868 163.383 53.4868Z" fill="#1A1A1A"/>
<path d="M151.623 53.7117C152.722 53.7117 153.559 53.899 154.133 54.2736C154.708 54.6358 155.088 55.129 155.276 55.7534C155.463 56.3653 155.557 57.1395 155.557 58.0761V64.0702H153.796V63.0399C153.321 63.4895 152.847 63.8142 152.372 64.014C151.898 64.2138 151.386 64.3137 150.836 64.3137C150.187 64.3137 149.6 64.1763 149.076 63.9016C148.551 63.6144 148.133 63.2085 147.821 62.684C147.521 62.1471 147.371 61.5164 147.371 60.7922C147.371 59.6683 147.721 58.8004 148.42 58.1885C149.119 57.5641 150.062 57.2519 151.249 57.2519C152.185 57.2519 153.028 57.458 153.777 57.8701C153.765 57.2582 153.702 56.7711 153.59 56.409C153.478 56.0469 153.247 55.7721 152.897 55.5848C152.547 55.385 152.029 55.2851 151.342 55.2851H149.956V53.7117H151.623ZM151.08 62.7964C151.505 62.7964 151.948 62.6965 152.41 62.4967C152.884 62.2969 153.346 61.9972 153.796 61.5976V59.2374C153.097 58.8878 152.335 58.713 151.511 58.713C150.849 58.713 150.293 58.8753 149.844 59.2C149.394 59.5122 149.169 60.0429 149.169 60.7922C149.169 61.4915 149.357 62.0035 149.731 62.3281C150.118 62.6403 150.568 62.7964 151.08 62.7964Z" fill="#1A1A1A"/>
<path d="M142.066 53.4868V55.1352H141.635C140.561 55.1352 139.518 55.566 138.507 56.4277V64.0701H136.746V53.7116H138.507V54.8729C139.531 53.9489 140.574 53.4868 141.635 53.4868H142.066Z" fill="#1A1A1A"/>
<path d="M126.988 59.0315C127.013 60.1804 127.3 61.0983 127.85 61.7851C128.399 62.4719 129.273 62.8153 130.472 62.8153C131.384 62.8153 132.383 62.5593 133.469 62.0473L134.012 63.5084C132.876 64.0953 131.646 64.3887 130.322 64.3887C129.223 64.3887 128.287 64.1577 127.513 63.6957C126.738 63.2336 126.151 62.5905 125.752 61.7663C125.352 60.9422 125.152 59.9806 125.152 58.8817C125.152 57.7203 125.358 56.7338 125.77 55.9221C126.195 55.0979 126.763 54.4736 127.475 54.049C128.187 53.6244 128.986 53.4121 129.873 53.4121C131.234 53.4121 132.302 53.8367 133.076 54.6858C133.85 55.535 134.237 56.7526 134.237 58.3385V59.0315H126.988ZM129.873 54.9856C128.324 54.9856 127.4 55.841 127.1 57.5518H132.383C132.32 56.6776 132.083 56.0345 131.671 55.6224C131.259 55.1978 130.659 54.9856 129.873 54.9856Z" fill="#1A1A1A"/>
<path d="M118.754 53.4868C120.028 53.4868 120.971 53.824 121.583 54.4983C122.207 55.1726 122.52 56.284 122.52 57.8325V64.0701H120.759V57.8325C120.759 56.8585 120.59 56.1654 120.253 55.7533C119.928 55.3412 119.348 55.1352 118.511 55.1352C117.537 55.1352 116.563 55.5598 115.589 56.4089V64.0701H113.828V53.7116H115.589V54.8167C116.613 53.9301 117.668 53.4868 118.754 53.4868Z" fill="#1A1A1A"/>
<path d="M110.742 53.7118V64.2764C110.742 65.6875 110.411 66.7864 109.749 67.5731C109.099 68.3723 107.957 68.7719 106.321 68.7719C105.522 68.7719 104.829 68.722 104.242 68.6221C103.667 68.5222 103.074 68.3473 102.462 68.0976V66.3555C103.037 66.6178 103.611 66.8113 104.186 66.9362C104.76 67.0736 105.291 67.1423 105.778 67.1423C106.677 67.1423 107.357 67.0236 107.819 66.7864C108.281 66.5616 108.587 66.2307 108.737 65.7936C108.9 65.369 108.981 64.8008 108.981 64.089V62.7591C107.994 63.5958 106.995 64.0141 105.984 64.0141C104.585 64.0141 103.467 63.5583 102.631 62.6467C101.807 61.7351 101.395 60.4239 101.395 58.7131C101.395 56.9898 101.813 55.6786 102.65 54.7795C103.486 53.8679 104.598 53.4121 105.984 53.4121C106.983 53.4121 107.982 53.8367 108.981 54.6858V53.7118H110.742ZM106.227 62.3845C107.139 62.3845 108.057 61.9974 108.981 61.2231V56.2218C108.082 55.4476 107.164 55.0605 106.227 55.0605C105.253 55.0605 104.504 55.3852 103.979 56.0345C103.467 56.6714 103.211 57.5643 103.211 58.7131C103.211 59.8994 103.467 60.811 103.979 61.4479C104.491 62.0723 105.241 62.3845 106.227 62.3845Z" fill="#1A1A1A"/>
<path d="M96.9102 48.9351H98.6709V51.7635H96.9102V48.9351ZM96.9102 53.7116H98.6709V64.0701H96.9102V53.7116Z" fill="#1A1A1A"/>
<path d="M90.429 64.3887C89.6672 64.3887 88.9929 64.3263 88.406 64.2014C87.8191 64.0766 87.2072 63.8643 86.5703 63.5646V61.8225C87.7566 62.4844 89.0429 62.8153 90.429 62.8153C91.1283 62.8153 91.6278 62.6779 91.9275 62.4032C92.2397 62.116 92.3958 61.7414 92.3958 61.2793C92.3958 60.8298 92.2709 60.4988 92.0212 60.2866C91.7839 60.0743 91.3905 59.8932 90.8411 59.7433L89.6235 59.4436C88.7494 59.2313 88.0626 58.8942 87.5631 58.4321C87.0636 57.9701 86.8138 57.2895 86.8138 56.3904C86.8138 55.4538 87.1198 54.7233 87.7317 54.1988C88.3436 53.6744 89.2427 53.4121 90.429 53.4121C91.0409 53.4121 91.6091 53.4745 92.1336 53.5994C92.658 53.7118 93.1825 53.8742 93.707 54.0864V55.7348C93.195 55.4975 92.6893 55.3165 92.1898 55.1916C91.6902 55.0542 91.1221 54.9856 90.4852 54.9856C89.8233 54.9856 89.3426 55.1167 89.0429 55.3789C88.7556 55.6287 88.612 55.9471 88.612 56.3342C88.612 56.7588 88.7369 57.0835 88.9867 57.3083C89.2489 57.5205 89.6235 57.6891 90.1106 57.814L91.3468 58.095C91.9712 58.2448 92.4832 58.4321 92.8828 58.6569C93.2949 58.8817 93.6133 59.2001 93.8381 59.6122C94.0754 60.0118 94.194 60.5488 94.194 61.2231C94.194 62.2346 93.8506 63.0151 93.1638 63.5646C92.4895 64.114 91.5779 64.3887 90.429 64.3887Z" fill="#1A1A1A"/>
<path d="M77.5232 59.0315C77.5482 60.1804 77.8354 61.0983 78.3848 61.7851C78.9343 62.4719 79.8084 62.8153 81.0072 62.8153C81.9188 62.8153 82.9178 62.5593 84.0043 62.0473L84.5475 63.5084C83.4111 64.0953 82.1811 64.3887 80.8574 64.3887C79.7585 64.3887 78.8219 64.1577 78.0477 63.6957C77.2734 63.2336 76.6865 62.5905 76.2869 61.7663C75.8873 60.9422 75.6875 59.9806 75.6875 58.8817C75.6875 57.7203 75.8935 56.7338 76.3056 55.9221C76.7302 55.0979 77.2984 54.4736 78.0102 54.049C78.722 53.6244 79.5212 53.4121 80.4078 53.4121C81.769 53.4121 82.8367 53.8367 83.6109 54.6858C84.3851 55.535 84.7723 56.7526 84.7723 58.3385V59.0315H77.5232ZM80.4078 54.9856C78.8594 54.9856 77.9353 55.841 77.6356 57.5518H82.9178C82.8554 56.6776 82.6181 56.0345 82.206 55.6224C81.794 55.1978 81.1945 54.9856 80.4078 54.9856Z" fill="#1A1A1A"/>
<path d="M66.4586 49.8716C68.7938 49.8716 70.5546 50.4772 71.7409 51.6885C72.9397 52.8873 73.5391 54.6543 73.5391 56.9895C73.5391 59.3372 72.9459 61.1042 71.7596 62.2905C70.5733 63.4769 68.8063 64.07 66.4586 64.07H61.7383V49.8716H66.4586ZM71.666 56.9333C71.666 55.0602 71.2289 53.6803 70.3548 52.7937C69.4806 51.9071 68.1819 51.4638 66.4586 51.4638H63.5552V62.4779H66.4586C68.1944 62.4779 69.4931 62.0345 70.3548 61.1479C71.2289 60.2613 71.666 58.8564 71.666 56.9333Z" fill="#1A1A1A"/>
<path d="M51.8086 49.8716H53.6255V64.07H51.8086V49.8716Z" fill="#1A1A1A"/>
<path d="M42.4525 64.3885C40.6417 64.3885 39.2868 63.9327 38.3877 63.0211C37.4886 62.097 37.0391 60.792 37.0391 59.1062V49.8716H38.8747V59.1062C38.8747 60.3175 39.1744 61.2353 39.7739 61.8597C40.3733 62.4841 41.2661 62.7963 42.4525 62.7963C43.6388 62.7963 44.5316 62.4841 45.1311 61.8597C45.7305 61.2353 46.0302 60.3175 46.0302 59.1062V49.8716H47.8658V59.1062C47.8658 60.792 47.4163 62.097 46.5172 63.0211C45.6181 63.9327 44.2632 64.3885 42.4525 64.3885Z" fill="#1A1A1A"/>
<path d="M33.2981 46.6311H35.0964L29.2709 67.3856H27.4727L33.2981 46.6311Z" fill="#1A1A1A"/>
<path d="M24.5415 64.07L20.5142 58.076L16.4869 64.07H14.3516L19.4091 56.7648L14.6887 49.8716H16.8054L20.5329 55.3974L24.2418 49.8716H26.3584L21.6381 56.7648L26.6769 64.07H24.5415Z" fill="#1A1A1A"/>
<path d="M6.19855 64.3885C4.38784 64.3885 3.03293 63.9327 2.13382 63.0211C1.23471 62.097 0.785156 60.792 0.785156 59.1062V49.8716H2.62084V59.1062C2.62084 60.3175 2.92054 61.2353 3.51995 61.8597C4.11936 62.4841 5.01222 62.7963 6.19855 62.7963C7.38487 62.7963 8.27774 62.4841 8.87715 61.8597C9.47656 61.2353 9.77626 60.3175 9.77626 59.1062V49.8716H11.6119V59.1062C11.6119 60.792 11.1624 62.097 10.2633 63.0211C9.36417 63.9327 8.00926 64.3885 6.19855 64.3885Z" fill="#1A1A1A"/>
<path d="M362.773 30.565C365.667 26.6845 367.114 22.0695 367.114 16.72C367.114 11.3705 365.667 6.75554 362.773 2.87499L365.93 0.671631C367.772 2.75441 369.219 5.07835 370.271 7.64346C371.346 10.2086 371.883 13.2341 371.883 16.72C371.883 20.2059 371.346 23.2314 370.271 25.7965C369.219 28.3616 367.772 30.6856 365.93 32.7684L362.773 30.565Z" fill="#0C0C0C"/>
<path d="M354.648 22.9026H359.384V28.5261H354.648V22.9026ZM354.648 9.9126H359.384V15.5361H354.648V9.9126Z" fill="#0C0C0C"/>
<path d="M335.642 9.74829C338.01 9.74829 339.764 10.3512 340.904 11.557C342.066 12.7628 342.647 14.725 342.647 17.4436V28.5262H338.24V17.4436C338.24 16.1501 337.977 15.2074 337.451 14.6154C336.947 14.0015 336.059 13.6946 334.787 13.6946C333.296 13.6946 331.794 14.3414 330.282 15.6349V28.5262H325.875V10.1429H330.282V11.853C331.948 10.4499 333.735 9.74829 335.642 9.74829Z" fill="#0C0C0C"/>
<path d="M322.582 10.1428L314.854 31.4529C314.35 32.8561 313.813 33.9304 313.243 34.6758C312.695 35.4431 312.037 35.9803 311.27 36.2872C310.524 36.616 309.57 36.7805 308.408 36.7805C307.466 36.7805 306.611 36.6599 305.843 36.4187V32.5711C306.391 32.7245 307.027 32.8013 307.751 32.8013C308.584 32.8013 309.231 32.604 309.691 32.2093C310.173 31.8366 310.623 31.1022 311.039 30.006L311.598 28.5261L304.988 10.1428H309.527L313.736 22.5737L318.274 10.1428H322.582Z" fill="#0C0C0C"/>
<path d="M303.352 9.74829V13.6946H302.596C300.798 13.6946 299.033 14.3743 297.301 15.7335V28.5262H292.895V10.1429H297.301V11.9845C298.989 10.4937 300.754 9.74829 302.596 9.74829H303.352Z" fill="#0C0C0C"/>
<path d="M280.362 10.1428C282.533 10.1428 284.177 10.4717 285.295 11.1294C286.435 11.7652 287.192 12.6312 287.564 13.7274C287.937 14.8017 288.123 16.161 288.123 17.8053V28.5261H283.717V26.8489C282.906 27.5943 282.105 28.1315 281.316 28.4603C280.549 28.7892 279.705 28.9536 278.784 28.9536C276.855 28.9536 275.298 28.4055 274.114 27.3093C272.952 26.1912 272.371 24.6675 272.371 22.7382C272.371 20.765 272.974 19.2413 274.18 18.167C275.408 17.0708 277.085 16.5227 279.211 16.5227C280.943 16.5227 282.445 16.8625 283.717 17.5422C283.695 16.7091 283.585 16.0404 283.388 15.5361C283.212 15.0319 282.851 14.6482 282.303 14.3851C281.755 14.1001 280.943 13.9576 279.869 13.9576H276.778V10.1428H280.362ZM279.573 25.4348C280.91 25.4348 282.292 24.8209 283.717 23.5932V20.6992C282.555 20.1073 281.36 19.8113 280.132 19.8113C279.168 19.8113 278.378 20.0415 277.764 20.5019C277.151 20.9404 276.844 21.6639 276.844 22.6724C276.844 23.659 277.096 24.3715 277.6 24.81C278.126 25.2265 278.784 25.4348 279.573 25.4348Z" fill="#0C0C0C"/>
<path d="M256.652 3.59839C260.971 3.59839 264.227 4.6617 266.419 6.78833C268.633 8.89303 269.741 11.9953 269.741 16.0951C269.741 20.2168 268.644 23.319 266.452 25.4018C264.26 27.4846 260.993 28.526 256.652 28.526H248.102V3.59839H256.652ZM265.137 15.9964C265.137 13.0805 264.424 10.9429 262.999 9.58364C261.596 8.20243 259.48 7.51182 256.652 7.51182H252.673V24.6125H256.652C259.524 24.6125 261.651 23.9329 263.032 22.5736C264.435 21.1924 265.137 19 265.137 15.9964Z" fill="#0C0C0C"/>
<path d="M229.004 29.0852C227.579 29.0852 226.307 28.9646 225.189 28.7235C224.071 28.4823 222.909 28.0767 221.703 27.5067V23.4617C222.865 24.1194 224.038 24.6017 225.222 24.9087C226.428 25.1937 227.688 25.3362 229.004 25.3362C230.867 25.3362 231.799 24.6675 231.799 23.3302C231.799 22.7601 231.635 22.3436 231.306 22.0805C230.999 21.7955 230.506 21.5653 229.826 21.3899L227.129 20.7979C225.441 20.4252 224.159 19.8223 223.282 18.9892C222.427 18.1342 221.999 16.9174 221.999 15.3389C221.999 11.5241 224.378 9.6167 229.135 9.6167C231.218 9.6167 233.312 10.0113 235.417 10.8006V14.6811C234.605 14.2865 233.674 13.9686 232.621 13.7274C231.569 13.4863 230.473 13.3657 229.333 13.3657C227.425 13.3657 226.472 13.9357 226.472 15.0758C226.472 15.6019 226.625 15.9856 226.932 16.2268C227.261 16.4679 227.743 16.6653 228.379 16.8187L231.043 17.4107C232.819 17.8272 234.134 18.4521 234.989 19.2852C235.844 20.1183 236.272 21.4008 236.272 23.1328C236.272 25.0841 235.614 26.5639 234.298 27.5725C232.983 28.581 231.218 29.0852 229.004 29.0852Z" fill="#0C0C0C"/>
<path d="M213.055 1.9873H217.461V6.95309H213.055V1.9873ZM213.055 10.143H217.461V28.5263H213.055V10.143Z" fill="#0C0C0C"/>
<path d="M189.69 20.3375C190.041 23.67 191.882 25.3362 195.215 25.3362C196.07 25.3362 196.903 25.2266 197.714 25.0073C198.525 24.7881 199.435 24.4373 200.444 23.955L201.628 27.4409C200.575 28.0329 199.501 28.4494 198.405 28.6906C197.309 28.9537 196.07 29.0852 194.689 29.0852C192.65 29.0852 190.907 28.6796 189.46 27.8684C188.013 27.0353 186.917 25.8843 186.171 24.4154C185.448 22.9465 185.086 21.2364 185.086 19.2852C185.086 17.2462 185.47 15.5033 186.237 14.0563C187.004 12.5874 188.046 11.4802 189.361 10.7348C190.677 9.98941 192.145 9.6167 193.768 9.6167C196.333 9.6167 198.339 10.384 199.786 11.9187C201.255 13.4315 202 15.6568 202.022 18.5946V20.3375H189.69ZM193.768 13.3657C191.619 13.3657 190.315 14.5496 189.854 16.9174H197.385C197.276 15.6896 196.925 14.7908 196.333 14.2207C195.741 13.6507 194.886 13.3657 193.768 13.3657Z" fill="#0C0C0C"/>
<path d="M174.609 9.74829C176.889 9.74829 178.588 10.3622 179.706 11.5899C180.824 12.7957 181.384 14.747 181.384 17.4436V28.5262H176.977V17.4436C176.977 16.1501 176.736 15.2074 176.253 14.6154C175.771 14.0015 174.938 13.6946 173.754 13.6946C172.329 13.6946 170.86 14.3743 169.347 15.7335C169.413 16.2597 169.446 16.8297 169.446 17.4436V28.5262H165.039V17.4436C165.039 16.1501 164.798 15.2074 164.316 14.6154C163.833 14.0015 163 13.6946 161.816 13.6946C160.391 13.6946 158.955 14.3304 157.508 15.602V28.5262H153.102V10.1429H157.508V11.8201C159.153 10.4389 160.874 9.74829 162.671 9.74829C164.118 9.74829 165.324 9.98946 166.289 10.4718C167.275 10.9322 168.021 11.6666 168.525 12.6751C169.512 11.6886 170.487 10.9541 171.452 10.4718C172.439 9.98946 173.491 9.74829 174.609 9.74829Z" fill="#0C0C0C"/>
<path d="M140.562 10.1428C142.732 10.1428 144.376 10.4717 145.495 11.1294C146.635 11.7652 147.391 12.6312 147.764 13.7274C148.136 14.8017 148.323 16.161 148.323 17.8053V28.5261H143.916V26.8489C143.105 27.5943 142.305 28.1315 141.515 28.4603C140.748 28.7892 139.904 28.9536 138.983 28.9536C137.054 28.9536 135.497 28.4055 134.313 27.3093C133.151 26.1912 132.57 24.6675 132.57 22.7382C132.57 20.765 133.173 19.2413 134.379 18.167C135.607 17.0708 137.284 16.5227 139.411 16.5227C141.143 16.5227 142.644 16.8625 143.916 17.5422C143.894 16.7091 143.784 16.0404 143.587 15.5361C143.412 15.0319 143.05 14.6482 142.502 14.3851C141.954 14.1001 141.143 13.9576 140.068 13.9576H136.977V10.1428H140.562ZM139.772 25.4348C141.11 25.4348 142.491 24.8209 143.916 23.5932V20.6992C142.754 20.1073 141.559 19.8113 140.331 19.8113C139.367 19.8113 138.577 20.0415 137.964 20.5019C137.35 20.9404 137.043 21.6639 137.043 22.6724C137.043 23.659 137.295 24.3715 137.799 24.81C138.325 25.2265 138.983 25.4348 139.772 25.4348Z" fill="#0C0C0C"/>
<path d="M122.044 9.74829C124.412 9.74829 126.166 10.3512 127.306 11.557C128.468 12.7628 129.049 14.725 129.049 17.4436V28.5262H124.642V17.4436C124.642 16.1501 124.379 15.2074 123.853 14.6154C123.349 14.0015 122.461 13.6946 121.189 13.6946C119.699 13.6946 118.197 14.3414 116.684 15.6349V28.5262H112.277V10.1429H116.684V11.853C118.35 10.4499 120.137 9.74829 122.044 9.74829Z" fill="#0C0C0C"/>
<path d="M101.762 10.1428L94.0338 31.4529C93.5295 32.8561 92.9924 33.9304 92.4224 34.6758C91.8743 35.4431 91.2165 35.9803 90.4492 36.2872C89.7038 36.616 88.7501 36.7805 87.5881 36.7805C86.6454 36.7805 85.7903 36.6599 85.023 36.4187V32.5711C85.5711 32.7245 86.2069 32.8013 86.9304 32.8013C87.7635 32.8013 88.4103 32.604 88.8707 32.2093C89.353 31.8366 89.8024 31.1022 90.219 30.006L90.7781 28.5261L84.168 10.1428H88.7062L92.9156 22.5737L97.4539 10.1428H101.762Z" fill="#0C0C0C"/>
<path d="M74.5348 9.74829C76.8149 9.74829 78.514 10.3622 79.6321 11.5899C80.7502 12.7957 81.3093 14.747 81.3093 17.4436V28.5262H76.9026V17.4436C76.9026 16.1501 76.6614 15.2074 76.1791 14.6154C75.6967 14.0015 74.8636 13.6946 73.6797 13.6946C72.2547 13.6946 70.7858 14.3743 69.273 15.7335C69.3388 16.2597 69.3717 16.8297 69.3717 17.4436V28.5262H64.965V17.4436C64.965 16.1501 64.7238 15.2074 64.2415 14.6154C63.7591 14.0015 62.926 13.6946 61.7421 13.6946C60.3171 13.6946 58.881 14.3304 57.4341 15.602V28.5262H53.0273V10.1429H57.4341V11.8201C59.0784 10.4389 60.7994 9.74829 62.5972 9.74829C64.0441 9.74829 65.25 9.98946 66.2146 10.4718C67.2012 10.9322 67.9466 11.6666 68.4509 12.6751C69.4375 11.6886 70.4131 10.9541 71.3777 10.4718C72.3643 9.98946 73.4167 9.74829 74.5348 9.74829Z" fill="#0C0C0C"/>
<path d="M37.0161 22.9028H41.6202L39.0222 33.4921H35.043L37.0161 22.9028Z" fill="#0C0C0C"/>
<path d="M26.7852 1.9873H31.1919V6.95309H26.7852V1.9873ZM26.7852 10.143H31.1919V28.5263H26.7852V10.143Z" fill="#0C0C0C"/>
<path d="M21.1087 3.59839V28.526H16.5375V17.9696H5.35631V28.526H0.785156V3.59839H5.35631V14.0232H16.5375V3.59839H21.1087Z" fill="#0C0C0C"/>
</svg>
