<?xml version="1.0" encoding="UTF-8"?>
<svg id="Layer_1" xmlns="http://www.w3.org/2000/svg" version="1.1" viewBox="0 0 88 88">
  <!-- Generator: Adobe Illustrator 29.6.1, SVG Export Plug-In . SVG Version: 2.1.1 Build 9)  -->
  <defs>
    <style>
      .st0 {
        stroke-miterlimit: 4;
        stroke-width: 2px;
      }

      .st0, .st1 {
        fill: none;
        stroke: #ff1515;
      }

      .st2 {
        fill: #fbfbfb;
      }

      .st1 {
        stroke-linecap: round;
        stroke-linejoin: round;
        stroke-width: 2px;
      }

      .st3 {
        fill: #ff1515;
      }
    </style>
  </defs>
  <circle class="st2" cx="44" cy="44" r="44"/>
  <rect class="st0" x="12.6" y="52.15" width="42.49" height="6.54" rx="1" ry="1" transform="translate(-30.4 46.01) rotate(-50.26)"/>
  <path class="st1" d="M41.92,40.59c2.25,1.87,4.61,3.84,4.61,3.84"/>
  <path class="st3" d="M56.96,44.68c.14-.48.86-.5,1.03-.03.52,1.42,1.28,3.35,1.83,3.96.55.6,2.42,1.33,3.86,1.83.48.17.47.92-.02,1.07-1.36.42-3.12,1.07-3.84,1.74-.7.66-1.37,2.41-1.83,3.81-.16.5-.95.49-1.1,0-.41-1.38-.99-3.1-1.55-3.79-.57-.71-2.43-1.34-3.91-1.75-.51-.14-.53-.94-.03-1.1,1.51-.5,3.41-1.21,3.94-1.79.55-.6,1.19-2.5,1.61-3.92v-.02Z"/>
  <path class="st3" d="M34.45,22.68c.14-.48.86-.5,1.04-.03.48,1.32,1.17,3.05,1.68,3.61.5.54,2.18,1.21,3.51,1.68.48.17.46.92-.02,1.07-1.26.4-2.83.98-3.49,1.6-.64.6-1.25,2.16-1.67,3.45-.16.5-.96.49-1.11,0-.38-1.27-.91-2.81-1.42-3.44-.52-.64-2.17-1.22-3.54-1.6-.51-.14-.53-.94-.03-1.11,1.39-.46,3.09-1.11,3.57-1.64.5-.55,1.09-2.25,1.48-3.57h0Z"/>
  <path class="st3" d="M47.74,9.67c.05-.19.34-.2.4-.01.34.97.98,2.7,1.43,3.19.44.48,2.17,1.1,3.15,1.43.19.06.19.36,0,.41-.94.27-2.55.8-3.14,1.35-.58.54-1.14,2.19-1.43,3.18-.06.2-.37.2-.42,0-.27-.98-.76-2.6-1.23-3.17-.47-.58-2.22-1.09-3.26-1.35-.2-.05-.21-.36,0-.42,1.06-.33,2.84-.94,3.28-1.41.45-.49.98-2.21,1.25-3.18l-.02-.02Z"/>
  <path class="st3" d="M60.97,18.68c.14-.48.85-.5,1.01-.03.75,2.14,2.1,5.72,3.04,6.75.94,1.02,4.48,2.32,6.65,3.04.48.16.47.9-.02,1.04-2.08.61-5.4,1.71-6.63,2.88-1.22,1.14-2.39,4.5-3.05,6.68-.15.5-.93.49-1.07,0-.6-2.15-1.63-5.46-2.61-6.67-1-1.23-4.56-2.3-6.86-2.89-.51-.13-.53-.91-.03-1.07,2.32-.73,5.98-2,6.9-3.01.94-1.03,2.05-4.58,2.66-6.72h0Z"/>
</svg>