<?xml version="1.0" encoding="UTF-8"?>
<svg id="Layer_1" xmlns="http://www.w3.org/2000/svg" version="1.1" viewBox="0 0 41 40">
  <!-- Generator: Adobe Illustrator 29.6.1, SVG Export Plug-In . SVG Version: 2.1.1 Build 9)  -->
  <defs>
    <style>
      .st0 {
        fill: #ff1515;
      }

      .st1 {
        fill: #121212;
        opacity: .4;
      }

      .st2 {
        fill: #ee2625;
      }
    </style>
  </defs>
  <circle class="st1" cx="20.5" cy="20" r="18.74"/>
  <g>
    <path class="st0" d="M28.86,19.73c0-4.55-3.69-8.24-8.24-8.24s-8.24,3.69-8.24,8.24,3.69,8.24,8.24,8.24c1.83,0,3.51-.59,4.88-1.6l.27-.2,4.12,4.01c.43.42,1.12.41,1.54-.02.42-.43.41-1.12-.02-1.54l-4.13-4.01.18-.27c.89-1.31,1.41-2.9,1.41-4.6ZM29.64,19.73c0,1.75-.5,3.38-1.36,4.77l3.67,3.56c.74.72.76,1.91.04,2.65-.72.74-1.91.76-2.65.04l-3.65-3.55c-1.45.98-3.19,1.56-5.07,1.56-4.98,0-9.03-4.04-9.03-9.03s4.04-9.03,9.03-9.03,9.03,4.04,9.03,9.03Z"/>
    <path class="st0" d="M26.9,19.73c0-3.47-2.81-6.28-6.28-6.28s-6.28,2.81-6.28,6.28,2.81,6.28,6.28,6.28v.78c-3.9,0-7.06-3.16-7.06-7.06s3.16-7.06,7.06-7.06,7.06,3.16,7.06,7.06-3.16,7.06-7.06,7.06v-.78c3.47,0,6.28-2.81,6.28-6.28Z"/>
    <g>
      <path class="st2" d="M20.62,23.29c-.25,0-.45-.2-.45-.45v-6.23c0-.25.2-.45.45-.45s.45.2.45.45v6.23c0,.25-.2.45-.45.45Z"/>
      <path class="st2" d="M23.74,20.18h-6.23c-.25,0-.45-.2-.45-.45s.2-.45.45-.45h6.23c.25,0,.45.2.45.45s-.2.45-.45.45Z"/>
    </g>
  </g>
</svg>