<svg width="48" height="48" viewBox="0 0 48 48" fill="none" xmlns="http://www.w3.org/2000/svg">
<rect x="0.890625" y="0.775513" width="46.7858" height="46.7858" rx="10" fill="#1968FD"/>
<g clip-path="url(#clip0_975_241)">
<path fill-rule="evenodd" clip-rule="evenodd" d="M14.1731 28.2577C12.7782 26.9171 12.7782 24.7487 14.1731 23.4082L17.9625 19.7733C19.1435 18.6396 20.9429 18.4642 22.3145 19.2469C22.7376 19.4898 22.7329 20.0432 22.3842 20.3761C22.0355 20.709 21.4636 20.682 20.994 20.547C20.3896 20.3761 19.7061 20.52 19.2272 20.9789L15.4378 24.6228C14.7403 25.2931 14.7403 26.3772 15.4378 27.0475C16.1352 27.7178 17.2651 27.7178 17.9671 27.0475L25.5459 19.7733C26.9408 18.4327 29.2051 18.4327 30.6 19.7733L34.3894 23.4082C35.7842 24.7487 35.7842 26.9171 34.3894 28.2577C32.9945 29.5983 30.7302 29.5983 29.3353 28.2577L28.0706 27.0475L26.4898 28.5636C25.3088 29.6972 23.5094 29.8727 22.1378 29.0899C21.7147 28.847 21.7193 28.2937 22.0681 27.9608C22.4168 27.6279 22.9887 27.6549 23.4583 27.7898C24.0627 27.9608 24.7462 27.8168 25.2251 27.358L26.8478 25.8014C27.522 25.1581 28.61 25.1581 29.2842 25.8014L30.5907 27.0565C31.2881 27.7268 32.418 27.7268 33.12 27.0565C33.8175 26.3862 33.8175 25.3021 33.12 24.6318L29.3307 20.9969C28.6332 20.3266 27.5034 20.3266 26.8013 20.9969L19.2272 28.2577C17.8323 29.5983 15.568 29.5983 14.1731 28.2577Z" fill="white"/>
</g>
<defs>
<clipPath id="clip0_975_241">
<rect width="22.3132" height="10.7967" fill="white" transform="translate(13.127 18.7701)"/>
</clipPath>
</defs>
</svg>
