<svg width="14" height="20" viewBox="0 0 14 20" fill="none" xmlns="http://www.w3.org/2000/svg">
<path d="M12 18V20H2V18H12ZM12 2H2V20L1.7959 19.9893C0.854346 19.8938 0.1062 19.1457 0.0107422 18.2041L0 18V2C2.57706e-07 0.895431 0.895431 4.83192e-08 2 0H12C13.1046 0 14 0.895431 14 2V18L13.9893 18.2041C13.8938 19.1457 13.1457 19.8938 12.2041 19.9893L12 20V2Z" fill="black"/>
<path d="M8 16C8 16.5523 7.55228 17 7 17C6.44772 17 6 16.5523 6 16C6 15.4477 6.44772 15 7 15C7.55228 15 8 15.4477 8 16Z" fill="black"/>
</svg>
