<svg width="48" height="47" viewBox="0 0 48 47" fill="none" xmlns="http://www.w3.org/2000/svg">
<path d="M39.0222 0H8.39718C3.75954 0 0 3.77477 0 8.43117V37.9899C0 42.6463 3.75954 46.4211 8.39718 46.4211H39.0222C43.6598 46.4211 47.4194 42.6463 47.4194 37.9899V8.43117C47.4194 3.77477 43.6598 0 39.0222 0Z" fill="#001E36"/>
<path d="M10.6773 32.5523V12.1429C10.6773 11.9941 10.7405 11.9187 10.8689 11.9187C11.2088 11.9187 11.517 11.9128 11.9833 11.9028C12.4496 11.8929 12.9534 11.881 13.4948 11.8711C14.0361 11.8612 14.6091 11.8493 15.2117 11.8394C15.8163 11.8294 16.415 11.8235 17.0097 11.8235C18.622 11.8235 19.9794 12.0258 21.0819 12.4305C22.0777 12.7678 22.9846 13.3252 23.7373 14.0592C24.3755 14.696 24.8695 15.4638 25.1856 16.3109C25.484 17.1341 25.6341 18.005 25.6302 18.8819C25.6302 20.586 25.237 21.9905 24.4526 23.0975C23.6623 24.2084 22.5519 25.0515 21.2715 25.5098C19.9359 26.0097 18.4501 26.1803 16.8181 26.1803C16.3518 26.1803 16.0218 26.1743 15.8321 26.1644C15.6405 26.1545 15.356 26.1485 14.9727 26.1485V32.5205C14.9924 32.6594 14.8956 32.7883 14.7573 32.8082C14.7336 32.8122 14.7099 32.8122 14.6862 32.8082H10.8986C10.7504 32.8082 10.6753 32.7229 10.6753 32.5523H10.6773ZM14.9746 15.7534V22.4091C15.2493 22.4309 15.5042 22.4408 15.7373 22.4408H16.7865C17.559 22.4388 18.3256 22.3158 19.0606 22.0758C19.6909 21.8873 20.254 21.5223 20.6828 21.0224C21.0957 20.5324 21.3032 19.8519 21.3032 18.9791C21.319 18.3621 21.1589 17.7511 20.8428 17.2214C20.5089 16.7096 20.0248 16.3148 19.4597 16.0867C18.7208 15.799 17.9305 15.6622 17.1382 15.6879C16.6284 15.6879 16.1779 15.6939 15.7867 15.7038C15.3935 15.7157 15.1228 15.7316 14.9746 15.7514V15.7534Z" fill="#31A8FF"/>
<path d="M37.9296 21.199C37.3309 20.8915 36.6947 20.6653 36.0367 20.5284C35.3116 20.3618 34.5707 20.2765 33.8258 20.2725C33.4227 20.2606 33.0216 20.3102 32.6324 20.4154C32.3854 20.4709 32.1661 20.6118 32.012 20.8141C31.9093 20.9768 31.8539 21.1652 31.8539 21.3577C31.8599 21.5441 31.9271 21.7247 32.0456 21.8695C32.2313 22.0877 32.4585 22.2663 32.7134 22.3972C33.1679 22.6432 33.6341 22.8614 34.1123 23.0518C35.1792 23.4109 36.2007 23.8989 37.1511 24.506C37.7991 24.9166 38.3346 25.482 38.71 26.1505C39.0261 26.7854 39.1842 27.4856 39.1704 28.1939C39.1901 29.1302 38.9234 30.0487 38.4077 30.8284C37.8545 31.6199 37.0879 32.2349 36.1968 32.6019C35.2306 33.0284 34.0392 33.2407 32.6186 33.2407C31.7156 33.2506 30.8147 33.1633 29.9315 32.9848C29.234 32.8558 28.5563 32.6416 27.9122 32.346C27.77 32.2726 27.683 32.1238 27.6889 31.9631V28.5133C27.681 28.4438 27.7127 28.3764 27.768 28.3367C27.8233 28.305 27.8944 28.3109 27.9438 28.3526C28.7045 28.8029 29.5304 29.1322 30.3938 29.3266C31.1545 29.5171 31.933 29.6202 32.7154 29.6301C33.4583 29.6301 34.0036 29.5349 34.3533 29.3425C34.6754 29.1937 34.8829 28.8684 34.8789 28.5113C34.8789 28.2355 34.7189 27.9677 34.4027 27.7138C34.0846 27.4579 33.4385 27.1504 32.4625 26.7873C31.4627 26.4382 30.5163 25.9541 29.647 25.3511C29.0246 24.9166 28.5129 24.3433 28.1513 23.6748C27.8391 23.0459 27.681 22.3496 27.6909 21.6473C27.6909 20.8022 27.9201 19.973 28.3587 19.2529C28.8586 18.4593 29.5778 17.8265 30.4274 17.4317C31.36 16.9635 32.5277 16.7295 33.9266 16.7295C34.7465 16.7235 35.5645 16.781 36.3766 16.906C36.9634 16.9814 37.5383 17.1361 38.0817 17.3682C38.1686 17.394 38.2398 17.4595 38.2733 17.5448C38.2951 17.6222 38.305 17.7035 38.305 17.7848V21.0105C38.3089 21.0879 38.2733 21.1593 38.2101 21.2029C38.1232 21.2466 38.0224 21.2466 37.9355 21.2029L37.9296 21.199Z" fill="#31A8FF"/>
</svg>
