<?xml version="1.0" encoding="UTF-8"?>
<svg id="Layer_1" xmlns="http://www.w3.org/2000/svg" version="1.1" viewBox="0 0 77 77">
  <!-- Generator: Adobe Illustrator 29.8.2, SVG Export Plug-In . SVG Version: 2.1.1 Build 3)  -->
  <defs>
    <style>
      .st0 {
        fill: #121212;
      }

      .st1 {
        fill: #ff1515;
      }
    </style>
  </defs>
  <circle class="st0" cx="38.5" cy="38.5" r="38.5"/>
  <path class="st1" d="M16.32,49.55v-11.33c0-1.42.51-2.8,1.43-3.88l9.16-10.76.13-.15c.69-.72,1.64-1.13,2.64-1.13h.25c2.47.17,4.06,2.72,3.14,5.01l-.1.23-2.12,4.38c-.64,1.31.32,2.84,1.78,2.84,3.3,0,5.97,2.67,5.97,5.97v8.82c0,3.3-2.68,5.98-5.98,5.98h-10.31c-3.3,0-5.98-2.68-5.98-5.98ZM18.32,49.55v.21c.11,2.04,1.74,3.67,3.78,3.78h.21s10.31,0,10.31,0h.21c2.04-.11,3.67-1.74,3.78-3.78v-.21s0-8.82,0-8.82c0-2.13-1.67-3.86-3.77-3.97h-.2c-2.84,0-4.73-2.88-3.69-5.46l.11-.25,2.12-4.38c.53-1.1-.27-2.37-1.49-2.37-.48,0-.95.21-1.26.58l-9.17,10.76-.22.28c-.48.67-.73,1.48-.73,2.31v11.33Z"/>
  <path class="st1" d="M40.25,49.55v-11.33c0-1.42.51-2.8,1.43-3.88l9.16-10.76.13-.15c.69-.72,1.64-1.13,2.64-1.13h.25c2.47.17,4.06,2.72,3.14,5.01l-.1.23-2.12,4.38c-.64,1.31.32,2.84,1.78,2.84,3.3,0,5.97,2.67,5.97,5.97v8.82c0,3.3-2.68,5.98-5.98,5.98h-10.31c-3.3,0-5.98-2.68-5.98-5.98ZM42.25,49.55v.21c.11,2.04,1.74,3.67,3.78,3.78h.21s10.31,0,10.31,0h.21c2.04-.11,3.67-1.74,3.78-3.78v-.21s0-8.82,0-8.82c0-2.13-1.67-3.86-3.77-3.97h-.2c-2.84,0-4.73-2.88-3.69-5.46l.11-.25,2.12-4.38c.53-1.1-.27-2.37-1.49-2.37-.48,0-.95.21-1.26.58l-9.17,10.76-.22.28c-.48.67-.73,1.48-.73,2.31v11.33Z"/>
</svg>