<svg width="77" height="77" viewBox="0 0 77 77" fill="none" xmlns="http://www.w3.org/2000/svg">
<circle cx="38.5" cy="38.5" r="38.5" fill="#FBFBFB"/>
<path d="M16.3232 49.5535V38.2248C16.3232 36.8034 16.8297 35.4279 17.7513 34.3456L26.9159 23.583L27.0496 23.435C27.7361 22.7126 28.6917 22.3003 29.6941 22.3003L29.9434 22.3081C32.4105 22.4703 34.0083 25.0192 33.0787 27.3104L32.9762 27.5376L30.8548 31.9204C30.2184 33.2347 31.1759 34.7623 32.636 34.7623C35.9314 34.7625 38.6027 37.4338 38.6028 40.7292V49.5535C38.6028 52.8576 35.9244 55.536 32.6204 55.536H22.3057C19.0017 55.536 16.3232 52.8576 16.3232 49.5535ZM18.3174 49.5535L18.3226 49.7587C18.4259 51.798 20.0611 53.4333 22.1005 53.5366L22.3057 53.5418H32.6204L32.8256 53.5366C34.865 53.4333 36.5002 51.7981 36.6035 49.7587L36.6087 49.5535V40.7292C36.6086 38.6035 34.9392 36.8679 32.8398 36.7617L32.636 36.7565C29.7961 36.7565 27.9028 33.8785 28.9489 31.2998L29.0593 31.0519L31.182 26.6689C31.7136 25.5709 30.914 24.2948 29.6941 24.2944C29.2095 24.2944 28.749 24.5071 28.4349 24.8761L19.269 35.6387L19.0522 35.9179C18.5759 36.5896 18.3174 37.3955 18.3174 38.2248V49.5535Z" fill="#FF1515"/>
<path d="M40.2529 49.5535V38.2248C40.2529 36.8034 40.7594 35.4279 41.681 34.3456L50.8455 23.583L50.9793 23.435C51.6658 22.7126 52.6214 22.3003 53.6238 22.3003L53.873 22.3081C56.3402 22.4703 57.938 25.0192 57.0084 27.3104L56.9059 27.5376L54.7845 31.9204C54.1481 33.2347 55.1056 34.7623 56.5657 34.7623C59.861 34.7625 62.5324 37.4338 62.5325 40.7292V49.5535C62.5325 52.8576 59.8541 55.536 56.5501 55.536H46.2354C42.9313 55.536 40.2529 52.8576 40.2529 49.5535ZM42.2471 49.5535L42.2523 49.7587C42.3556 51.798 43.9909 53.4333 46.0302 53.5366L46.2354 53.5418H56.5501L56.7552 53.5366C58.7947 53.4333 60.4299 51.7981 60.5332 49.7587L60.5384 49.5535V40.7292C60.5383 38.6035 58.8689 36.8679 56.7695 36.7617L56.5657 36.7565C53.7257 36.7565 51.8325 33.8785 52.8786 31.2998L52.989 31.0519L55.1117 26.6689C55.6433 25.5709 54.8437 24.2948 53.6238 24.2944C53.1392 24.2944 52.6787 24.5071 52.3645 24.8761L43.1987 35.6387L42.9818 35.9179C42.5056 36.5896 42.2471 37.3955 42.2471 38.2248V49.5535Z" fill="#FF1515"/>
</svg>
