<svg width="32" height="41" viewBox="0 0 32 41" fill="none" xmlns="http://www.w3.org/2000/svg">
<path d="M19.5078 1.25C20.5022 1.25012 21.456 1.64548 22.1592 2.34863L29.4014 9.59082L29.5303 9.72559C30.153 10.4134 30.4999 11.31 30.5 12.2422V36C30.5 38.0711 28.8211 39.75 26.75 39.75H4.75C2.67893 39.75 1 38.0711 1 36V5C1 2.92893 2.67893 1.25 4.75 1.25H19.5078ZM4.75 2.75C3.50736 2.75 2.5 3.75736 2.5 5V36C2.5 37.2426 3.50736 38.25 4.75 38.25H26.75C27.9926 38.25 29 37.2426 29 36V12.2422C29 12.0751 28.9794 11.9104 28.9434 11.75H23.75C21.7439 11.7499 20.1055 10.1745 20.0049 8.19336L20 8V2.80664C19.8395 2.77059 19.6748 2.75003 19.5078 2.75H4.75ZM26.3271 32.2539C26.7051 32.2925 27 32.6118 27 33C27 33.3882 26.7051 33.7075 26.3271 33.7461L26.25 33.75H6.25C5.83579 33.75 5.5 33.4142 5.5 33C5.5 32.5858 5.83579 32.25 6.25 32.25H26.25L26.3271 32.2539ZM26.3271 26.2539C26.7051 26.2925 27 26.6118 27 27C27 27.3882 26.7051 27.7075 26.3271 27.7461L26.25 27.75H6.25C5.83579 27.75 5.5 27.4142 5.5 27C5.5 26.5858 5.83579 26.25 6.25 26.25H26.25L26.3271 26.2539ZM12.25 14.25C15.7018 14.25 18.5 17.0482 18.5 20.5V21C18.5 21.4142 18.1642 21.75 17.75 21.75C17.3358 21.75 17 21.4142 17 21V20.5C17 17.8766 14.8734 15.75 12.25 15.75C9.62665 15.75 7.5 17.8766 7.5 20.5V21C7.5 21.4142 7.16421 21.75 6.75 21.75C6.33579 21.75 6 21.4142 6 21V20.5C6 17.0482 8.79822 14.25 12.25 14.25ZM12.25 6C14.183 6 15.75 7.567 15.75 9.5C15.75 11.433 14.183 13 12.25 13C10.317 13 8.75 11.433 8.75 9.5C8.75 7.567 10.317 6 12.25 6ZM12.25 7.5C11.1454 7.5 10.25 8.39543 10.25 9.5C10.25 10.6046 11.1454 11.5 12.25 11.5C13.3546 11.5 14.25 10.6046 14.25 9.5C14.25 8.39543 13.3546 7.5 12.25 7.5ZM21.5 8L21.5117 8.23047C21.6271 9.36478 22.5853 10.2499 23.75 10.25H27.9395L21.5 3.81055V8Z" fill="#FF1515"/>
</svg>
