<?xml version="1.0" encoding="UTF-8"?>
<svg id="Layer_1" xmlns="http://www.w3.org/2000/svg" version="1.1" viewBox="0 0 38 38">
  <!-- Generator: Adobe Illustrator 29.8.3, SVG Export Plug-In . SVG Version: 2.1.1 Build 3)  -->
  <defs>
    <style>
      .st0 {
        fill: #ff1515;
      }
    </style>
  </defs>
  <path class="st0" d="M29.08,29.53h-.08s-20,0-20,0c-.41,0-.75.4-.75.89s.34.89.75.89h20.08c.38-.05.67-.43.67-.89s-.29-.84-.67-.89Z"/>
  <path class="st0" d="M29.08,23.88h-.08s-20,0-20,0c-.41,0-.75.4-.75.89s.34.89.75.89h20.08c.38-.05.67-.43.67-.89s-.29-.84-.67-.89Z"/>
  <path class="st0" d="M9.6,20.01h9.89c.41,0,.74-.33.74-.74v-1.1c0-3-2.19-5.7-5.17-5.96-3.37-.29-6.19,2.35-6.19,5.66v1.4c0,.41.33.74.74.74Z"/>
  <circle class="st0" cx="14.54" cy="7.83" r="3.01"/>
  <path class="st0" d="M33.68,10.61L25.37,1.63c-.18-.19-.37-.36-.58-.51v-.12c-.06,0-.12,0-.18.01-.59-.37-1.27-.58-1.97-.58h-14.43C5.51.44,3.31,2.64,3.31,5.33v27.29c0,2.7,2.2,4.89,4.89,4.89h21.58c2.7,0,4.89-2.2,4.89-4.89V13.15c0-.94-.35-1.84-.99-2.53ZM31.7,11.12h-3.88c-1.67,0-3.02-1.35-3.02-3.03V3.66l6.91,7.46ZM32.88,32.62c0,1.71-1.39,3.09-3.09,3.09H8.21c-1.71,0-3.09-1.39-3.09-3.09V5.33c0-1.71,1.39-3.09,3.09-3.09h14.43c.12,0,.24.02.35.04v5.82c0,2.66,2.16,4.83,4.82,4.83h5.04c0,.08.02.15.02.23v19.47Z"/>
</svg>