<svg width="47" height="47" viewBox="0 0 47 47" fill="none" xmlns="http://www.w3.org/2000/svg">
<rect width="46.7858" height="46.7858" rx="10" fill="#1968FD"/>
<path d="M22.4493 10.2541C22.4493 10.2541 22.8768 11.9188 27.2209 14.3836C31.0047 16.5318 34.8154 19.4612 34.9868 25.2972C35.1582 31.1331 30.6504 37.7123 23.3485 37.7123C16.0467 37.7123 11.3386 31.391 11.3386 25.464C11.3386 23.0087 12.2051 20.5723 13.5068 19.0308C16.7592 15.1819 18.8619 14.4045 21.0956 12.2885C21.9602 11.4694 22.3915 10.6371 22.4512 10.2522L22.4493 10.2541Z" fill="#52A8DC"/>
<path d="M29.8629 20.6613H16.4685C15.9963 20.6613 15.6135 21.0382 15.6135 21.5032V29.8059C15.6135 30.2708 15.9963 30.6477 16.4685 30.6477H29.8629C30.3351 30.6477 30.7179 30.2708 30.7179 29.8059V21.5032C30.7179 21.0382 30.3351 20.6613 29.8629 20.6613Z" fill="white"/>
<path d="M18.3172 23.8163C18.8064 23.8163 19.2029 23.4258 19.2029 22.9442C19.2029 22.4625 18.8064 22.072 18.3172 22.072C17.828 22.072 17.4314 22.4625 17.4314 22.9442C17.4314 23.4258 17.828 23.8163 18.3172 23.8163Z" fill="#52A8DC"/>
<path d="M20.6604 23.8163C21.1496 23.8163 21.5462 23.4258 21.5462 22.9442C21.5462 22.4625 21.1496 22.072 20.6604 22.072C20.1712 22.072 19.7747 22.4625 19.7747 22.9442C19.7747 23.4258 20.1712 23.8163 20.6604 23.8163Z" fill="#52A8DC"/>
<path d="M23.002 23.8163C23.4912 23.8163 23.8878 23.4258 23.8878 22.9442C23.8878 22.4625 23.4912 22.072 23.002 22.072C22.5128 22.072 22.1162 22.4625 22.1162 22.9442C22.1162 23.4258 22.5128 23.8163 23.002 23.8163Z" fill="#52A8DC"/>
</svg>
