<svg width="47" height="47" viewBox="0 0 47 47" fill="none" xmlns="http://www.w3.org/2000/svg">
<rect x="7.43866e-05" width="46.7858" height="46.7858" rx="10" fill="#424242"/>
<g clip-path="url(#clip0_1125_13512)">
<mask id="mask0_1125_13512" style="mask-type:alpha" maskUnits="userSpaceOnUse" x="11" y="11" width="24" height="25">
<path fill-rule="evenodd" clip-rule="evenodd" d="M28.0189 35.0906C28.3969 35.2378 28.8279 35.2284 29.2094 35.0448L34.1506 32.6672C34.6698 32.4173 35 31.8919 35 31.3154V15.1936C35 14.6172 34.6698 14.0917 34.1506 13.8418L29.2094 11.4642C28.7087 11.2232 28.1227 11.2822 27.6832 11.6017C27.6205 11.6474 27.5607 11.6983 27.5046 11.7545L18.0452 20.3844L13.9249 17.2568C13.5414 16.9656 13.0049 16.9895 12.6486 17.3135L11.3271 18.5156C10.8914 18.912 10.8909 19.5975 11.326 19.9945L14.8993 23.2545L11.326 26.5144C10.8909 26.9114 10.8914 27.597 11.3271 27.9933L12.6486 29.1954C13.0049 29.5195 13.5414 29.5433 13.9249 29.2522L18.0452 26.1245L27.5046 34.7545C27.6542 34.9042 27.8299 35.017 28.0189 35.0906ZM29.0036 17.8062L21.8262 23.2545L29.0036 28.7027V17.8062Z" fill="white"/>
</mask>
<g mask="url(#mask0_1125_13512)">
<path d="M34.1507 13.8457L29.2057 11.4648C28.6333 11.1892 27.9492 11.3054 27.5 11.7547L11.3117 26.5146C10.8762 26.9116 10.8767 27.5971 11.3127 27.9935L12.6351 29.1956C12.9915 29.5197 13.5283 29.5435 13.9121 29.2524L33.4066 14.4634C34.0606 13.9673 35 14.4337 35 15.2547V15.1973C35 14.621 34.6699 14.0957 34.1507 13.8457Z" fill="#0065A9"/>
<g filter="url(#filter0_d_1125_13512)">
<path d="M34.1507 32.6634L29.2057 35.0443C28.6333 35.32 27.9492 35.2037 27.5 34.7545L11.3117 19.9945C10.8762 19.5975 10.8767 18.912 11.3127 18.5156L12.6351 17.3135C12.9915 16.9895 13.5283 16.9656 13.9121 17.2567L33.4066 32.0457C34.0606 32.5418 35 32.0754 35 31.2545V31.3119C35 31.8881 34.6699 32.4134 34.1507 32.6634Z" fill="#007ACC"/>
</g>
<g filter="url(#filter1_d_1125_13512)">
<path d="M29.2059 35.0448C28.6333 35.3202 27.9493 35.2037 27.5 34.7544C28.0535 35.308 29 34.9159 29 34.1331V12.3758C29 11.5929 28.0535 11.2009 27.5 11.7544C27.9493 11.3052 28.6333 11.1888 29.2059 11.4641L34.1501 13.8418C34.6696 14.0917 35 14.6171 35 15.1936V31.3154C35 31.8918 34.6696 32.4173 34.1501 32.6672L29.2059 35.0448Z" fill="#1F9CF0"/>
</g>
<g style="mix-blend-mode:overlay" opacity="0.25">
<path fill-rule="evenodd" clip-rule="evenodd" d="M28.0043 35.0906C28.3823 35.2378 28.8133 35.2284 29.1948 35.0448L34.136 32.6672C34.6552 32.4174 34.9854 31.8919 34.9854 31.3154V15.1937C34.9854 14.6172 34.6552 14.0917 34.136 13.8419L29.1948 11.4642C28.6941 11.2233 28.1081 11.2823 27.6686 11.6018C27.6059 11.6474 27.5461 11.6983 27.49 11.7545L18.0306 20.3844L13.9103 17.2568C13.5268 16.9656 12.9903 16.9895 12.6341 17.3135L11.3125 18.5157C10.8768 18.912 10.8763 19.5975 11.3115 19.9946L14.8847 23.2545L11.3115 26.5145C10.8763 26.9115 10.8768 27.597 11.3125 27.9933L12.6341 29.1955C12.9903 29.5195 13.5268 29.5434 13.9103 29.2522L18.0306 26.1246L27.49 34.7545C27.6396 34.9042 27.8153 35.017 28.0043 35.0906ZM28.9891 17.8062L21.8116 23.2545L28.9891 28.7028V17.8062Z" fill="url(#paint0_linear_1125_13512)"/>
</g>
</g>
</g>
<defs>
<filter id="filter0_d_1125_13512" x="2.65207" y="8.7201" width="40.6813" height="34.8057" filterUnits="userSpaceOnUse" color-interpolation-filters="sRGB">
<feFlood flood-opacity="0" result="BackgroundImageFix"/>
<feColorMatrix in="SourceAlpha" type="matrix" values="0 0 0 0 0 0 0 0 0 0 0 0 0 0 0 0 0 0 127 0" result="hardAlpha"/>
<feOffset/>
<feGaussianBlur stdDeviation="4.16667"/>
<feColorMatrix type="matrix" values="0 0 0 0 0 0 0 0 0 0 0 0 0 0 0 0 0 0 0.25 0"/>
<feBlend mode="overlay" in2="BackgroundImageFix" result="effect1_dropShadow_1125_13512"/>
<feBlend mode="normal" in="SourceGraphic" in2="effect1_dropShadow_1125_13512" result="shape"/>
</filter>
<filter id="filter1_d_1125_13512" x="19.1667" y="2.98298" width="24.1667" height="40.543" filterUnits="userSpaceOnUse" color-interpolation-filters="sRGB">
<feFlood flood-opacity="0" result="BackgroundImageFix"/>
<feColorMatrix in="SourceAlpha" type="matrix" values="0 0 0 0 0 0 0 0 0 0 0 0 0 0 0 0 0 0 127 0" result="hardAlpha"/>
<feOffset/>
<feGaussianBlur stdDeviation="4.16667"/>
<feColorMatrix type="matrix" values="0 0 0 0 0 0 0 0 0 0 0 0 0 0 0 0 0 0 0.25 0"/>
<feBlend mode="overlay" in2="BackgroundImageFix" result="effect1_dropShadow_1125_13512"/>
<feBlend mode="normal" in="SourceGraphic" in2="effect1_dropShadow_1125_13512" result="shape"/>
</filter>
<linearGradient id="paint0_linear_1125_13512" x1="22.9854" y1="11.3164" x2="22.9854" y2="35.1927" gradientUnits="userSpaceOnUse">
<stop stop-color="white"/>
<stop offset="1" stop-color="white" stop-opacity="0"/>
</linearGradient>
<clipPath id="clip0_1125_13512">
<rect width="24" height="24" fill="white" transform="translate(11 11.3163)"/>
</clipPath>
</defs>
</svg>
