<?xml version="1.0" standalone="no"?>
<!DOCTYPE svg PUBLIC "-//W3C//DTD SVG 1.1//EN" "http://www.w3.org/Graphics/SVG/1.1/DTD/svg11.dtd" >
<svg xmlns="http://www.w3.org/2000/svg" xmlns:xlink="http://www.w3.org/1999/xlink" version="1.1">
<metadata>
Created by FontForge 20170812 at Fri Oct 27 21:41:24 2023
 By www-data
t and f broken spine forms
</metadata>
<defs>
<font id="BioRhyme-Bold" horiz-adv-x="647" >
  <font-face 
    font-family="BioRhyme"
    font-weight="700"
    font-stretch="normal"
    units-per-em="2048"
    panose-1="0 0 8 0 0 0 0 0 0 0"
    ascent="1638"
    descent="-410"
    x-height="965"
    cap-height="1405"
    bbox="-156 -668 2402 2101"
    underline-thickness="102"
    underline-position="-306"
    unicode-range="U+000D-FB02"
  />
<missing-glyph horiz-adv-x="748" 
d="M68 0v1365h544v-1365h-544zM136 68h408v1229h-408v-1229z" />
    <glyph glyph-name="uniFB01" unicode="fi" horiz-adv-x="1636" 
d="M57 0v203h205v559h-205v203h205v129q0 188 115 297.5t303 109.5q94 0 174 -22.5t174 -65.5l-90 -196q-57 35 -110.5 52t-116.5 17q-90 0 -143.5 -53t-53.5 -133v-135h297v-203h-297v-559h272v-203h-729zM952 0v203h205v559h-205v203h461v-762h207v-203h-668zM1088 1288
q0 63 51 104.5t127 41.5q80 0 130 -41t50 -105q0 -61 -50 -101t-130 -40q-76 0 -127 41t-51 100z" />
    <glyph glyph-name="uniFB02" unicode="fl" horiz-adv-x="1624" 
d="M57 0v203h205v559h-205v203h205v129q0 188 115 297.5t303 109.5q94 0 174 -22.5t174 -65.5l-4 -8h375v-1202h207v-203h-668v203h205v999h-205v15q-57 35 -110.5 52t-116.5 17q-90 0 -143.5 -53t-53.5 -133v-135h297v-203h-297v-559h272v-203h-729z" />
    <glyph glyph-name=".notdef" horiz-adv-x="748" 
d="M68 0v1365h544v-1365h-544zM136 68h408v1229h-408v-1229z" />
    <glyph glyph-name="glyph1" horiz-adv-x="0" 
 />
    <glyph glyph-name="uni000D" unicode="&#xd;" horiz-adv-x="1622" 
 />
    <glyph glyph-name="space" unicode=" " horiz-adv-x="612" 
 />
    <glyph glyph-name="exclam" unicode="!" horiz-adv-x="741" 
d="M178 127q0 70 55.5 115t135.5 45q86 0 140 -45t54 -115q0 -68 -54 -111t-140 -43q-80 0 -135.5 43t-55.5 111zM182 1364q0 78 46 130t143 52q94 0 140 -52t46 -130q0 -31 -9 -86t-24 -119q-59 -256 -73 -448l-27 -308h-105l-26 308q-20 160 -70 397q-16 80 -28.5 149.5
t-12.5 106.5z" />
    <glyph glyph-name="quotedbl" unicode="&#x22;" horiz-adv-x="960" 
d="M145 963l25 544l264 -28l-129 -531zM549 958l24 549l267 -30l-129 -533z" />
    <glyph glyph-name="numbersign" unicode="#" horiz-adv-x="1638" 
d="M14 322v196h365l102 285h-334v196h406l119 326h221l-119 -326h330l119 326h219l-119 -326h301v-196h-373l-104 -285h346v-196h-418l-117 -322h-217l117 322h-332l-116 -322h-220l117 322h-293zM598 518h332l102 285h-330z" />
    <glyph glyph-name="dollar" unicode="$" horiz-adv-x="1495" 
d="M172 -4v457l150 8q74 -92 169 -161t201 -103v311l-61 14q-231 61 -344 165t-113 251q0 106 56.5 189t154.5 128t223 45q23 0 72 -4v258h199v-309q117 -47 221 -141v170h223v-447l-141 -8q-49 80 -134 145.5t-184 102.5v-328q256 -61 391.5 -156.5t135.5 -260.5
q0 -162 -129 -257.5t-336 -95.5q-31 0 -47 2v-270h-199v305q-152 49 -283 164v-174h-225zM434 958q0 -57 59.5 -97t198.5 -79v322h-26q-113 0 -172.5 -38t-59.5 -108zM864 162h35q105 0 168 30.5t63 92.5q0 53 -62 93t-204 83v-299z" />
    <glyph glyph-name="percent" unicode="%" horiz-adv-x="1822" 
d="M84 989q0 100 51 177t135 119t179 42q98 0 180 -42t130 -118.5t48 -177.5q0 -98 -48 -176t-131 -121t-179 -43q-95 0 -179 44t-135 122t-51 174zM193 45l1298 1321l131 -129l-1296 -1323zM293 989q0 -63 46 -106t107 -43q64 0 108 42t44 107q0 66 -44 107t-108 41
q-61 0 -107 -41t-46 -107zM1016 293q0 98 49 176t132 122t179 44q94 0 178 -45t134.5 -123t50.5 -176q0 -100 -50.5 -177t-134.5 -119t-178 -42q-98 0 -180 42t-131 120t-49 178zM1227 293q0 -66 44 -108t107 -42q62 0 108 41t46 107t-46 109.5t-108 43.5q-63 0 -107 -43
t-44 -108z" />
    <glyph glyph-name="ampersand" unicode="&#x26;" horiz-adv-x="1642" 
d="M66 371q0 143 99 240.5t310 170.5q-16 82 -16 191q0 127 55 230.5t151.5 163.5t217.5 60q111 0 194.5 -43t127.5 -114.5t44 -157.5q0 -150 -127 -268.5t-356 -184.5q45 -117 116.5 -213t159.5 -163q82 53 127 124.5t45 149.5q0 47 -13 84t-40 82l221 96
q35 -49 58.5 -115.5t23.5 -142.5q0 -90 -52 -193.5t-148 -189.5q31 -6 59 -6q127 0 227 33l41 -199q-131 -35 -248 -35q-152 0 -305 68q-176 -70 -383 -70q-172 0 -305 48.5t-208.5 139.5t-75.5 214zM311 389q0 -98 96.5 -154.5t251.5 -56.5q80 1 146 15q-184 162 -277 397
q-115 -41 -166 -87t-51 -114zM709 975q0 -68 8 -119q281 90 280 252q0 53 -29.5 84t-78.5 31q-43 0 -84 -29t-68.5 -84t-27.5 -135z" />
    <glyph glyph-name="quotesingle" unicode="'" horiz-adv-x="595" 
d="M145 973l68 545l262 -58l-172 -516z" />
    <glyph glyph-name="parenleft" unicode="(" horiz-adv-x="817" 
d="M133 696q0 362 174 616.5t422 401.5l59 -92q-164 -156 -285.5 -382t-121.5 -544q0 -315 129 -553.5t278 -375.5l-59 -91q-141 78 -277.5 220.5t-227.5 347.5t-91 452z" />
    <glyph glyph-name="parenright" unicode=")" horiz-adv-x="817" 
d="M27 -231q164 156 285.5 382t121.5 545q0 315 -129 552t-278 378l59 88q141 -78 277.5 -219t227.5 -346t91 -453q0 -362 -173 -617t-423 -403z" />
    <glyph glyph-name="asterisk" unicode="*" horiz-adv-x="1044" 
d="M57 1303q0 10 4 34q25 86 103 86q18 0 26 -2q37 -10 101 -59q57 -41 84 -53l57 -27l-24 -80l-58 6q-31 2 -96 -6q-43 -6 -82 -6q-16 0 -41 4q-31 8 -52.5 35t-21.5 68zM188 922q0 35 21 65q14 16 45 38t43 30q55 33 86 61l49 39l62 -53l-27 -51q-18 -35 -37 -101
q-8 -31 -18.5 -59.5t-22.5 -42.5q-29 -39 -78 -39q-37 0 -75 27q-47 37 -48 86zM412 1581q0 43 27.5 74t84.5 33q55 -2 84 -34t29 -73q0 -31 -31 -108q-27 -74 -31 -99l-12 -59h-84l-10 59q-8 43 -29 96q-10 31 -19 61t-9 50zM545 1102l67 53l50 -39q31 -27 79 -59
q68 -41 88 -70q25 -31 25 -67q0 -47 -47 -84q-39 -27 -76 -27q-51 0 -80 39q-16 23 -41 104q-23 74 -35 99zM612 1282l56 27q20 10 82 53q10 6 43.5 29.5t58.5 29.5q8 2 27 2q35 0 63.5 -20.5t40.5 -65.5q4 -12 4 -37q0 -39 -22.5 -65.5t-53.5 -34.5q-25 -4 -39 -4
q-39 0 -81 6q-66 8 -99 6l-57 -6z" />
    <glyph glyph-name="plus" unicode="+" horiz-adv-x="1200" 
d="M111 526v219h378v406h220v-406h381v-219h-381v-407h-220v407h-378z" />
    <glyph glyph-name="comma" unicode="," 
d="M131 123q0 70 52.5 116t129.5 46q94 0 153.5 -65.5t59.5 -164.5q0 -211 -280 -458l-68 67q90 94 143.5 172t69.5 152q-49 -12 -96 -13q-70 0 -117 41t-47 107z" />
    <glyph glyph-name="hyphen" unicode="-" 
d="M55 375v219h539v-219h-539z" />
    <glyph glyph-name="period" unicode="." horiz-adv-x="602" 
d="M109 127q0 70 56 115t136 45q86 0 140.5 -45t54.5 -115q0 -68 -54.5 -111t-140.5 -43q-80 0 -136 44t-56 110z" />
    <glyph glyph-name="slash" unicode="/" horiz-adv-x="1091" 
d="M43 -215l758 1731h227l-758 -1731h-227z" />
    <glyph glyph-name="zero" unicode="0" horiz-adv-x="1443" 
d="M80 635q0 209 92 358.5t239.5 227t309.5 77.5t309.5 -77.5t240.5 -227t93 -358.5q0 -207 -93 -357.5t-240.5 -227.5t-309.5 -77t-309.5 77t-239.5 226.5t-92 358.5zM352 635q0 -135 48.5 -239.5t132 -162t188.5 -57.5q104 0 189 57.5t133.5 162t48.5 239.5
q0 137 -48.5 241.5t-132.5 162t-190 57.5q-104 0 -188 -57.5t-132.5 -162t-48.5 -241.5z" />
    <glyph glyph-name="one" unicode="1" horiz-adv-x="962" 
d="M96 1006q115 33 204 99t134 165v4h258v-1059h203v-215h-741v215h280v743q-96 -104 -284 -155z" />
    <glyph glyph-name="two" unicode="2" horiz-adv-x="1288" 
d="M68 1034q119 119 273.5 191.5t326.5 72.5q127 0 238.5 -45t181 -132t69.5 -206q0 -106 -57.5 -183t-158.5 -132t-263 -115q-180 -68 -258 -123t-88 -147h643v211h213v-426h-1118v215q12 162 137 272.5t362 198.5q133 51 200 84t94.5 65.5t29.5 77.5q0 74 -66.5 122
t-181.5 48q-113 0 -226.5 -55t-217.5 -151z" />
    <glyph glyph-name="three" unicode="3" horiz-adv-x="1245" 
d="M39 166l98 188q96 -70 221 -113.5t258 -43.5q123 0 200 44t77 115q0 86 -103.5 130t-334.5 44h-172v195h172q190 0 288.5 51t98.5 139q0 72 -66.5 120t-173.5 48q-211 0 -422 -182l-129 172q109 96 256.5 160.5t306.5 64.5q139 0 252 -42t178.5 -123.5t65.5 -192.5
q0 -102 -73.5 -180t-198.5 -123q321 -65 321 -307q0 -100 -71.5 -179t-195.5 -124t-278 -45q-186 0 -323 52t-252 132z" />
    <glyph glyph-name="four" unicode="4" horiz-adv-x="1327" 
d="M43 260v215l739 823h262v-823h259v-215h-259v-287h-256v287h-745zM307 475h481v543z" />
    <glyph glyph-name="five" unicode="5" horiz-adv-x="1273" 
d="M70 123l84 217q121 -80 244.5 -127t232.5 -47q119 0 206 56.5t89 162.5q0 90 -86 143.5t-234 53.5q-111 0 -206 -21.5t-238 -68.5v206h2v572h977v-217h-731v-283q143 33 268 27q135 -4 250.5 -50.5t187.5 -137.5t72 -224q0 -121 -69.5 -221.5t-189.5 -158.5t-263 -58
q-184 0 -319.5 48t-276.5 128z" />
    <glyph glyph-name="six" unicode="6" horiz-adv-x="1292" 
d="M80 586q0 199 86 361.5t243.5 256.5t362.5 94q129 0 227.5 -29.5t190.5 -78.5l-82 -201q-156 94 -324 94q-162 0 -279.5 -97t-154.5 -263q96 51 186.5 77.5t196.5 26.5q125 0 235.5 -46t178 -138t67.5 -223q0 -127 -69.5 -228.5t-190 -160t-266.5 -58.5q-168 0 -307 77
t-220 216.5t-81 319.5zM340 549q10 -109 61.5 -191t129 -126t165.5 -44q115 0 188.5 62.5t73.5 165.5q0 96 -75.5 151.5t-192.5 55.5q-174 0 -350 -74z" />
    <glyph glyph-name="seven" unicode="7" horiz-adv-x="1259" 
d="M82 760v502h1135v-218l-682 -1073l-216 111l619 962h-641v-284h-215z" />
    <glyph glyph-name="eight" unicode="8" horiz-adv-x="1374" 
d="M96 369q0 100 58.5 176t144.5 127q-145 100 -145 246q0 98 65.5 186t187 142t281.5 54q166 0 295 -55t198.5 -145t69.5 -193q0 -90 -48 -160.5t-122 -119.5q199 -107 199 -269q0 -100 -67.5 -188t-195.5 -142.5t-302 -54.5q-199 0 -338 55.5t-210 145.5t-71 195zM350 395
q0 -59 50.5 -107t135.5 -75t185 -27q127 0 215 45t88 125q0 51 -39 83t-102.5 49.5t-186.5 41.5q-123 23 -229 60q-117 -98 -117 -195zM406 918q0 -72 72.5 -106t226.5 -67q123 -25 190 -47q104 94 104 183q0 92 -88 148t-229 56q-111 0 -193.5 -44t-82.5 -123z" />
    <glyph glyph-name="nine" unicode="9" horiz-adv-x="1292" 
d="M78 852q0 127 69.5 228.5t190.5 159.5t266 58q168 0 307.5 -76.5t220 -216t80.5 -321.5q0 -199 -86 -360.5t-242.5 -256t-361.5 -94.5q-225 0 -418 109l82 199q158 -92 324 -93q162 0 279.5 97.5t152.5 261.5q-96 -51 -186 -77t-197 -26q-125 0 -235.5 46.5t-178 138.5
t-67.5 223zM334 862q0 -100 75.5 -156.5t192.5 -56.5q180 0 352 76q-10 109 -61 189.5t-129 123.5t-166 43q-115 0 -188.5 -60t-75.5 -159z" />
    <glyph glyph-name="colon" unicode=":" horiz-adv-x="677" 
d="M145 127q0 70 55.5 115t137.5 45q84 0 138 -45t54 -115q0 -68 -54 -111t-138 -43q-82 0 -137.5 43t-55.5 111zM145 827q0 68 56.5 114t136.5 46q84 0 138 -45t54 -115q0 -68 -54 -110.5t-138 -42.5q-82 0 -137.5 43t-55.5 110z" />
    <glyph glyph-name="semicolon" unicode=";" horiz-adv-x="694" 
d="M152 123q0 70 52 116t130 46q96 0 155.5 -65.5t59.5 -164.5q0 -209 -283 -458l-67 67q88 92 141 171t72 153q-49 -12 -95 -13q-72 0 -118.5 41t-46.5 107zM152 827q0 68 56 114t136 46q84 0 138.5 -46t54.5 -114t-54.5 -110.5t-138.5 -42.5q-82 0 -137 43t-55 110z" />
    <glyph glyph-name="less" unicode="&#x3c;" horiz-adv-x="1075" 
d="M43 604v62l924 555v-246l-586 -342l586 -336v-248z" />
    <glyph glyph-name="equal" unicode="=" horiz-adv-x="1253" 
d="M133 336v219h983v-219h-983zM133 717v219h983v-219h-983z" />
    <glyph glyph-name="greater" unicode="&#x3e;" horiz-adv-x="1075" 
d="M111 49v248l585 340l-585 338v246l923 -553v-62z" />
    <glyph glyph-name="question" unicode="?" horiz-adv-x="972" 
d="M84 1352q190 82 395 82q129 0 234.5 -43t168 -124t62.5 -188q0 -123 -84 -209t-237 -168q-121 -63 -165 -89.5t-68.5 -54.5t-24.5 -64q0 -23 8 -52.5t18 -58.5l-86 -29q-68 94 -95.5 147.5t-27.5 110.5q0 80 62.5 133.5t204.5 124.5q117 55 165 97.5t48 103.5
q0 59 -58.5 99t-146.5 40q-74 0 -144.5 -17t-152.5 -52zM221 117q0 66 52.5 106.5t127.5 40.5q80 0 130.5 -41t50.5 -106q0 -61 -51.5 -102.5t-129.5 -41.5q-73 0 -126.5 41t-53.5 103z" />
    <glyph glyph-name="at" unicode="@" horiz-adv-x="1937" 
d="M84 469q0 270 126 474t336 313.5t455 109.5q252 0 448 -111.5t302.5 -293t106.5 -379.5q0 -164 -54.5 -281t-143.5 -176t-192 -59q-90 0 -157.5 39.5t-104.5 107.5q-80 -74 -179 -117t-200 -43q-117 0 -202.5 64.5t-85.5 187.5q0 125 107.5 194.5t254.5 69.5
q133 0 266 -41v60q0 68 -56 101.5t-142 33.5q-158 0 -336 -80l-45 166q111 47 211 70.5t209 23.5q180 0 276 -85t96 -238v-199q0 -80 34 -126t93 -46q51 0 97.5 41t75 125t28.5 207q0 170 -90 322.5t-252 245.5t-365 93q-209 0 -386 -101.5t-280.5 -279.5t-103.5 -397
q0 -207 94.5 -370t249 -254t326.5 -91q125 0 235.5 36t182.5 87l55 -117q-74 -55 -196.5 -93t-272.5 -38q-207 0 -395 98.5t-307 290t-119 455.5zM776 315q0 -86 117 -86q55 0 130 25t146 72q-2 10 -2 32v31q-109 27 -211 27q-180 0 -180 -101z" />
    <glyph glyph-name="A" unicode="A" horiz-adv-x="1724" 
d="M16 0v215h193l416 977h-176v213h821v-213h-178l419 -977h197v-215h-694v215h215l-103 266h-559l-102 -266h235v-215h-684zM641 674h412l-201 518h-10z" />
    <glyph glyph-name="B" unicode="B" horiz-adv-x="1550" 
d="M72 0v215h245v975h-245v215h807q229 0 353 -102.5t124 -270.5q0 -102 -50.5 -178t-136.5 -123q295 -78 295 -340q0 -186 -141 -288.5t-408 -102.5h-843zM584 215h311q297 0 297 197q0 100 -72.5 146t-214.5 48h-321v-391zM584 801h229q272 0 272 198q0 100 -64.5 145.5
t-158.5 45.5h-278v-389z" />
    <glyph glyph-name="C" unicode="C" horiz-adv-x="1550" 
d="M86 698q0 213 94 381t253 261.5t343 93.5q264 0 428 -177v148h244v-473l-176 -17q-63 139 -176 221.5t-279 82.5q-117 0 -220 -62.5t-165.5 -180.5t-62.5 -274q0 -143 61.5 -258.5t168 -182t235.5 -66.5q160 0 269 68.5t197 197.5l177 -144q-109 -160 -269.5 -252
t-373.5 -92q-207 0 -378 94.5t-270.5 260.5t-99.5 370z" />
    <glyph glyph-name="D" unicode="D" horiz-adv-x="1673" 
d="M72 0v215h245v975h-245v215h694q215 0 402.5 -77t303 -234.5t115.5 -391.5q0 -231 -115.5 -389.5t-303 -235.5t-402.5 -77h-694zM590 215h147q238 0 403 110.5t165 376.5t-165 377t-403 111h-147v-975z" />
    <glyph glyph-name="E" unicode="E" horiz-adv-x="1634" 
d="M72 0v215h243v975h-243v215h1419v-487h-238v272h-671v-395h270v176h203v-547h-203v176h-270v-385h671v272h238v-487h-1419z" />
    <glyph glyph-name="F" unicode="F" horiz-adv-x="1513" 
d="M72 0v215h245v975h-245v215h1372v-502h-240v287h-620v-410h256v176h202v-546h-202v176h-256v-371h264v-215h-776z" />
    <glyph glyph-name="G" unicode="G" horiz-adv-x="1619" 
d="M82 702q0 205 93 372t253 263.5t350 96.5q143 0 262 -46.5t207 -130.5v148h238v-453l-174 -12q-70 121 -187.5 200t-279.5 79q-133 0 -242.5 -62.5t-173 -179.5t-63.5 -275q0 -150 62 -265t173 -179.5t250 -64.5q233 0 391 114v230h-414v202h658v-549
q-109 -96 -276 -157.5t-359 -61.5q-229 0 -404.5 94.5t-269.5 261.5t-94 375z" />
    <glyph glyph-name="H" unicode="H" horiz-adv-x="1900" 
d="M72 0v215h245v975h-245v215h764v-215h-246v-373h723v373h-246v215h764v-215h-246v-975h246v-215h-764v215h246v399h-723v-399h246v-215h-764z" />
    <glyph glyph-name="I" unicode="I" horiz-adv-x="907" 
d="M72 0v215h245v975h-245v215h766v-215h-248v-975h248v-215h-766z" />
    <glyph glyph-name="J" unicode="J" horiz-adv-x="1169" 
d="M6 123l113 186q153 -114 287 -114h2q109 0 172 65.5t63 206.5l-4 723h-354v215h870v-215h-242v-733q0 -150 -63.5 -259.5t-174 -167t-245.5 -57.5q-129 0 -241.5 43t-182.5 107z" />
    <glyph glyph-name="K" unicode="K" horiz-adv-x="1765" 
d="M72 0v215h245v975h-245v215h749v-215h-231v-543l655 543h-213v215h682v-215h-168l-483 -399l526 -576h160v-215h-686v215h182l-371 420l-284 -234v-186h231v-215h-749z" />
    <glyph glyph-name="L" unicode="L" horiz-adv-x="1490" 
d="M72 0v215h245v975h-245v215h762v-215h-246v-975h569v324h256v-539h-1341z" />
    <glyph glyph-name="M" unicode="M" horiz-adv-x="2269" 
d="M72 0v215h245v975h-245v215h542l525 -1047l514 1047h547v-215h-246v-975h246v-215h-742v215h230v496q0 129 34 333l-520 -1052h-145l-516 1040q28 -198 28 -313v-8v-496h230v-215h-727z" />
    <glyph glyph-name="N" unicode="N" horiz-adv-x="1925" 
d="M72 0v215h245v975h-245v215h501l828 -950v735h-246v215h733v-215h-237v-1202l-142 -2l-936 1048v-819h242v-215h-743z" />
    <glyph glyph-name="O" unicode="O" horiz-adv-x="1667" 
d="M86 702q0 207 97.5 374t269.5 262.5t383 95.5q209 0 379.5 -95.5t268 -262.5t97.5 -374q0 -205 -97.5 -371.5t-268.5 -262t-379 -95.5q-213 0 -384 95.5t-268.5 261.5t-97.5 372zM369 702q0 -145 57 -259.5t162.5 -181t247.5 -66.5q135 0 240.5 66.5t162.5 183t57 257.5
q0 143 -57 260t-161.5 183.5t-241.5 66.5q-141 0 -247 -67.5t-163 -183t-57 -259.5z" />
    <glyph glyph-name="P" unicode="P" horiz-adv-x="1507" 
d="M72 0v215h245v975h-245v215h813q166 0 290.5 -54.5t194.5 -155.5t70 -237q0 -137 -68.5 -241.5t-193.5 -161.5t-291 -57h-303v-283h268v-215h-780zM584 717l288 -2q129 0 214 55t85 193q0 121 -87 174t-218 53h-282v-473z" />
    <glyph glyph-name="Q" unicode="Q" horiz-adv-x="1660" 
d="M86 702q0 207 97.5 374t269.5 262.5t383 95.5q209 0 379.5 -95.5t268 -262.5t97.5 -374q0 -197 -90 -359.5t-248 -256.5q98 -98 227 -98q74 0 119 12l33 -203q-97 -28 -182 -28h-6q-238 0 -420 223q-86 -18 -178 -19q-213 0 -384 95.5t-268.5 261.5t-97.5 372zM367 614
q25 -190 150.5 -309t316.5 -119q39 0 57 2l-21 41l-61 136q-68 137 -139.5 193t-204.5 56h-98zM369 811h96q195 0 327 -79t232 -286l66 -131l20 -41q92 70 143.5 181.5t51.5 246.5q0 147 -58.5 265t-165 186t-247.5 68q-187 0 -311 -114t-154 -296z" />
    <glyph glyph-name="R" unicode="R" horiz-adv-x="1632" 
d="M72 0v215h245v975h-245v215h827q248 0 394.5 -109.5t146.5 -302.5q0 -160 -93.5 -262t-265.5 -137l23 -64q55 -168 125.5 -238.5t159.5 -70.5q92 0 161 74l127 -176q-57 -66 -128.5 -107t-176.5 -41q-188 0 -314 132.5t-196 410.5l-20 66h-252v-367h239v-213h-757z
M590 780h317q109 0 186.5 54.5t77.5 158.5q0 96 -75.5 146.5t-188.5 50.5h-317v-410z" />
    <glyph glyph-name="S" unicode="S" horiz-adv-x="1454" 
d="M143 2v492l162 10q109 -143 265.5 -229.5t297.5 -86.5q94 0 153.5 38t59.5 108q0 78 -102 137t-348 125q-250 68 -365.5 177.5t-115.5 273.5q0 115 64.5 202.5t169.5 136t228 48.5q270 0 441 -183v154h237v-481l-153 -9q-76 147 -199 225.5t-260 78.5q-109 0 -177.5 -43
t-68.5 -117q0 -76 85 -129t288 -109q270 -76 414.5 -181t144.5 -280q0 -119 -61.5 -205.5t-171 -134t-246.5 -47.5q-262 0 -504 215v-186h-238z" />
    <glyph glyph-name="T" unicode="T" horiz-adv-x="1605" 
d="M66 903v502h1472v-502h-238v287h-360v-975h246v-215h-764v215h246v975h-365v-287h-237z" />
    <glyph glyph-name="U" unicode="U" horiz-adv-x="1816" 
d="M14 1190v215h744v-215h-226v-627q0 -106 48.5 -190t133.5 -131t193 -47q109 0 195 47t134 132t48 191l-4 625h-223v215h745v-215h-246v-641q0 -164 -83.5 -296t-231 -206t-334.5 -74q-190 0 -337.5 74t-228.5 205t-81 297v641h-246z" />
    <glyph glyph-name="V" unicode="V" horiz-adv-x="1712" 
d="M0 1190v215h711v-215h-203l364 -848l357 848h-230v215h713v-215h-223l-563 -1217h-140l-561 1217h-225z" />
    <glyph glyph-name="W" unicode="W" horiz-adv-x="2406" 
d="M4 1190v215h719v-215h-223l256 -776l374 962h154l402 -968l241 782h-227v215h702v-215h-215l-436 -1217h-139l-424 951l-393 -951h-138l-442 1217h-211z" />
    <glyph glyph-name="X" unicode="X" horiz-adv-x="1660" 
d="M27 0v215h194l438 475l-466 500h-166v215h708v-193h-207l320 -358l326 358h-209v193h669v-215h-198l-439 -469l463 -506h174v-215h-710v193h196l-311 364l-320 -364h201v-193h-663z" />
    <glyph glyph-name="Y" unicode="Y" horiz-adv-x="1640" 
d="M25 1190v215h659v-215h-166l334 -457l311 457h-205v215h660v-215h-191l-469 -625v-350h254v-215h-778v215h252v338l-485 637h-176z" />
    <glyph glyph-name="Z" unicode="Z" horiz-adv-x="1542" 
d="M127 903v502h1290v-186l-866 -940q-23 -27 -62.5 -44.5t-70.5 -23.5l4 -12q76 16 143 16h627v287h238v-502h-1299v186l862 936q25 25 65 44.5t68 27.5l-2 14q-66 -16 -143 -16h-616v-289h-238z" />
    <glyph glyph-name="bracketleft" unicode="[" horiz-adv-x="724" 
d="M233 -319v2048h465v-218h-233v-1615h233v-215h-465z" />
    <glyph glyph-name="backslash" unicode="\" horiz-adv-x="1071" 
d="M49 1516h230l757 -1731h-227z" />
    <glyph glyph-name="bracketright" unicode="]" horiz-adv-x="724" 
d="M29 -104h231v1615h-231v218h463v-2048h-463v215z" />
    <glyph glyph-name="asciicircum" unicode="^" horiz-adv-x="1128" 
d="M74 879l424 786h159l398 -786h-252l-230 512l-245 -512h-254z" />
    <glyph glyph-name="underscore" unicode="_" horiz-adv-x="860" 
d="M-27 -184h914v-215h-914v215z" />
    <glyph glyph-name="a" unicode="a" horiz-adv-x="1245" 
d="M92 276q0 102 57.5 176t150.5 112t198 38q90 0 163.5 -17.5t151.5 -49.5v75q0 82 -66.5 123t-171.5 41q-154 0 -372 -84l-51 195q248 104 458 104q215 0 331 -103.5t116 -285.5v-324q0 -79 58 -79h1q29 0 58 12l51 -182q-29 -18 -76 -30.5t-105 -12.5q-78 0 -136 44
t-81 124q-203 -180 -401 -181q-141 0 -237.5 79t-96.5 226zM346 291q0 -53 43 -81t107 -28q59 0 143 33t174 100v56q-125 47 -266 47q-84 -2 -142.5 -34t-58.5 -93z" />
    <glyph glyph-name="b" unicode="b" horiz-adv-x="1335" 
d="M4 1202v203h434v-625q80 98 179.5 154.5t201.5 56.5q119 0 221.5 -64.5t164 -180t61.5 -259.5q0 -145 -66.5 -264t-183.5 -185.5t-260 -66.5q-193 0 -348 156l-74 -127h-148v1202h-182zM438 289q131 -102 256 -103q135 0 219 84t84 219q0 125 -71.5 206t-188.5 81
q-74 0 -151.5 -49t-147.5 -137v-301z" />
    <glyph glyph-name="c" unicode="c" horiz-adv-x="1103" 
d="M68 483q0 139 66.5 256t178 184.5t240.5 67.5q98 0 168 -31.5t125 -93.5v99h180v-344l-108 -9q-104 170 -287 170q-129 0 -213 -83t-84 -212q0 -88 40 -155.5t106.5 -105.5t144.5 -40q92 0 164.5 34t148.5 99l109 -167q-92 -86 -207 -133.5t-246 -47.5q-141 0 -262 65.5
t-192.5 182.5t-71.5 264z" />
    <glyph glyph-name="d" unicode="d" horiz-adv-x="1339" 
d="M68 473q0 147 66.5 266t182 185.5t258.5 66.5q174 0 314 -121v332h-203v203h455v-1133q0 -77 56 -77h1q31 0 59 12l52 -184q-31 -16 -77 -28.5t-95 -12.5q-80 0 -139.5 37.5t-88.5 109.5q-174 -158 -366 -158q-125 0 -234.5 64.5t-175 179.5t-65.5 258zM334 473
q0 -127 74.5 -207t199.5 -80t281 123v369q-129 98 -250 98q-135 0 -220 -84t-85 -219z" />
    <glyph glyph-name="e" unicode="e" horiz-adv-x="1155" 
d="M68 461q0 160 77.5 279.5t206.5 185t275 65.5q127 0 226 -39t155.5 -109.5t56.5 -162.5t-56.5 -158.5t-147.5 -99.5t-195 -33q-98 0 -181.5 20.5t-171.5 57.5q2 -131 92.5 -206t223.5 -75q203 2 356 129l107 -168q-205 -176 -474 -176q-143 0 -269 57.5t-203.5 168
t-77.5 264.5zM344 606q127 -45 260 -45q92 2 148.5 33t56.5 86q0 49 -45 80t-119 31q-92 0 -175 -50.5t-126 -134.5z" />
    <glyph glyph-name="f" unicode="f" horiz-adv-x="894" 
d="M57 0v203h205v559h-205v203h205v129q0 188 115 297.5t303 109.5q94 0 174 -22.5t174 -65.5l-90 -196q-57 35 -110.5 52t-116.5 17q-90 0 -143.5 -53t-53.5 -133v-135h297v-203h-297v-559h272v-203h-729z" />
    <glyph glyph-name="g" unicode="g" horiz-adv-x="1171" 
d="M23 -160q0 106 112 201q-80 68 -80 164q0 141 150 235q-74 84 -74 199q0 111 67.5 190.5t172 120.5t211.5 41q119 0 217 -39q35 106 121 159.5t204 55.5v-209q-72 -2 -124 -17t-89 -52q123 -96 123 -244q0 -111 -67.5 -190.5t-172 -120.5t-212.5 -41q-147 0 -265 61
q-41 -45 -41 -88q0 -49 36 -71.5t98 -22.5q66 0 188 12q139 12 231 13q140 0 226 -69t86 -198q0 -113 -87 -196.5t-234.5 -128.5t-325.5 -45q-207 0 -339 73.5t-132 206.5zM314.5 -201.5q72.5 -34.5 213.5 -34.5q154 0 266.5 42t112.5 110q0 45 -32.5 63.5t-102.5 18.5
q-45 0 -160 -12q-143 -16 -252 -17q-47 0 -94 11q-24 -41 -24 -81q0 -66 72.5 -100.5zM381 639q0 -76 56.5 -122t146.5 -46q88 0 144 48t56 126q0 76 -56 122t-144 46q-90 0 -146.5 -48t-56.5 -126z" />
    <glyph glyph-name="h" unicode="h" horiz-adv-x="1486" 
d="M43 0v203h205v999h-205v203h461v-653q109 123 210 180t224 57q174 0 262 -113.5t88 -336.5v-336h178v-203h-600v203h166v334q0 104 -52 164.5t-149 60.5q-150 0 -327 -207v-352h166v-203h-627z" />
    <glyph glyph-name="i" unicode="i" horiz-adv-x="741" 
d="M57 0v203h205v559h-205v203h461v-762h207v-203h-668zM193 1288q0 63 51 104.5t127 41.5q80 0 130 -41t50 -105q0 -61 -50 -101t-130 -40q-76 0 -127 41t-51 100z" />
    <glyph glyph-name="j" unicode="j" horiz-adv-x="718" 
d="M-156 -432l64 213q57 -23 99 -33t91 -10q80 0 126 57.5t46 163.5v803h-202v203h458v-1000q0 -143 -54 -245.5t-148.5 -154.5t-214.5 -52q-72 0 -122 11t-88 24.5t-55 19.5zM203 1288q0 63 51 104.5t127 41.5q80 0 130 -41t50 -105q0 -61 -50 -101t-130 -40q-76 0 -127 41
t-51 100z" />
    <glyph glyph-name="k" unicode="k" horiz-adv-x="1421" 
d="M43 0v203h205v999h-205v203h457v-608q201 190 411 190q152 0 254.5 -78t102.5 -225q0 -115 -74 -192.5t-190 -112.5q18 -88 64 -136t101 -48q80 0 140 63l131 -147q-55 -68 -121 -104t-160 -36q-141 0 -239.5 102.5t-133.5 282.5q-145 10 -286 78v-231h176v-203h-633z
M500 596q143 -59 272 -59q96 0 162.5 34.5t66.5 98.5q0 55 -40.5 81.5t-118.5 26.5q-70 0 -159 -39t-183 -114v-29z" />
    <glyph glyph-name="l" unicode="l" horiz-adv-x="729" 
d="M43 0v203h205v999h-205v203h461v-1202h207v-203h-668z" />
    <glyph glyph-name="m" unicode="m" horiz-adv-x="2187" 
d="M57 0v203h205v559h-205v203h461v-199q86 109 188.5 166t215.5 57q117 0 197.5 -63.5t115.5 -184.5q88 119 194.5 183.5t225.5 64.5q156 0 245 -112.5t89 -323.5v-350h178v-203h-596v203h162v346q0 90 -44 145.5t-126 55.5q-154 0 -306 -185v-12v-350h162v-203h-585v203
h167v346q0 90 -45 145.5t-129 55.5q-76 0 -154.5 -48.5t-154.5 -142.5v-356h166v-203h-627z" />
    <glyph glyph-name="n" unicode="n" horiz-adv-x="1507" 
d="M57 0v203h205v559h-205v203h461v-222q111 125 212 185.5t218 60.5q176 0 269.5 -114.5t93.5 -335.5v-336h176v-203h-600v203h168v334q0 98 -52.5 155.5t-148.5 57.5q-156 0 -336 -205v-342h166v-203h-627z" />
    <glyph glyph-name="o" unicode="o" horiz-adv-x="1226" 
d="M68 481q0 150 75.5 266.5t200.5 180t268 63.5q139 0 265.5 -63.5t203 -180t76.5 -266.5t-74.5 -266.5t-199.5 -180t-271 -63.5q-143 0 -268 63.5t-200.5 180.5t-75.5 266zM336 481q0 -139 79 -223t199 -84q119 0 198 84t79 223t-79 223t-198 84q-121 0 -199.5 -83.5
t-78.5 -223.5z" />
    <glyph glyph-name="p" unicode="p" horiz-adv-x="1382" 
d="M29 -244h204v1006h-204v203h456v-185q80 98 179.5 154.5t201.5 56.5q119 0 221.5 -64.5t164 -180t61.5 -259.5q0 -145 -66.5 -264t-182.5 -185.5t-259 -66.5q-174 0 -320 127v-342h201v-202h-657v202zM485 289q131 -102 256 -103q138 0 220.5 84t82.5 219
q0 125 -71.5 206t-188.5 81q-76 0 -153.5 -48t-145.5 -136v-303z" />
    <glyph glyph-name="q" unicode="q" horiz-adv-x="1353" 
d="M68 473q0 150 71.5 268.5t194.5 184t272 65.5q152 0 322 -71l67 75h92v-157q127 -76 226 -172v-258q-89 88 -226 186v-838h205v-202h-686v202h230v324q-133 -109 -306 -109q-127 0 -233.5 64.5t-167.5 179.5t-61 258zM334 473q0 -123 75.5 -205t202.5 -82q111 0 224 82
v467q-106 41 -183 41q-137 0 -228 -84t-91 -219z" />
    <glyph glyph-name="r" unicode="r" horiz-adv-x="1142" 
d="M57 0v203h205v559h-205v203h461v-226q102 115 216 182.5t216 67.5h103v-430h-224v176q-59 0 -142 -52t-169 -146v-334h207v-203h-668z" />
    <glyph glyph-name="s" unicode="s" horiz-adv-x="1085" 
d="M80 709q0 78 43 142t121 102t180 38q190 0 321 -121v95h187v-316l-113 -10q-55 88 -142 137t-181 49q-66 0 -108 -24.5t-42 -63.5q0 -43 56.5 -74.5t197.5 -72.5q186 -53 285.5 -133t99.5 -209q0 -80 -47 -143.5t-129 -98.5t-182 -35q-102 0 -194.5 33t-164.5 94v-100
h-186v317l113 11q61 -78 173.5 -133.5t209.5 -55.5q68 0 104.5 23.5t36.5 64.5q0 45 -58.5 80t-207.5 76q-184 51 -278.5 128t-94.5 200z" />
    <glyph glyph-name="t" unicode="t" horiz-adv-x="909" 
d="M23 762v203h202v268h256v-268h295v-203h-295v-381q0 -90 41 -136t117 -46q51 0 96 16t101 49l88 -190q-74 -47 -152 -74t-176 -27q-172 0 -271.5 108.5t-99.5 301.5v379h-202z" />
    <glyph glyph-name="u" unicode="u" horiz-adv-x="1380" 
d="M10 762v203h434v-537q0 -102 43 -159.5t146 -57.5q135 0 291 172v379h-162v203h418v-693q0 -77 58 -77h1q33 0 57 10l54 -182q-82 -41 -172 -41q-100 0 -168 55t-82 156q-100 -111 -192.5 -165.5t-196.5 -54.5q-168 0 -259.5 115t-91.5 336v338h-178z" />
    <glyph glyph-name="v" unicode="v" horiz-adv-x="1327" 
d="M31 762v203h542v-183h-143l260 -506l250 506h-149v183h505v-203h-141l-422 -789h-137l-434 789h-131z" />
    <glyph glyph-name="w" unicode="w" horiz-adv-x="1818" 
d="M35 762v203h555v-183h-170l166 -471l276 627h150l268 -619l162 463h-166v183h510v-203h-133l-316 -789h-135l-293 609l-288 -609h-140l-309 789h-137z" />
    <glyph glyph-name="x" unicode="x" horiz-adv-x="1306" 
d="M68 -2v203h122l314 266l-314 295h-122v203h563v-183h-135l190 -184l201 184h-146v183h498v-203h-123l-311 -264l313 -297h121v-203h-561v182h135l-190 185l-201 -185h145v-182h-499z" />
    <glyph glyph-name="y" unicode="y" horiz-adv-x="1339" 
d="M23 -387l100 194q49 -31 95 -50t99 -19q88 0 155 53t122 176l2 6l-403 789h-140v203h559v-183h-149l250 -546l239 546h-141v183h498v-203h-129l-385 -842q-96 -209 -210 -308t-268 -99q-84 0 -149.5 25.5t-144.5 74.5z" />
    <glyph glyph-name="z" unicode="z" horiz-adv-x="1214" 
d="M53 55q51 150 135 251.5t166 156.5t213 127l127 74q-72 51 -161 80.5t-220 29.5v-215h-215v432h158q145 0 244.5 -24.5t171 -69.5t159.5 -123q68 84 97 221l215 -82q-35 -141 -94.5 -234t-142.5 -153.5t-208 -119.5q-135 -61 -217 -123q70 -49 129.5 -73t118.5 -24
q78 0 138.5 56.5t76.5 142.5l219 -61q-12 -109 -72.5 -189t-146.5 -122t-176 -42q-117 0 -208 48.5t-195 148.5q-59 -78 -103 -197z" />
    <glyph glyph-name="braceleft" unicode="{" horiz-adv-x="995" 
d="M135 602v189h115q133 0 201.5 36.5t68.5 116.5q0 43 -30.5 83t-94.5 101q-90 88 -138 158t-48 164q0 106 56.5 182t149.5 116t203 40q111 0 188 -18.5t173 -57.5l-72 -199q-72 29 -130 43.5t-124 14.5q-86 0 -142 -32t-56 -105q0 -41 28.5 -78t89.5 -92q59 -55 92 -92
t58 -89.5t25 -115.5q0 -109 -72 -177.5t-197 -93.5q125 -25 197 -94.5t72 -177.5q0 -90 -45.5 -155.5t-129.5 -139.5q-61 -55 -89.5 -92t-28.5 -80q0 -72 57 -104.5t141 -32.5q66 0 125.5 14t128.5 45l72 -201q-96 -39 -173 -57t-188 -18t-203.5 40t-149 115.5t-56.5 182.5
q0 92 48 162.5t138 156.5q66 66 95.5 104.5t29.5 81.5q0 162 -270 156h-115z" />
    <glyph glyph-name="bar" unicode="|" horiz-adv-x="735" 
d="M246 -395v2109h246v-2109h-246z" />
    <glyph glyph-name="braceright" unicode="}" horiz-adv-x="995" 
d="M14 -322l72 201q74 -29 132 -44t122 -15q84 0 140.5 32.5t56.5 104.5q0 43 -29 80t-90 92q-84 74 -129 139.5t-45 155.5q0 106 71.5 177t196.5 95q-123 25 -195.5 93.5t-72.5 177.5q0 63 24.5 115.5t57 89t92.5 92.5q61 55 90 92t29 78q0 74 -56.5 105.5t-140.5 31.5
q-66 0 -126 -14.5t-128 -43.5l-72 199q94 39 173 57.5t190 18.5t204 -40t148 -116t55 -182q0 -94 -47 -162.5t-137 -157.5q-63 -61 -94 -102t-31 -84q0 -164 268 -153h113v-189h-113q-133 0 -200.5 -37t-67.5 -119q0 -41 28.5 -78.5t94.5 -103.5q90 -90 138 -160.5
t48 -162.5q0 -106 -55 -182t-148.5 -116t-203.5 -40q-111 0 -189.5 18.5t-173.5 56.5z" />
    <glyph glyph-name="asciitilde" unicode="~" horiz-adv-x="1441" 
d="M111 418q2 219 87 364.5t265 145.5q100 0 175 -48.5t155 -142.5q72 -86 108.5 -118.5t75.5 -32.5q135 0 135 299l219 -4q-4 -221 -89 -365.5t-265 -144.5q-103 0 -179.5 50t-156.5 148q-74 84 -107.5 114t-70.5 30q-66 0 -100.5 -74t-36.5 -227z" />
    <glyph glyph-name="uni00A0" unicode="&#xa0;" horiz-adv-x="849" 
 />
    <glyph glyph-name="exclamdown" unicode="&#xa1;" horiz-adv-x="741" 
d="M178 1307q0 68 54.5 110.5t140.5 42.5q80 0 135 -43t55 -110q0 -70 -55 -115t-135 -45q-86 0 -140.5 45t-54.5 115zM184 70q0 31 9.5 86t23.5 118q59 256 74 449l26 307h105l27 -307q20 -160 69 -397q16 -80 28.5 -150t12.5 -106q0 -78 -46 -130.5t-142 -52.5
q-94 0 -140.5 52.5t-46.5 130.5z" />
    <glyph glyph-name="cent" unicode="&#xa2;" horiz-adv-x="1171" 
d="M96 635q0 131 61.5 238.5t165 172t222.5 76.5v176h198v-196q76 -27 136 -86v90h180v-344l-127 -2q-76 125 -201 158v-568q66 12 121 47t113 90l120 -170q-71 -65 -153 -107t-189 -56v-181h-198v183q-119 18 -220.5 78.5t-165 163t-63.5 237.5zM354 635q0 -98 55.5 -175
t147.5 -104v557q-88 -27 -145.5 -101.5t-57.5 -176.5z" />
    <glyph glyph-name="sterling" unicode="&#xa3;" horiz-adv-x="1388" 
d="M133 -27v211h70q82 0 154.5 39t72.5 123q0 16 -4 49h-289v148h232l-27 53q-14 20 -23 41h-180v149h117q-16 55 -16 107q0 123 56 215t154.5 141t223.5 49q217 0 383 -135v107h217v-404l-129 -10q-90 129 -202 184.5t-218 55.5q-100 0 -168 -53.5t-68 -149.5
q0 -45 21 -107h522v-149h-450q41 -78 49 -94h399v-148h-344q8 -31 8 -65q0 -23 -2 -35q152 -109 273 -109q160 0 206 201l191 -61q-29 -162 -135.5 -257.5t-263.5 -95.5q-86 0 -175.5 42t-169.5 110q-61 -72 -167.5 -112t-247.5 -40h-70z" />
    <glyph glyph-name="currency" unicode="&#xa4;" horiz-adv-x="1140" 
d="M98 172l174 209q-94 104 -94 242q0 141 92 243l-172 207l103 94l180 -217q86 45 186 45q104 0 195 -45l180 217l100 -94l-174 -209q86 -98 86 -241q0 -140 -88 -240l176 -211l-100 -92l-180 219q-88 -47 -195 -47q-96 0 -186 45l-180 -217zM381 625q0 -82 54 -139.5
t130 -57.5q80 0 133.5 57.5t53.5 139.5q0 86 -52.5 139t-134.5 53q-78 0 -131 -54t-53 -138z" />
    <glyph glyph-name="yen" unicode="&#xa5;" horiz-adv-x="1755" 
d="M123 1057v213h627v-213h-158l305 -404l283 404h-160v213h612v-213h-202l-179 -234h308v-135h-410l-92 -121h502v-137h-549v-215h258v-215h-779v215h261v215h-551v137h493l-98 121h-395v135h286l-188 234h-174z" />
    <glyph glyph-name="brokenbar" unicode="&#xa6;" horiz-adv-x="735" 
d="M246 -395v893h246v-893h-246zM246 823v891h246v-891h-246z" />
    <glyph glyph-name="section" unicode="&#xa7;" horiz-adv-x="1554" 
d="M82 391q0 244 324 357q-172 131 -173 301q0 113 57.5 200.5t157 136t222.5 48.5q260 0 448 -189v160h240v-481l-152 -9q-84 129 -228 216.5t-278 87.5q-84 0 -133 -39t-49 -103q0 -72 91 -126t302 -113q276 -78 424 -185.5t148 -279.5q0 -244 -324 -355
q172 -135 172 -303q0 -113 -56 -199.5t-156.5 -135t-225.5 -48.5q-256 0 -444 189v-160h-244v479l153 8q88 -129 230.5 -215t275.5 -86q84 0 135.5 39t51.5 103q0 70 -90.5 123t-303.5 116q-279 78 -427 184.5t-148 278.5zM367 455q0 -63 46 -108.5t133 -79.5t240 -74
q135 -39 232 -89q184 68 184 205q0 66 -47 110t-135 78.5t-242 75.5q-127 37 -229 86q-182 -68 -182 -204z" />
    <glyph glyph-name="copyright" unicode="&#xa9;" horiz-adv-x="2093" 
d="M84 477q0 264 126 475t345 331t489 120q273 0 494 -120t347 -331t126 -475q0 -262 -126 -473t-347 -330.5t-494 -119.5q-268 0 -488 119.5t-346 330.5t-126 473zM238 477q0 -223 104 -403t288.5 -283.5t413.5 -103.5q232 0 416.5 103.5t288.5 283.5t102 403
q2 223 -102 403.5t-288.5 284t-416.5 103.5q-229 0 -413.5 -103.5t-288.5 -284t-104 -403.5zM563 457q0 135 60.5 238.5t162 159.5t222.5 56q178 -2 284 -112v100h164v-326l-137 -8q-86 178 -266 178q-74 0 -136.5 -35.5t-100.5 -101t-38 -149.5q0 -76 39 -135.5t101.5 -92
t134.5 -32.5q88 0 157.5 39.5t135.5 115.5l118 -137q-166 -207 -415 -207q-133 0 -245 56.5t-176.5 158t-64.5 234.5z" />
    <glyph glyph-name="ordfeminine" unicode="&#xaa;" horiz-adv-x="876" 
d="M98 1008q0 84 69 134t163 50q88 0 192 -29v41q0 47 -36.5 71.5t-96.5 24.5q-98 0 -229 -55l-35 115q80 35 145.5 51t137.5 16q129 0 196.5 -60t67.5 -167v-219q0 -43 35 -43q29 0 28 45v72h82v-72q0 -68 -41 -107.5t-100 -39.5q-55 0 -92 23.5t-52 64.5
q-117 -94 -229 -95q-84 0 -144.5 46.5t-60.5 132.5zM117 571v115h665v-115h-665zM264 1012q0 -29 21.5 -45.5t60.5 -16.5q78 0 176 70v45q-74 16 -153 16q-43 0 -74 -17t-31 -52z" />
    <glyph glyph-name="guillemotleft" unicode="&#xab;" horiz-adv-x="1712" 
d="M98 389v221h27q238 0 398.5 114t217.5 327l197 -74q-53 -201 -204.5 -324t-401.5 -153q250 -31 401.5 -153t208.5 -322l-197 -74q-59 213 -219.5 325.5t-398.5 112.5h-29zM791 389v221h26q248 0 402.5 112t214.5 329l196 -74q-53 -201 -204.5 -324t-401.5 -153
q250 -31 401.5 -153t206.5 -322l-196 -74q-121 438 -619 438h-26z" />
    <glyph glyph-name="logicalnot" unicode="&#xac;" horiz-adv-x="1277" 
d="M94 715v217h1071v-719h-217v502h-854z" />
    <glyph glyph-name="uni00AD" unicode="&#xad;" 
d="M55 375v219h539v-219h-539z" />
    <glyph glyph-name="registered" unicode="&#xae;" horiz-adv-x="2093" 
d="M84 477q0 264 126 475t345 331t489 120q273 0 494 -120t347 -331t126 -475q0 -262 -126 -473t-347 -330.5t-494 -119.5q-268 0 -488 119.5t-346 330.5t-126 473zM238 477q0 -223 104 -403t288.5 -283.5t413.5 -103.5q232 0 416.5 103.5t288.5 283.5t102 403
q2 223 -102 403.5t-288.5 284t-416.5 103.5q-229 0 -413.5 -103.5t-288.5 -284t-104 -403.5zM575 31v139h144v584h-144v143h555q154 0 237 -67.5t83 -178.5q0 -90 -66.5 -162.5t-187.5 -91.5q49 -33 86 -110q31 -68 46 -89.5t44 -21.5t44.5 19.5t15.5 50.5v43h167v-43
q0 -98 -59 -164t-160 -66q-102 0 -160.5 61.5t-99.5 166.5q-53 129 -106 149h-119v-223h147v-139h-467zM895 539h235q55 0 95.5 28.5t40.5 83.5q0 49 -39 76t-97 27h-235v-215z" />
    <glyph glyph-name="degree" unicode="&#xb0;" horiz-adv-x="911" 
d="M104 1317q0 96 48.5 174t130.5 121t176 43q98 0 178 -43t126 -121t46 -176q0 -94 -46 -172t-126 -123t-178 -45q-94 0 -176 45t-130.5 124t-48.5 173zM287 1317q0 -74 50 -128t120 -54q71 0 119.5 52t48.5 128q0 78 -47.5 129t-120.5 51q-72 0 -121 -51t-49 -127z" />
    <glyph glyph-name="plusminus" unicode="&#xb1;" horiz-adv-x="1208" 
d="M190 100v215h818v-215h-818zM190 733v217h299v262h220v-262h309v-217h-309v-262h-220v262h-299z" />
    <glyph glyph-name="uni00B2" unicode="&#xb2;" horiz-adv-x="774" 
d="M43 1473q74 66 165 107.5t189 41.5q119 0 202 -60.5t83 -162.5q0 -88 -65.5 -140.5t-213.5 -115.5q-102 -43 -147 -75t-51 -77h366v125h131v-256h-657v125q6 98 80 165t211 116q113 43 149.5 68.5t36.5 62.5q0 41 -36.5 67.5t-104.5 26.5q-119 0 -258 -117z" />
    <glyph glyph-name="uni00B3" unicode="&#xb3;" horiz-adv-x="747" 
d="M29 944l73 117q57 -39 128 -64.5t139 -25.5q63 0 105 21.5t42 62.5q0 49 -57.5 71.5t-186.5 22.5h-100v129h100q104 0 159.5 27.5t55.5 78.5q0 41 -35.5 66t-91.5 25q-104 0 -233 -107l-88 107q57 57 145 96t183 39q127 0 209.5 -56.5t82.5 -154.5q0 -59 -43 -105.5
t-116 -72.5q190 -40 190 -183q0 -88 -91 -145t-232 -57q-109 0 -190 30.5t-148 77.5z" />
    <glyph glyph-name="mu" unicode="&#xb5;" horiz-adv-x="1404" 
d="M29 750v215h452v-537q0 -102 42 -159.5t145 -57.5q127 0 282 168v586h256v-693q0 -78 62 -77q35 0 53 12l55 -184q-82 -41 -172 -41q-94 0 -159.5 49t-86.5 139q-76 -96 -152.5 -146.5t-166.5 -50.5q-139 0 -207 84l12 -61q14 -66 25.5 -131.5t11.5 -114.5v-196h-250
v1196h-202z" />
    <glyph glyph-name="paragraph" unicode="&#xb6;" horiz-adv-x="1687" 
d="M43 915q0 150 77 269t212 184.5t303 65.5q170 0 335 -58.5t298 -152.5v182h233v-1385q0 -180 -75.5 -299.5t-194.5 -176t-250 -56.5q-152 0 -298 46t-288 118l90 207q168 -96 338 -129v729q-109 -49 -225 -49q-147 0 -274 63.5t-204 178t-77 263.5zM328 915
q0 -133 90 -208.5t221 -77.5q108 -1 184 30v541q-96 20 -176 21q-84 0 -157.5 -39t-117.5 -108.5t-44 -158.5zM1053 -272q94 26 154.5 98t60.5 194v957q-113 88 -215 137v-1386z" />
    <glyph glyph-name="periodcentered" unicode="&#xb7;" horiz-adv-x="606" 
d="M111 672q0 68 56 113.5t136 45.5q86 0 140.5 -45t54.5 -114q0 -68 -54.5 -111t-140.5 -43q-80 0 -136 44t-56 110z" />
    <glyph glyph-name="uni00B9" unicode="&#xb9;" horiz-adv-x="622" 
d="M70 1450q70 10 122 52t70 106h182v-602h121v-146h-473v146h170v376q-55 -70 -137 -86z" />
    <glyph glyph-name="ordmasculine" unicode="&#xba;" horiz-adv-x="858" 
d="M96 1128q0 88 44 157t120 107t164 38t167 -38t126 -106.5t47 -157.5q0 -133 -96.5 -216t-239.5 -83q-90 0 -166 37t-121 105.5t-45 156.5zM125 571v115h612v-115h-612zM264 1128q0 -78 46 -125t120 -47q72 0 119 47.5t47 124.5q0 76 -47 125.5t-119 49.5t-119 -49.5
t-47 -125.5z" />
    <glyph glyph-name="guillemotright" unicode="&#xbb;" horiz-adv-x="1712" 
d="M78 975l198 72q57 -215 217 -328t400 -113h29v-217h-27q-233 0 -396 -123t-220 -338l-197 70q55 207 211 338t409 162q-258 27 -413.5 149.5t-210.5 327.5zM770 975l197 72q57 -213 218 -327t400 -114h29v-217h-27q-233 0 -396 -123t-220 -338l-199 70q57 207 213 338
t410 162q-258 27 -414 149.5t-211 327.5z" />
    <glyph glyph-name="onequarter" unicode="&#xbc;" horiz-adv-x="1720" 
d="M70 1139q70 10 122 52t70 105h182v-602h121v-145h-473v145h170v377q-55 -70 -137 -86zM447 -145l391 817l340 837l170 -67l-389 -815l-340 -842zM923 125v147l451 480h186v-480h144v-147h-144v-152h-182v152h-455zM1093 272h285v295z" />
    <glyph glyph-name="onehalf" unicode="&#xbd;" horiz-adv-x="1816" 
d="M70 1139q70 10 122 52t70 105h182v-602h121v-145h-473v145h170v377q-55 -70 -137 -86zM447 -145l391 817l340 837l170 -67l-389 -815l-340 -842zM1091 612q74 66 165 108t189 42q119 0 202 -60.5t83 -162.5q0 -88 -65.5 -140.5t-212.5 -115.5q-102 -43 -147.5 -75
t-51.5 -77h367v125h131v-256h-658v125q6 98 80 164.5t211 116.5q113 43 149.5 68.5t36.5 62.5q0 41 -36.5 67.5t-104.5 26.5q-119 0 -258 -117z" />
    <glyph glyph-name="threequarters" unicode="&#xbe;" horiz-adv-x="1763" 
d="M29 633l73 119q55 -41 126 -67t141 -26q66 0 106.5 21.5t40.5 62.5q0 49 -58.5 72t-185.5 23h-100v131h100q104 0 159.5 26.5t55.5 75.5q0 41 -35.5 66.5t-91.5 25.5q-104 0 -233 -106l-88 106q57 57 145 96t183 39q127 0 209.5 -57t82.5 -156q0 -59 -44 -105t-117 -71
q192 -41 192 -184q0 -88 -92 -145.5t-231 -57.5q-186 0 -338 111zM490 -145l391 817l340 837l170 -67l-389 -815l-340 -842zM966 125v147l451 480h186v-480h144v-147h-144v-152h-182v152h-455zM1136 272h285v295z" />
    <glyph glyph-name="questiondown" unicode="&#xbf;" horiz-adv-x="1056" 
d="M113 330q0 123 84 209t237 168q121 63 165 89.5t68.5 54.5t24.5 64q0 23 -8 52.5t-18 58.5l86 29q66 -92 94 -146.5t28 -111.5q0 -80 -62 -133.5t-204 -124.5q-117 -55 -165 -97.5t-48 -103.5q0 -59 58.5 -99t146.5 -40q74 0 144.5 17t152.5 52l76 -211
q-190 -82 -395 -82q-129 0 -234.5 43t-168 124t-62.5 188zM475 1292q0 61 51.5 102.5t128.5 41.5q74 0 127.5 -41t53.5 -103q0 -66 -52.5 -106.5t-128.5 -40.5q-80 0 -130 41t-50 106z" />
    <glyph glyph-name="Agrave" unicode="&#xc0;" horiz-adv-x="1724" 
d="M16 0v215h193l416 977h-176v213h821v-213h-178l419 -977h197v-215h-694v215h215l-103 266h-559l-102 -266h235v-215h-684zM537 1810l459 -274l69 98l-397 365zM641 674h412l-201 518h-10z" />
    <glyph glyph-name="Aacute" unicode="&#xc1;" horiz-adv-x="1724" 
d="M16 0v215h193l416 977h-176v213h821v-213h-178l419 -977h197v-215h-694v215h215l-103 266h-559l-102 -266h235v-215h-684zM641 674h412l-201 518h-10zM641 1634l69 -98l459 274l-133 189z" />
    <glyph glyph-name="Acircumflex" unicode="&#xc2;" horiz-adv-x="1724" 
d="M16 0v215h193l416 977h-176v213h821v-213h-178l419 -977h197v-215h-694v215h215l-103 266h-559l-102 -266h235v-215h-684zM486 1610l305 356h129l305 -356l-80 -74l-293 229l-286 -229zM641 674h412l-201 518h-10z" />
    <glyph glyph-name="Atilde" unicode="&#xc3;" horiz-adv-x="1724" 
d="M16 0v215h193l416 977h-176v213h821v-213h-178l419 -977h197v-215h-694v215h215l-103 266h-559l-102 -266h235v-215h-684zM412 1587q2 137 66.5 231.5t177.5 94.5q76 0 125 -32t108 -97q45 -51 71.5 -72.5t55.5 -21.5q86 0 100 190l146 -12q-2 -137 -66.5 -230.5
t-179.5 -93.5q-72 0 -122 33t-105 94q-47 55 -75 76.5t-58 21.5q-45 0 -67.5 -50t-31.5 -146zM641 674h412l-201 518h-10z" />
    <glyph glyph-name="Adieresis" unicode="&#xc4;" horiz-adv-x="1724" 
d="M16 0v215h193l416 977h-176v213h821v-213h-178l419 -977h197v-215h-694v215h215l-103 266h-559l-102 -266h235v-215h-684zM463 1731q0 55 46 94t109 39q66 0 109 -38t43 -95q0 -53 -43 -89t-109 -36q-63 0 -109 35.5t-46 89.5zM641 674h412l-201 518h-10zM929 1731
q0 55 45.5 94t106.5 39q66 0 111 -38t45 -95q0 -53 -45 -89t-111 -36q-61 0 -106.5 35.5t-45.5 89.5z" />
    <glyph glyph-name="Aring" unicode="&#xc5;" horiz-adv-x="1724" 
d="M16 0v215h193l416 977h-176v213h821v-213h-178l419 -977h197v-215h-694v215h215l-103 266h-559l-102 -266h235v-215h-684zM561 1817q0 82 40 147.5t107.5 101t145.5 35.5t145.5 -39t108.5 -104.5t41 -145.5q0 -82 -40 -147.5t-107.5 -101t-147.5 -35.5q-78 0 -144.5 39
t-107.5 104.5t-41 145.5zM641 674h412l-201 518h-10zM702 1817q0 -63 45 -109.5t107 -46.5q61 0 107 44t46 107t-46 109.5t-107 46.5q-63 0 -107.5 -43t-44.5 -108z" />
    <glyph glyph-name="AE" unicode="&#xc6;" horiz-adv-x="2471" 
d="M2 0v215h172l621 977h-172v213h1704v-477h-242v264h-809l106 -393h293v172h203v-547h-203v172h-239l104 -381h547v272h240v-487h-1309v215h250l-70 270h-588l-164 -270h203v-215h-647zM727 678h422l-125 487z" />
    <glyph glyph-name="Ccedilla" unicode="&#xc7;" horiz-adv-x="1550" 
d="M86 698q0 213 94 381t253 261.5t343 93.5q264 0 428 -177v148h244v-473l-176 -17q-63 139 -176 221.5t-279 82.5q-117 0 -220 -62.5t-165.5 -180.5t-62.5 -274q0 -143 61.5 -258.5t168 -182t235.5 -66.5q160 0 269 68.5t197 197.5l177 -144q-109 -159 -268.5 -251.5
t-372.5 -92.5l-48 -112q8 2 39 2q94 0 152.5 -51.5t58.5 -137.5q0 -100 -86 -162.5t-200 -62.5q-147 0 -301 109l71 118q123 -90 230 -90q55 0 90 24.5t35 63.5q0 41 -35 63.5t-90 22.5q-45 0 -115 -8l-14 19l88 211q-180 27 -321.5 126t-222.5 252.5t-81 337.5z" />
    <glyph glyph-name="Egrave" unicode="&#xc8;" horiz-adv-x="1634" 
d="M72 0v215h243v975h-243v215h1419v-487h-238v272h-671v-395h270v176h203v-547h-203v176h-270v-385h671v272h238v-487h-1419zM512 1810l459 -274l69 98l-397 365z" />
    <glyph glyph-name="Eacute" unicode="&#xc9;" horiz-adv-x="1634" 
d="M72 0v215h243v975h-243v215h1419v-487h-238v272h-671v-395h270v176h203v-547h-203v176h-270v-385h671v272h238v-487h-1419zM617 1634l69 -98l459 274l-133 189z" />
    <glyph glyph-name="Ecircumflex" unicode="&#xca;" horiz-adv-x="1634" 
d="M72 0v215h243v975h-243v215h1419v-487h-238v272h-671v-395h270v176h203v-547h-203v176h-270v-385h671v272h238v-487h-1419zM461 1610l305 356h129l305 -356l-80 -74l-293 229l-286 -229z" />
    <glyph glyph-name="Edieresis" unicode="&#xcb;" horiz-adv-x="1634" 
d="M72 0v215h243v975h-243v215h1419v-487h-238v272h-671v-395h270v176h203v-547h-203v176h-270v-385h671v272h238v-487h-1419zM439 1731q0 55 46 94t109 39q66 0 109 -38t43 -95q0 -53 -43 -89t-109 -36q-63 0 -109 35.5t-46 89.5zM905 1731q0 55 45.5 94t106.5 39
q66 0 111 -38t45 -95q0 -53 -45 -89t-111 -36q-61 0 -106.5 35.5t-45.5 89.5z" />
    <glyph glyph-name="Igrave" unicode="&#xcc;" horiz-adv-x="907" 
d="M72 0v215h245v975h-245v215h766v-215h-248v-975h248v-215h-766zM142 1810l459 -274l69 98l-397 365z" />
    <glyph glyph-name="Iacute" unicode="&#xcd;" horiz-adv-x="907" 
d="M72 0v215h245v975h-245v215h766v-215h-248v-975h248v-215h-766zM246 1634l69 -98l459 274l-133 189z" />
    <glyph glyph-name="Icircumflex" unicode="&#xce;" horiz-adv-x="907" 
d="M72 0v215h245v975h-245v215h766v-215h-248v-975h248v-215h-766zM90 1610l305 356h129l305 -356l-80 -74l-293 229l-286 -229z" />
    <glyph glyph-name="Idieresis" unicode="&#xcf;" horiz-adv-x="907" 
d="M68 1731q0 55 46 94t109 39q66 0 109 -38t43 -95q0 -53 -43 -89t-109 -36q-63 0 -109 35.5t-46 89.5zM72 0v215h245v975h-245v215h766v-215h-248v-975h248v-215h-766zM534 1731q0 55 45.5 94t106.5 39q66 0 111 -38t45 -95q0 -53 -45 -89t-111 -36q-61 0 -106.5 35.5
t-45.5 89.5z" />
    <glyph glyph-name="Eth" unicode="&#xd0;" horiz-adv-x="1673" 
d="M72 0v215h245v375h-225v219h225v381h-245v215h694q215 0 402.5 -77t303 -234.5t115.5 -391.5q0 -231 -115.5 -389.5t-303 -235.5t-402.5 -77h-694zM590 215h147q238 0 403 110.5t165 376.5t-165 377t-403 111h-147v-381h399v-219h-399v-375z" />
    <glyph glyph-name="Ntilde" unicode="&#xd1;" horiz-adv-x="1925" 
d="M72 0v215h245v975h-245v215h501l828 -950v735h-246v215h733v-215h-237v-1202l-142 -2l-936 1048v-819h242v-215h-743zM504 1581q2 137 66.5 231.5t177.5 94.5q76 0 125 -32t108 -97q45 -51 71.5 -72.5t55.5 -21.5q86 0 100 190l146 -12q-2 -137 -66.5 -230.5
t-179.5 -93.5q-72 0 -122 33t-105 94q-47 55 -75 76.5t-58 21.5q-45 0 -67.5 -50t-31.5 -146z" />
    <glyph glyph-name="Ograve" unicode="&#xd2;" horiz-adv-x="1667" 
d="M86 702q0 207 97.5 374t269.5 262.5t383 95.5q209 0 379.5 -95.5t268 -262.5t97.5 -374q0 -205 -97.5 -371.5t-268.5 -262t-379 -95.5q-213 0 -384 95.5t-268.5 261.5t-97.5 372zM369 702q0 -145 57 -259.5t162.5 -181t247.5 -66.5q135 0 240.5 66.5t162.5 183t57 257.5
q0 143 -57 260t-161.5 183.5t-241.5 66.5q-141 0 -247 -67.5t-163 -183t-57 -259.5zM516 1839l459 -274l69 98l-397 365z" />
    <glyph glyph-name="Oacute" unicode="&#xd3;" horiz-adv-x="1667" 
d="M86 702q0 207 97.5 374t269.5 262.5t383 95.5q209 0 379.5 -95.5t268 -262.5t97.5 -374q0 -205 -97.5 -371.5t-268.5 -262t-379 -95.5q-213 0 -384 95.5t-268.5 261.5t-97.5 372zM369 702q0 -145 57 -259.5t162.5 -181t247.5 -66.5q135 0 240.5 66.5t162.5 183t57 257.5
q0 143 -57 260t-161.5 183.5t-241.5 66.5q-141 0 -247 -67.5t-163 -183t-57 -259.5zM621 1663l69 -98l459 274l-133 189z" />
    <glyph glyph-name="Ocircumflex" unicode="&#xd4;" horiz-adv-x="1667" 
d="M86 702q0 207 97.5 374t269.5 262.5t383 95.5q209 0 379.5 -95.5t268 -262.5t97.5 -374q0 -205 -97.5 -371.5t-268.5 -262t-379 -95.5q-213 0 -384 95.5t-268.5 261.5t-97.5 372zM369 702q0 -145 57 -259.5t162.5 -181t247.5 -66.5q135 0 240.5 66.5t162.5 183t57 257.5
q0 143 -57 260t-161.5 183.5t-241.5 66.5q-141 0 -247 -67.5t-163 -183t-57 -259.5zM465 1639l305 356h129l305 -356l-80 -74l-293 229l-286 -229z" />
    <glyph glyph-name="Otilde" unicode="&#xd5;" horiz-adv-x="1667" 
d="M86 702q0 207 97.5 374t269.5 262.5t383 95.5q209 0 379.5 -95.5t268 -262.5t97.5 -374q0 -205 -97.5 -371.5t-268.5 -262t-379 -95.5q-213 0 -384 95.5t-268.5 261.5t-97.5 372zM369 702q0 -145 57 -259.5t162.5 -181t247.5 -66.5q135 0 240.5 66.5t162.5 183t57 257.5
q0 143 -57 260t-161.5 183.5t-241.5 66.5q-141 0 -247 -67.5t-163 -183t-57 -259.5zM391 1616q2 137 66.5 231.5t177.5 94.5q76 0 125 -32t108 -97q45 -51 71.5 -72.5t55.5 -21.5q86 0 100 190l146 -12q-2 -137 -66.5 -230.5t-179.5 -93.5q-72 0 -122 33t-105 94
q-47 55 -75 76.5t-58 21.5q-45 0 -67.5 -50t-31.5 -146z" />
    <glyph glyph-name="Odieresis" unicode="&#xd6;" horiz-adv-x="1667" 
d="M86 702q0 207 97.5 374t269.5 262.5t383 95.5q209 0 379.5 -95.5t268 -262.5t97.5 -374q0 -205 -97.5 -371.5t-268.5 -262t-379 -95.5q-213 0 -384 95.5t-268.5 261.5t-97.5 372zM369 702q0 -145 57 -259.5t162.5 -181t247.5 -66.5q135 0 240.5 66.5t162.5 183t57 257.5
q0 143 -57 260t-161.5 183.5t-241.5 66.5q-141 0 -247 -67.5t-163 -183t-57 -259.5zM443 1760q0 55 46 94t109 39q66 0 109 -38t43 -95q0 -53 -43 -89t-109 -36q-63 0 -109 35.5t-46 89.5zM909 1760q0 55 45.5 94t106.5 39q66 0 111 -38t45 -95q0 -53 -45 -89t-111 -36
q-61 0 -106.5 35.5t-45.5 89.5z" />
    <glyph glyph-name="multiply" unicode="&#xd7;" horiz-adv-x="1136" 
d="M143 907l156 152l268 -268l269 268l153 -158l-266 -266l266 -266l-151 -156l-269 268l-266 -268l-158 158l269 266z" />
    <glyph glyph-name="Oslash" unicode="&#xd8;" horiz-adv-x="1660" 
d="M86 702q0 207 97.5 374t269.5 262.5t383 95.5q88 0 186 -21l70 158h227l-100 -234q167 -96 264.5 -263t97.5 -372t-97.5 -371.5t-268.5 -262t-379 -95.5q-106 0 -203 25l-72 -158h-227l106 236q-166 94 -260 259t-94 367zM369 702q0 -131 48 -240.5t136 -176.5l395 915
q-55 12 -112 12q-142 0 -247.5 -67.5t-162.5 -183t-57 -259.5zM705 211q66 -16 131 -16q135 0 240.5 66.5t162.5 183t57 257.5q0 135 -51 247t-141 179z" />
    <glyph glyph-name="Ugrave" unicode="&#xd9;" horiz-adv-x="1816" 
d="M14 1190v215h744v-215h-226v-627q0 -106 48.5 -190t133.5 -131t193 -47q109 0 195 47t134 132t48 191l-4 625h-223v215h745v-215h-246v-641q0 -164 -83.5 -296t-231 -206t-334.5 -74q-190 0 -337.5 74t-228.5 205t-81 297v641h-246zM590 1816l459 -274l69 98l-397 365z
" />
    <glyph glyph-name="Uacute" unicode="&#xda;" horiz-adv-x="1816" 
d="M14 1190v215h744v-215h-226v-627q0 -106 48.5 -190t133.5 -131t193 -47q109 0 195 47t134 132t48 191l-4 625h-223v215h745v-215h-246v-641q0 -164 -83.5 -296t-231 -206t-334.5 -74q-190 0 -337.5 74t-228.5 205t-81 297v641h-246zM694 1640l69 -98l459 274l-133 189z
" />
    <glyph glyph-name="Ucircumflex" unicode="&#xdb;" horiz-adv-x="1816" 
d="M14 1190v215h744v-215h-226v-627q0 -106 48.5 -190t133.5 -131t193 -47q109 0 195 47t134 132t48 191l-4 625h-223v215h745v-215h-246v-641q0 -164 -83.5 -296t-231 -206t-334.5 -74q-190 0 -337.5 74t-228.5 205t-81 297v641h-246zM539 1616l305 356h129l305 -356
l-80 -74l-293 229l-286 -229z" />
    <glyph glyph-name="Udieresis" unicode="&#xdc;" horiz-adv-x="1816" 
d="M14 1190v215h744v-215h-226v-627q0 -106 48.5 -190t133.5 -131t193 -47q109 0 195 47t134 132t48 191l-4 625h-223v215h745v-215h-246v-641q0 -164 -83.5 -296t-231 -206t-334.5 -74q-190 0 -337.5 74t-228.5 205t-81 297v641h-246zM517 1737q0 55 46 94t109 39
q66 0 109 -38t43 -95q0 -53 -43 -89t-109 -36q-63 0 -109 35.5t-46 89.5zM983 1737q0 55 45.5 94t106.5 39q66 0 111 -38t45 -95q0 -53 -45 -89t-111 -36q-61 0 -106.5 35.5t-45.5 89.5z" />
    <glyph glyph-name="Yacute" unicode="&#xdd;" horiz-adv-x="1640" 
d="M25 1190v215h659v-215h-166l334 -457l311 457h-205v215h660v-215h-191l-469 -625v-350h254v-215h-778v215h252v338l-485 637h-176zM608 1607l69 -98l459 274l-133 189z" />
    <glyph glyph-name="Thorn" unicode="&#xde;" horiz-adv-x="1449" 
d="M72 0v215h235v977h-235v213h749v-193h-260v-178h402q206 0 332 -85t126 -249t-126 -248.5t-332 -84.5l-402 -5v-169h260v-193h-749zM561 551h361q229 -1 229 149q0 143 -229 144h-361v-293z" />
    <glyph glyph-name="germandbls" unicode="&#xdf;" horiz-adv-x="1544" 
d="M57 0v203h205v559h-205v203h205v75q0 227 139.5 344t395.5 117q162 0 291 -48t201.5 -131t72.5 -185q0 -104 -66.5 -171t-195.5 -135q-106 -55 -138 -78.5t-32 -60.5q0 -35 34.5 -51t153.5 -51l66 -19q174 -47 266 -117.5t92 -187.5q0 -135 -100.5 -215t-265.5 -80
q-88 0 -170 33t-148 94v-100h-192v317l112 9q55 -80 165 -133.5t196 -53.5q68 0 102.5 22.5t34.5 63.5q0 37 -35 55.5t-147 51.5q-10 2 -58 16q-190 57 -281 127t-91 186q0 104 60 170t187 129q102 55 143.5 90t41.5 80q0 70 -81 114t-216 44q-137 0 -211 -62.5t-74 -179.5
v-1044h-457z" />
    <glyph glyph-name="agrave" unicode="&#xe0;" horiz-adv-x="1245" 
d="M92 276q0 102 57.5 176t150.5 112t198 38q90 0 163.5 -17.5t151.5 -49.5v75q0 82 -66.5 123t-171.5 41q-154 0 -372 -84l-51 195q248 104 458 104q215 0 331 -103.5t116 -285.5v-324q0 -80 59 -79q29 0 58 12l51 -182q-29 -18 -76 -30.5t-105 -12.5q-78 0 -136 44
t-81 124q-203 -180 -401 -181q-141 0 -237.5 79t-96.5 226zM289 1396l459 -274l69 98l-397 365zM346 291q0 -53 43 -81t107 -28q59 0 143 33t174 100v56q-125 47 -266 47q-84 -2 -142.5 -34t-58.5 -93z" />
    <glyph glyph-name="aacute" unicode="&#xe1;" horiz-adv-x="1245" 
d="M92 276q0 102 57.5 176t150.5 112t198 38q90 0 163.5 -17.5t151.5 -49.5v75q0 82 -66.5 123t-171.5 41q-154 0 -372 -84l-51 195q248 104 458 104q215 0 331 -103.5t116 -285.5v-324q0 -80 59 -79q29 0 58 12l51 -182q-29 -18 -76 -30.5t-105 -12.5q-78 0 -136 44
t-81 124q-203 -180 -401 -181q-141 0 -237.5 79t-96.5 226zM346 291q0 -53 43 -81t107 -28q59 0 143 33t174 100v56q-125 47 -266 47q-84 -2 -142.5 -34t-58.5 -93zM393 1220l69 -98l459 274l-133 189z" />
    <glyph glyph-name="acircumflex" unicode="&#xe2;" horiz-adv-x="1245" 
d="M92 276q0 102 57.5 176t150.5 112t198 38q90 0 163.5 -17.5t151.5 -49.5v75q0 82 -66.5 123t-171.5 41q-154 0 -372 -84l-51 195q248 104 458 104q215 0 331 -103.5t116 -285.5v-324q0 -80 59 -79q29 0 58 12l51 -182q-29 -18 -76 -30.5t-105 -12.5q-78 0 -136 44
t-81 124q-203 -180 -401 -181q-141 0 -237.5 79t-96.5 226zM238 1196l305 356h129l305 -356l-80 -74l-293 229l-286 -229zM346 291q0 -53 43 -81t107 -28q59 0 143 33t174 100v56q-125 47 -266 47q-84 -2 -142.5 -34t-58.5 -93z" />
    <glyph glyph-name="atilde" unicode="&#xe3;" horiz-adv-x="1245" 
d="M92 276q0 102 57.5 176t150.5 112t198 38q90 0 163.5 -17.5t151.5 -49.5v75q0 82 -66.5 123t-171.5 41q-154 0 -372 -84l-51 195q248 104 458 104q215 0 331 -103.5t116 -285.5v-324q0 -80 59 -79q29 0 58 12l51 -182q-29 -18 -76 -30.5t-105 -12.5q-78 0 -136 44
t-81 124q-203 -180 -401 -181q-141 0 -237.5 79t-96.5 226zM164 1173q2 137 66.5 231.5t177.5 94.5q76 0 125 -32t108 -97q45 -51 71.5 -72.5t55.5 -21.5q86 0 100 190l146 -12q-2 -137 -66.5 -230.5t-179.5 -93.5q-72 0 -122 33t-105 94q-47 55 -75 76.5t-58 21.5
q-45 0 -67.5 -50t-31.5 -146zM346 291q0 -53 43 -81t107 -28q59 0 143 33t174 100v56q-125 47 -266 47q-84 -2 -142.5 -34t-58.5 -93z" />
    <glyph glyph-name="adieresis" unicode="&#xe4;" horiz-adv-x="1245" 
d="M92 276q0 102 57.5 176t150.5 112t198 38q90 0 163.5 -17.5t151.5 -49.5v75q0 82 -66.5 123t-171.5 41q-154 0 -372 -84l-51 195q248 104 458 104q215 0 331 -103.5t116 -285.5v-324q0 -80 59 -79q29 0 58 12l51 -182q-29 -18 -76 -30.5t-105 -12.5q-78 0 -136 44
t-81 124q-203 -180 -401 -181q-141 0 -237.5 79t-96.5 226zM216 1317q0 55 46 94t109 39q66 0 109 -38t43 -95q0 -53 -43 -89t-109 -36q-63 0 -109 35.5t-46 89.5zM346 291q0 -53 43 -81t107 -28q59 0 143 33t174 100v56q-125 47 -266 47q-84 -2 -142.5 -34t-58.5 -93z
M682 1317q0 55 45.5 94t106.5 39q66 0 111 -38t45 -95q0 -53 -45 -89t-111 -36q-61 0 -106.5 35.5t-45.5 89.5z" />
    <glyph glyph-name="aring" unicode="&#xe5;" horiz-adv-x="1245" 
d="M92 276q0 102 57.5 176t150.5 112t198 38q90 0 163.5 -17.5t151.5 -49.5v75q0 82 -66.5 123t-171.5 41q-154 0 -372 -84l-51 195q248 104 458 104q215 0 331 -103.5t116 -285.5v-324q0 -80 59 -79q29 0 58 12l51 -182q-29 -18 -76 -30.5t-105 -12.5q-78 0 -136 44
t-81 124q-203 -180 -401 -181q-141 0 -237.5 79t-96.5 226zM313 1403q0 82 40 147.5t107.5 101t145.5 35.5t145.5 -39t108.5 -104.5t41 -145.5q0 -82 -40 -147.5t-107.5 -101t-147.5 -35.5q-78 0 -144.5 39t-107.5 104.5t-41 145.5zM346 291q0 -53 43 -81t107 -28
q59 0 143 33t174 100v56q-125 47 -266 47q-84 -2 -142.5 -34t-58.5 -93zM454 1403q0 -63 45 -109.5t107 -46.5q61 0 107 44t46 107t-46 109.5t-107 46.5q-63 0 -107.5 -43t-44.5 -108z" />
    <glyph glyph-name="ae" unicode="&#xe6;" horiz-adv-x="1898" 
d="M92 276q0 102 57.5 176t150.5 112t198 38q90 0 162.5 -16.5t152.5 -46.5q-2 131 -65.5 183t-176.5 52q-150 0 -368 -84l-51 195q248 104 452 104q133 0 225.5 -51t135.5 -147q70 94 187.5 147t240.5 53q117 0 212 -38t150 -108.5t55 -162.5q0 -94 -56 -160.5t-147 -100.5
t-198 -34q-100 0 -183 18.5t-169 53.5q4 -123 93 -192.5t218 -69.5q203 0 365 127l102 -177q-92 -82 -215 -129t-266 -47t-269.5 62.5t-197.5 175.5q-113 -119 -224.5 -178.5t-236.5 -59.5q-141 0 -237.5 79t-96.5 226zM346 291q0 -53 43 -81t107 -28q65 0 154 37t184 111
q-8 29 -11 43q-131 45 -276 45q-84 -2 -142.5 -34t-58.5 -93zM1085 600q123 -41 261 -41q94 2 151 35t57 88q0 49 -45 80t-116 31q-97 0 -182 -52.5t-126 -140.5z" />
    <glyph glyph-name="ccedilla" unicode="&#xe7;" horiz-adv-x="1103" 
d="M68 483q0 139 66.5 256t178 184.5t240.5 67.5q98 0 168 -31.5t125 -93.5v99h180v-344l-108 -9q-104 170 -287 170q-129 0 -213 -83t-84 -212q0 -88 40 -155.5t106.5 -105.5t144.5 -40q92 0 164.5 34t148.5 99l109 -167q-92 -84 -203 -131.5t-236 -49.5l-47 -112q8 2 39 2
q94 0 152.5 -51.5t58.5 -137.5q0 -100 -86 -162.5t-201 -62.5q-147 0 -301 109l72 118q123 -90 229 -90q55 0 90 24.5t35 63.5q0 41 -34.5 63.5t-90.5 22.5q-45 0 -114 -8l-15 19l88 213q-117 25 -212 94t-149 174.5t-54 232.5z" />
    <glyph glyph-name="egrave" unicode="&#xe8;" horiz-adv-x="1155" 
d="M68 461q0 160 77.5 279.5t206.5 185t275 65.5q127 0 226 -39t155.5 -109.5t56.5 -162.5t-56.5 -158.5t-147.5 -99.5t-195 -33q-98 0 -181.5 20.5t-171.5 57.5q2 -131 92.5 -206t223.5 -75q203 2 356 129l107 -168q-205 -176 -474 -176q-143 0 -269 57.5t-203.5 168
t-77.5 264.5zM281 1402l459 -274l69 98l-397 365zM344 606q127 -45 260 -45q92 2 148.5 33t56.5 86q0 49 -45 80t-119 31q-92 0 -175 -50.5t-126 -134.5z" />
    <glyph glyph-name="eacute" unicode="&#xe9;" horiz-adv-x="1155" 
d="M68 461q0 160 77.5 279.5t206.5 185t275 65.5q127 0 226 -39t155.5 -109.5t56.5 -162.5t-56.5 -158.5t-147.5 -99.5t-195 -33q-98 0 -181.5 20.5t-171.5 57.5q2 -131 92.5 -206t223.5 -75q203 2 356 129l107 -168q-205 -176 -474 -176q-143 0 -269 57.5t-203.5 168
t-77.5 264.5zM344 606q127 -45 260 -45q92 2 148.5 33t56.5 86q0 49 -45 80t-119 31q-92 0 -175 -50.5t-126 -134.5zM385 1226l69 -98l459 274l-133 189z" />
    <glyph glyph-name="ecircumflex" unicode="&#xea;" horiz-adv-x="1155" 
d="M68 461q0 160 77.5 279.5t206.5 185t275 65.5q127 0 226 -39t155.5 -109.5t56.5 -162.5t-56.5 -158.5t-147.5 -99.5t-195 -33q-98 0 -181.5 20.5t-171.5 57.5q2 -131 92.5 -206t223.5 -75q203 2 356 129l107 -168q-205 -176 -474 -176q-143 0 -269 57.5t-203.5 168
t-77.5 264.5zM230 1202l305 356h129l305 -356l-80 -74l-293 229l-286 -229zM344 606q127 -45 260 -45q92 2 148.5 33t56.5 86q0 49 -45 80t-119 31q-92 0 -175 -50.5t-126 -134.5z" />
    <glyph glyph-name="edieresis" unicode="&#xeb;" horiz-adv-x="1155" 
d="M68 461q0 160 77.5 279.5t206.5 185t275 65.5q127 0 226 -39t155.5 -109.5t56.5 -162.5t-56.5 -158.5t-147.5 -99.5t-195 -33q-98 0 -181.5 20.5t-171.5 57.5q2 -131 92.5 -206t223.5 -75q203 2 356 129l107 -168q-205 -176 -474 -176q-143 0 -269 57.5t-203.5 168
t-77.5 264.5zM207 1323q0 55 46 94t109 39q66 0 109 -38t43 -95q0 -53 -43 -89t-109 -36q-63 0 -109 35.5t-46 89.5zM344 606q127 -45 260 -45q92 2 148.5 33t56.5 86q0 49 -45 80t-119 31q-92 0 -175 -50.5t-126 -134.5zM673 1323q0 55 45.5 94t106.5 39q66 0 111 -38
t45 -95q0 -53 -45 -89t-111 -36q-61 0 -106.5 35.5t-45.5 89.5z" />
    <glyph glyph-name="igrave" unicode="&#xec;" horiz-adv-x="741" 
d="M39 1370l459 -274l69 98l-397 365zM57 0v203h205v559h-205v203h461v-762h207v-203h-668z" />
    <glyph glyph-name="iacute" unicode="&#xed;" horiz-adv-x="741" 
d="M57 0v203h205v559h-205v203h461v-762h207v-203h-668zM144 1194l69 -98l459 274l-133 189z" />
    <glyph glyph-name="icircumflex" unicode="&#xee;" horiz-adv-x="741" 
d="M-12 1170l305 356h129l305 -356l-80 -74l-293 229l-286 -229zM57 0v203h205v559h-205v203h461v-762h207v-203h-668z" />
    <glyph glyph-name="idieresis" unicode="&#xef;" horiz-adv-x="741" 
d="M-34 1291q0 55 46 94t109 39q66 0 109 -38t43 -95q0 -53 -43 -89t-109 -36q-63 0 -109 35.5t-46 89.5zM57 0v203h205v559h-205v203h461v-762h207v-203h-668zM432 1291q0 55 45.5 94t106.5 39q66 0 111 -38t45 -95q0 -53 -45 -89t-111 -36q-61 0 -106.5 35.5t-45.5 89.5z
" />
    <glyph glyph-name="eth" unicode="&#xf0;" horiz-adv-x="1243" 
d="M53 391q0 125 66.5 228.5t180.5 163t251 59.5q197 0 342 -97q-51 242 -268 414l-154 -196l-156 116l150 191q-82 49 -227 119l94 213q147 -63 278 -148l156 199l152 -119l-150 -193q195 -159 300.5 -357t105.5 -425q0 -188 -82 -326.5t-219.5 -211t-299.5 -72.5
q-150 0 -267.5 56t-185 157.5t-67.5 228.5zM336 391q0 -104 70.5 -174t175.5 -70q82 0 157.5 44.5t123.5 134.5t50 221q-68 45 -147.5 69.5t-151.5 24.5q-117 0 -197.5 -71.5t-80.5 -178.5z" />
    <glyph glyph-name="ntilde" unicode="&#xf1;" horiz-adv-x="1507" 
d="M57 0v203h205v559h-205v203h461v-222q111 125 212 185.5t218 60.5q176 0 269.5 -114.5t93.5 -335.5v-336h176v-203h-600v203h168v334q0 98 -52.5 155.5t-148.5 57.5q-156 0 -336 -205v-342h166v-203h-627zM358 1173q2 137 66.5 231.5t177.5 94.5q76 0 125 -32t108 -97
q45 -51 71.5 -72.5t55.5 -21.5q86 0 100 190l146 -12q-2 -137 -66.5 -230.5t-179.5 -93.5q-72 0 -122 33t-105 94q-47 55 -75 76.5t-58 21.5q-45 0 -67.5 -50t-31.5 -146z" />
    <glyph glyph-name="ograve" unicode="&#xf2;" horiz-adv-x="1226" 
d="M68 481q0 150 75.5 266.5t200.5 180t268 63.5q139 0 265.5 -63.5t203 -180t76.5 -266.5t-74.5 -266.5t-199.5 -180t-271 -63.5q-143 0 -268 63.5t-200.5 180.5t-75.5 266zM295 1402l459 -274l69 98l-397 365zM336 481q0 -139 79 -223t199 -84q119 0 198 84t79 223
t-79 223t-198 84q-121 0 -199.5 -83.5t-78.5 -223.5z" />
    <glyph glyph-name="oacute" unicode="&#xf3;" horiz-adv-x="1226" 
d="M68 481q0 150 75.5 266.5t200.5 180t268 63.5q139 0 265.5 -63.5t203 -180t76.5 -266.5t-74.5 -266.5t-199.5 -180t-271 -63.5q-143 0 -268 63.5t-200.5 180.5t-75.5 266zM336 481q0 -139 79 -223t199 -84q119 0 198 84t79 223t-79 223t-198 84q-121 0 -199.5 -83.5
t-78.5 -223.5zM400 1226l69 -98l459 274l-133 189z" />
    <glyph glyph-name="ocircumflex" unicode="&#xf4;" horiz-adv-x="1226" 
d="M68 481q0 150 75.5 266.5t200.5 180t268 63.5q139 0 265.5 -63.5t203 -180t76.5 -266.5t-74.5 -266.5t-199.5 -180t-271 -63.5q-143 0 -268 63.5t-200.5 180.5t-75.5 266zM244 1202l305 356h129l305 -356l-80 -74l-293 229l-286 -229zM336 481q0 -139 79 -223t199 -84
q119 0 198 84t79 223t-79 223t-198 84q-121 0 -199.5 -83.5t-78.5 -223.5z" />
    <glyph glyph-name="otilde" unicode="&#xf5;" horiz-adv-x="1226" 
d="M68 481q0 150 75.5 266.5t200.5 180t268 63.5q139 0 265.5 -63.5t203 -180t76.5 -266.5t-74.5 -266.5t-199.5 -180t-271 -63.5q-143 0 -268 63.5t-200.5 180.5t-75.5 266zM170 1179q2 137 66.5 231.5t177.5 94.5q76 0 125 -32t108 -97q45 -51 71.5 -72.5t55.5 -21.5
q86 0 100 190l146 -12q-2 -137 -66.5 -230.5t-179.5 -93.5q-72 0 -122 33t-105 94q-47 55 -75 76.5t-58 21.5q-45 0 -67.5 -50t-31.5 -146zM336 481q0 -139 79 -223t199 -84q119 0 198 84t79 223t-79 223t-198 84q-121 0 -199.5 -83.5t-78.5 -223.5z" />
    <glyph glyph-name="odieresis" unicode="&#xf6;" horiz-adv-x="1226" 
d="M68 481q0 150 75.5 266.5t200.5 180t268 63.5q139 0 265.5 -63.5t203 -180t76.5 -266.5t-74.5 -266.5t-199.5 -180t-271 -63.5q-143 0 -268 63.5t-200.5 180.5t-75.5 266zM222 1323q0 55 46 94t109 39q66 0 109 -38t43 -95q0 -53 -43 -89t-109 -36q-63 0 -109 35.5
t-46 89.5zM336 481q0 -139 79 -223t199 -84q119 0 198 84t79 223t-79 223t-198 84q-121 0 -199.5 -83.5t-78.5 -223.5zM688 1323q0 55 45.5 94t106.5 39q66 0 111 -38t45 -95q0 -53 -45 -89t-111 -36q-61 0 -106.5 35.5t-45.5 89.5z" />
    <glyph glyph-name="oslash" unicode="&#xf8;" horiz-adv-x="1228" 
d="M68 481q0 150 75.5 266.5t200.5 180t268 63.5q57 0 101 -8l61 139h219l-92 -209q117 -65 186.5 -176.5t69.5 -255.5q0 -150 -74.5 -266.5t-199.5 -180t-271 -63.5q-53 0 -114 11l-64 -142h-217l94 213q-113 68 -178 178.5t-65 249.5zM336 481q0 -141 84 -229l227 534
q-12 2 -33 2q-120 0 -199 -83.5t-79 -223.5zM563 178q33 -4 51 -4q119 0 198 84t79 223q0 76 -25.5 138.5t-70.5 103.5z" />
    <glyph glyph-name="ugrave" unicode="&#xf9;" horiz-adv-x="1380" 
d="M10 762v203h434v-537q0 -102 43 -159.5t146 -57.5q135 0 291 172v379h-162v203h418v-693q0 -78 59 -77q33 0 57 10l54 -182q-82 -41 -172 -41q-100 0 -168 55t-82 156q-100 -111 -192.5 -165.5t-196.5 -54.5q-168 0 -259.5 115t-91.5 336v338h-178zM318 1349l459 -274
l69 98l-397 365z" />
    <glyph glyph-name="uacute" unicode="&#xfa;" horiz-adv-x="1380" 
d="M10 762v203h434v-537q0 -102 43 -159.5t146 -57.5q135 0 291 172v379h-162v203h418v-693q0 -78 59 -77q33 0 57 10l54 -182q-82 -41 -172 -41q-100 0 -168 55t-82 156q-100 -111 -192.5 -165.5t-196.5 -54.5q-168 0 -259.5 115t-91.5 336v338h-178zM422 1173l69 -98
l459 274l-133 189z" />
    <glyph glyph-name="ucircumflex" unicode="&#xfb;" horiz-adv-x="1380" 
d="M10 762v203h434v-537q0 -102 43 -159.5t146 -57.5q135 0 291 172v379h-162v203h418v-693q0 -78 59 -77q33 0 57 10l54 -182q-82 -41 -172 -41q-100 0 -168 55t-82 156q-100 -111 -192.5 -165.5t-196.5 -54.5q-168 0 -259.5 115t-91.5 336v338h-178zM267 1149l305 356h129
l305 -356l-80 -74l-293 229l-286 -229z" />
    <glyph glyph-name="udieresis" unicode="&#xfc;" horiz-adv-x="1380" 
d="M10 762v203h434v-537q0 -102 43 -159.5t146 -57.5q135 0 291 172v379h-162v203h418v-693q0 -78 59 -77q33 0 57 10l54 -182q-82 -41 -172 -41q-100 0 -168 55t-82 156q-100 -111 -192.5 -165.5t-196.5 -54.5q-168 0 -259.5 115t-91.5 336v338h-178zM244 1270q0 55 46 94
t109 39q66 0 109 -38t43 -95q0 -53 -43 -89t-109 -36q-63 0 -109 35.5t-46 89.5zM710 1270q0 55 45.5 94t106.5 39q66 0 111 -38t45 -95q0 -53 -45 -89t-111 -36q-61 0 -106.5 35.5t-45.5 89.5z" />
    <glyph glyph-name="yacute" unicode="&#xfd;" horiz-adv-x="1339" 
d="M23 -387l100 194q49 -31 95 -50t99 -19q88 0 155 53t122 176l2 6l-403 789h-140v203h559v-183h-149l250 -546l239 546h-141v183h498v-203h-129l-385 -842q-96 -209 -210 -308t-268 -99q-84 0 -149.5 25.5t-144.5 74.5zM531 1188l69 -98l459 274l-133 189z" />
    <glyph glyph-name="thorn" unicode="&#xfe;" horiz-adv-x="1349" 
d="M4 -244h205v1448h-205v201h455v-619q80 96 178 150.5t197 54.5q120 0 222.5 -64.5t163 -180t60.5 -259.5q0 -145 -66.5 -264t-182.5 -185.5t-259 -66.5q-172 0 -313 123v-338h231v-202h-686v202zM459 281q129 -98 252 -99q135 0 220 86t85 221q0 125 -73 205t-189 80
q-74 0 -151 -47t-144 -133v-313z" />
    <glyph glyph-name="ydieresis" unicode="&#xff;" horiz-adv-x="1339" 
d="M23 -387l100 194q49 -31 95 -50t99 -19q88 0 155 53t122 176l2 6l-403 789h-140v203h559v-183h-149l250 -546l239 546h-141v183h498v-203h-129l-385 -842q-96 -209 -210 -308t-268 -99q-84 0 -149.5 25.5t-144.5 74.5zM353 1284q0 55 46 94t109 39q66 0 109 -38t43 -95
q0 -53 -43 -89t-109 -36q-63 0 -109 35.5t-46 89.5zM819 1284q0 55 45.5 94t106.5 39q66 0 111 -38t45 -95q0 -53 -45 -89t-111 -36q-61 0 -106.5 35.5t-45.5 89.5z" />
    <glyph glyph-name="OE" unicode="&#x152;" horiz-adv-x="2355" 
d="M86 700q0 236 108.5 393.5t288 234.5t389.5 77h1340v-481h-242v268h-633v-387h238v166h215v-547h-215v166h-238v-375h633v266h242v-481h-1340q-211 0 -390 76t-287.5 233.5t-108.5 390.5zM369 700q0 -264 164.5 -374.5t402.5 -110.5h129v977h-129q-236 0 -401.5 -111.5
t-165.5 -380.5z" />
    <glyph glyph-name="oe" unicode="&#x153;" horiz-adv-x="1968" 
d="M68 481q0 150 75.5 266.5t199.5 180t265 63.5q127 0 240 -54t186 -153q74 94 187.5 150.5t236.5 56.5q186 0 303 -86t117 -225q0 -137 -116.5 -214t-280.5 -77q-98 0 -181 19.5t-170 56.5l-2 -39q18 -111 113.5 -179.5t216.5 -68.5q106 0 183 32t159 93l105 -156
q-201 -176 -463 -176q-123 0 -231.5 51.5t-182.5 143.5q-72 -92 -181.5 -143.5t-238.5 -51.5q-141 0 -265 63.5t-199.5 180.5t-75.5 266zM336 481q0 -139 79 -223t193 -84q117 0 195 84t78 223t-78 223t-195 84q-115 0 -193.5 -83.5t-78.5 -223.5zM1157 608q127 -47 262 -47
q90 2 146.5 34t56.5 85q0 49 -45 81t-119 32q-92 0 -176 -50.5t-125 -134.5z" />
    <glyph glyph-name="Ydieresis" unicode="&#x178;" horiz-adv-x="1640" 
d="M25 1190v215h659v-215h-166l334 -457l311 457h-205v215h660v-215h-191l-469 -625v-350h254v-215h-778v215h252v338l-485 637h-176zM431 1704q0 55 46 94t109 39q66 0 109 -38t43 -95q0 -53 -43 -89t-109 -36q-63 0 -109 35.5t-46 89.5zM897 1704q0 55 45.5 94t106.5 39
q66 0 111 -38t45 -95q0 -53 -45 -89t-111 -36q-61 0 -106.5 35.5t-45.5 89.5z" />
    <glyph glyph-name="uni2000" unicode="&#x2000;" horiz-adv-x="1050" 
 />
    <glyph glyph-name="uni2001" unicode="&#x2001;" horiz-adv-x="2101" 
 />
    <glyph glyph-name="uni2002" unicode="&#x2002;" horiz-adv-x="1050" 
 />
    <glyph glyph-name="uni2003" unicode="&#x2003;" horiz-adv-x="2101" 
 />
    <glyph glyph-name="uni2004" unicode="&#x2004;" horiz-adv-x="700" 
 />
    <glyph glyph-name="uni2005" unicode="&#x2005;" horiz-adv-x="525" 
 />
    <glyph glyph-name="uni2006" unicode="&#x2006;" horiz-adv-x="350" 
 />
    <glyph glyph-name="uni2007" unicode="&#x2007;" horiz-adv-x="350" 
 />
    <glyph glyph-name="uni2008" unicode="&#x2008;" horiz-adv-x="262" 
 />
    <glyph glyph-name="uni2009" unicode="&#x2009;" horiz-adv-x="420" 
 />
    <glyph glyph-name="uni200A" unicode="&#x200a;" horiz-adv-x="116" 
 />
    <glyph glyph-name="uni2010" unicode="&#x2010;" 
d="M55 375v219h539v-219h-539z" />
    <glyph glyph-name="uni2011" unicode="&#x2011;" 
d="M55 375v219h539v-219h-539z" />
    <glyph glyph-name="figuredash" unicode="&#x2012;" 
d="M55 375v219h539v-219h-539z" />
    <glyph glyph-name="endash" unicode="&#x2013;" horiz-adv-x="1187" 
d="M55 375v219h1082v-219h-1082z" />
    <glyph glyph-name="emdash" unicode="&#x2014;" horiz-adv-x="1728" 
d="M55 375v219h1620v-219h-1620z" />
    <glyph glyph-name="quoteleft" unicode="&#x2018;" 
d="M125 1114q0 193 276 436l66 -69q-98 -102 -148.5 -176t-52.5 -146q33 12 90 12q68 0 113 -36.5t45 -94.5q0 -63 -53 -100t-133 -37q-95 0 -149 55.5t-54 155.5z" />
    <glyph glyph-name="quoteright" unicode="&#x2019;" 
d="M131 1393q0 63 53.5 102t132.5 39q92 0 148.5 -57.5t56.5 -155.5q0 -190 -276 -434l-68 67q100 104 149.5 177t53.5 147q-35 -14 -92 -14q-66 0 -112 36.5t-46 92.5z" />
    <glyph glyph-name="quotesinglbase" unicode="&#x201a;" 
d="M131 104q0 63 53.5 101.5t132.5 38.5q94 0 149.5 -56.5t55.5 -154.5q0 -193 -276 -436l-68 67q98 102 148.5 175t54.5 147q-37 -12 -92 -13q-68 0 -113 37t-45 94z" />
    <glyph glyph-name="quotedblleft" unicode="&#x201c;" horiz-adv-x="1150" 
d="M125 1114q0 193 276 436l66 -69q-98 -102 -148.5 -176t-52.5 -146q33 12 90 12q68 0 113 -36.5t45 -94.5q0 -63 -53 -100t-133 -37q-95 0 -149 55.5t-54 155.5zM629 1110q0 100 73.5 211t202.5 223l66 -69q-100 -106 -149.5 -177t-51.5 -145q35 14 90 14q68 0 114 -37.5
t46 -93.5q0 -61 -54.5 -100t-131.5 -39q-97 0 -151 56.5t-54 156.5z" />
    <glyph glyph-name="quotedblright" unicode="&#x201d;" horiz-adv-x="1150" 
d="M131 1384q0 61 53.5 100.5t132.5 39.5q94 0 149.5 -57.5t55.5 -157.5q0 -188 -276 -432l-68 67q98 102 148.5 175t54.5 147q-37 -12 -92 -13q-68 0 -113 37t-45 94zM635 1380q0 61 53 99.5t133 38.5q94 0 149.5 -56.5t55.5 -156.5q0 -190 -276 -435l-68 70
q98 100 149.5 173t53.5 147q-37 -12 -90 -13q-68 0 -114 38t-46 95z" />
    <glyph glyph-name="quotedblbase" unicode="&#x201e;" horiz-adv-x="1150" 
d="M131 111q0 63 53.5 101t132.5 38q94 0 149.5 -56.5t55.5 -158.5q0 -188 -276 -432l-68 67q98 102 148.5 175t54.5 145q-37 -12 -92 -13q-68 0 -113 38t-45 96zM635 104q0 63 53 101.5t133 38.5q94 0 149.5 -56.5t55.5 -154.5q0 -195 -276 -436l-68 67q100 102 150.5 176
t52.5 146q-37 -12 -90 -13q-68 0 -114 38t-46 93z" />
    <glyph glyph-name="bullet" unicode="&#x2022;" horiz-adv-x="942" 
d="M147 668q0 78 44.5 140t119 96t162.5 34q141 0 232.5 -75t91.5 -195q0 -111 -91.5 -183.5t-232.5 -72.5q-88 0 -162.5 33.5t-119 92t-44.5 130.5z" />
    <glyph glyph-name="ellipsis" unicode="&#x2026;" horiz-adv-x="1818" 
d="M111 127q0 70 56 115t136 45q86 0 140.5 -45t54.5 -115q0 -68 -54.5 -111t-140.5 -43q-80 0 -136 44t-56 110zM717 127q0 70 55 115t137 45q86 0 140.5 -45t54.5 -115q0 -68 -54.5 -111t-140.5 -43q-82 0 -137 43t-55 111zM1321 127q0 70 56.5 115t135.5 45
q86 0 140.5 -45t54.5 -115q0 -68 -54.5 -111t-140.5 -43q-79 0 -135.5 44t-56.5 110z" />
    <glyph glyph-name="uni202F" unicode="&#x202f;" horiz-adv-x="420" 
 />
    <glyph glyph-name="guilsinglleft" unicode="&#x2039;" horiz-adv-x="1142" 
d="M98 389v219h80q256 0 433 115t233 326l196 -74q-115 -422 -634 -477q523 -56 636 -480l-196 -71q-57 213 -233.5 327.5t-432.5 114.5h-82z" />
    <glyph glyph-name="guilsinglright" unicode="&#x203a;" horiz-adv-x="1142" 
d="M100 975l197 74q57 -213 232.5 -327t431.5 -114h83v-219h-81q-254 0 -430.5 -114.5t-233.5 -327.5l-197 71q113 424 633 480q-520 55 -635 477z" />
    <glyph glyph-name="uni205F" unicode="&#x205f;" horiz-adv-x="525" 
 />
    <glyph glyph-name="Euro" unicode="&#x20ac;" horiz-adv-x="1513" 
d="M72 418v149h149q-2 20 -2 66v29h-147v149h168q35 150 124 259.5t211.5 168.5t255.5 59q225 0 379 -153v125h215v-402l-135 -8q-74 115 -164 177.5t-227 62.5q-133 0 -237.5 -76t-147.5 -213h653v-149h-680v-29q0 -25 5 -66h675v-149h-639q47 -115 148.5 -179.5
t236.5 -64.5q131 0 223.5 47t182.5 141l123 -174q-219 -215 -529 -215q-238 0 -417 120t-244 325h-180z" />
    <glyph glyph-name="trademark" unicode="&#x2122;" horiz-adv-x="1804" 
d="M55 1186v219h643v-219h-110v131h-148v-406h97v-100h-316v100h94v406h-151v-131h-109zM764 809v100h94v398h-94v98h231l217 -436l211 436h228v-98h-92v-398h92v-100h-297v100h80v293l-195 -399h-68l-200 409v-303h84v-100h-291z" />
    <glyph glyph-name="uni25FC" unicode="&#x25fc;" horiz-adv-x="962" 
d="M0 0v963h963v-963h-963z" />
    </font>
</defs>
</svg>
