<svg width="41" height="41" viewBox="0 0 41 41" fill="none" xmlns="http://www.w3.org/2000/svg">
<path d="M29.6113 1.25293L30.6191 1.27148L31.2773 1.30078C31.9677 1.33714 32.7117 1.39584 33.1318 1.48145L33.4248 1.5459C34.1039 1.70439 34.7572 1.92815 35.3262 2.21875L35.6035 2.36719C36.2437 2.72613 36.8243 3.16597 37.335 3.67773L37.5488 3.90039C38.0377 4.43041 38.4537 5.02865 38.7881 5.68457L38.9092 5.93457C39.1816 6.52961 39.3863 7.20135 39.5254 7.89062L39.5654 8.12402C39.6533 8.72241 39.7063 9.67442 39.7314 10.3848L39.75 11.3916L39.7471 30.0117L39.7383 30.0166L39.7275 30.6191C39.7019 31.3339 39.6481 32.2927 39.5586 32.8965L39.5176 33.1318C39.3777 33.8173 39.1729 34.4853 38.9014 35.0771L38.7812 35.3262C38.3976 36.077 37.9058 36.7506 37.3213 37.334L37.3223 37.335C36.8119 37.8445 36.2311 38.2821 35.5918 38.6396L35.3145 38.7881C34.7425 39.0795 34.0855 39.3039 33.4023 39.4619L33.1084 39.5254C32.5536 39.6374 31.4262 39.7017 30.6143 39.7305L30.6152 39.7314L29.6074 39.75L11.3887 39.7471L10.3809 39.7285C9.66648 39.7027 8.70727 39.6481 8.10352 39.5586L7.86816 39.5186C7.18244 39.3787 6.51468 39.1739 5.92285 38.9023L5.67383 38.7812C5.01679 38.4453 4.41797 38.0278 3.8877 37.5371L3.66504 37.3223C3.15571 36.8119 2.71788 36.232 2.36035 35.5928L2.21191 35.3154C1.87841 34.6618 1.63379 33.897 1.47461 33.1094C1.39092 32.6936 1.33258 31.9549 1.29688 31.2695L1.26855 30.6152L1.25 29.6074L1.25293 11.3896L1.25781 10.9375C1.26096 10.7553 1.26607 10.5557 1.27246 10.3809L1.30078 9.72266C1.33715 9.03221 1.39581 8.28808 1.48145 7.86816L1.5459 7.5752C1.70439 6.89596 1.92785 6.24285 2.21875 5.67383L2.36816 5.39648C2.72713 4.75618 3.16642 4.17556 3.67773 3.66504L3.90039 3.45117C4.43043 2.96239 5.02853 2.54635 5.68457 2.21191L5.93555 2.09082C6.53048 1.81871 7.20213 1.61369 7.8916 1.47461L8.12402 1.43457C8.72222 1.34667 9.67407 1.2947 10.3848 1.26953C10.734 1.25706 11.1826 1.25 11.3926 1.25L29.6113 1.25293ZM10.4385 2.76758C9.70492 2.79355 8.84797 2.84661 8.36914 2.91504L8.18848 2.94531C7.5868 3.06668 7.02975 3.24017 6.56152 3.4541L6.36621 3.54785C5.83065 3.82084 5.3453 4.15872 4.91699 4.55371L4.7373 4.72656C4.32478 5.13847 3.96822 5.60819 3.67578 6.12988L3.55469 6.35645C3.36206 6.73323 3.19739 7.17916 3.06836 7.66699L2.95117 8.16797C2.86635 8.58394 2.80174 9.59107 2.77148 10.4346C2.75945 10.7638 2.75293 11.1951 2.75293 11.3896L2.75 29.6074L2.76758 30.5625L2.7959 31.21C2.8304 31.8638 2.88212 32.5033 2.94434 32.8125L3.06152 33.3164C3.1904 33.8071 3.35481 34.2554 3.54785 34.6338L3.66895 34.8604C3.96026 35.3813 4.31547 35.8507 4.72656 36.2627L4.90625 36.4365C5.33454 36.8328 5.82002 37.172 6.35645 37.4463L6.55078 37.54C7.01634 37.7534 7.56965 37.9268 8.16797 38.0488L8.35059 38.0801C8.83367 38.1498 9.69722 38.2028 10.4355 38.2295C10.765 38.2413 11.1944 38.2471 11.3887 38.2471L29.6074 38.25L30.5615 38.2324L31.209 38.2041C31.863 38.1696 32.5024 38.1171 32.8115 38.0547L33.3154 37.9385C33.806 37.8097 34.2549 37.6452 34.6338 37.4521L34.8594 37.3311C35.3805 37.0397 35.8501 36.6844 36.2617 36.2734L36.4355 36.0938C36.8321 35.6654 37.1712 35.18 37.4453 34.6436L37.5391 34.4492C37.7524 33.9836 37.9258 33.4302 38.0479 32.832L38.0791 32.6504C38.1489 32.1673 38.202 31.3037 38.2285 30.5654L38.2461 29.6104V29.209L38.2471 29.208L38.25 11.3916L38.2324 10.4375C38.2064 9.70395 38.1534 8.84686 38.085 8.36816L38.0547 8.1875C37.9333 7.58565 37.7598 7.02924 37.5459 6.56152L37.4521 6.36621C37.1791 5.83058 36.8411 5.34504 36.4463 4.91699L36.2734 4.7373C35.8617 4.32471 35.3917 3.96827 34.8701 3.67578L34.6436 3.55371C34.2667 3.36123 33.8207 3.19737 33.333 3.06836L32.832 2.95117C32.5196 2.88757 31.8752 2.83493 31.2168 2.7998L30.5654 2.77051C30.2359 2.75872 29.8056 2.75294 29.6113 2.75293L11.3926 2.75L10.4385 2.76758ZM15.0576 32.3789H8.97852V16.0645H15.0576V32.3789ZM25.8682 15.793C26.6241 15.7811 27.2529 15.853 28.0508 16.0977L28.3643 16.2061C29.0857 16.4832 29.7371 16.9223 30.2744 17.3564L30.4092 17.4707C31.0654 18.0529 31.435 18.7885 31.7314 19.4307L31.8623 19.7295C32.1558 20.4419 32.3632 21.2511 32.3633 22.0664V32.3789H26.373L26.3848 23.5713C26.3848 22.8624 26.2001 22.4036 25.9678 22.1064C25.7334 21.8068 25.4031 21.6115 25.0117 21.5107C24.6152 21.4087 24.173 21.4099 23.7656 21.4971C23.3518 21.5856 23.0298 21.7503 22.8447 21.917L22.8438 21.916C22.4881 22.237 22.2941 22.6535 22.1895 23.0254C22.085 23.3967 22.083 23.6805 22.083 23.6787V32.3789H16.1162V16.0645H21.8242V17.1533C22.9092 16.3533 24.2644 15.8558 25.5352 15.8027L25.8682 15.793ZM10.4785 30.8789H13.5576V17.5645H10.4785V30.8789ZM25.5996 17.3008C24.1336 17.3617 22.4958 18.2207 21.6934 19.3926L20.3242 21.3916V17.5645H17.6162V30.8789H20.583V23.6787C20.583 23.565 20.5968 21.9247 21.8408 20.8027L22.0088 20.6631C22.4155 20.3537 22.9278 20.1424 23.4521 20.0303C24.0582 19.9007 24.7376 19.8909 25.3857 20.0576C26.0388 20.2256 26.677 20.5785 27.1494 21.1826C27.6239 21.7895 27.8848 22.5909 27.8848 23.5713L27.875 30.8789H30.8633V22.0664L30.8545 21.8193C30.8191 21.3203 30.6802 20.7998 30.4766 20.3047L30.3701 20.0596C30.061 19.3898 29.7807 18.8856 29.333 18.5244L29.332 18.5234C28.8564 18.1391 28.3448 17.8055 27.8311 17.6074L27.6113 17.5312C26.8974 17.3123 26.3823 17.2675 25.5996 17.3008ZM12.1914 8.60645C13.9749 8.69705 15.3936 10.171 15.3936 11.9775L15.3887 12.1514C15.301 13.8777 13.9173 15.2609 12.1914 15.3486L12.0176 15.3535C10.2117 15.3535 8.73614 13.9353 8.64551 12.1514L8.64062 11.9775C8.64062 10.1123 10.1535 8.60156 12.0176 8.60156L12.1914 8.60645ZM12.0176 10.1016C10.9811 10.1016 10.1406 10.9416 10.1406 11.9775L10.1504 12.1689C10.2465 13.1148 11.0459 13.8535 12.0176 13.8535L12.209 13.8438C13.1551 13.7478 13.8935 12.949 13.8936 11.9775C13.8936 11.006 13.1552 10.2073 12.209 10.1113L12.0176 10.1016Z" fill="#FF1515"/>
</svg>
