<?xml version="1.0" encoding="UTF-8"?>
<svg id="Layer_1" xmlns="http://www.w3.org/2000/svg" version="1.1" viewBox="0 0 83 48">
  <!-- Generator: Adobe Illustrator 29.4.0, SVG Export Plug-In . SVG Version: 2.1.0 Build 152)  -->
  <defs>
    <style>
      .st0 {
        fill: #0f0f0f;
      }

      .st1 {
        fill-rule: evenodd;
      }

      .st1, .st2 {
        fill: #f7f7f7;
      }
    </style>
  </defs>
  <rect class="st0" width="83" height="48"/>
  <path class="st2" d="M58.2,14v20h-2.86v-17.14h-3.43v-2.86h6.29Z"/>
  <path class="st2" d="M44.59,29.83h4.17v4.17h-4.17v-4.17Z"/>
  <path class="st2" d="M39.72,31.14c0,.39-.07.76-.22,1.12-.15.34-.35.65-.61.91s-.57.46-.92.61c-.34.15-.71.22-1.1.22h-10c-.39,0-.76-.07-1.12-.22-.34-.15-.65-.35-.91-.61-.26-.26-.46-.56-.61-.91-.15-.35-.22-.73-.22-1.12v-14.28c0-.39.07-.76.22-1.1.15-.35.35-.66.61-.91.26-.26.56-.46.91-.61.35-.16.73-.24,1.12-.24h10c.39,0,.76.08,1.1.24.35.15.66.35.92.61.26.25.46.55.61.91.15.34.22.71.22,1.1v14.28ZM26.86,16.86v14.28h10v-14.28h-10Z"/>
  <path class="st1" d="M39.78,17.12l-11.95,16.26-2.26-1.66,11.95-16.26,2.26,1.66Z"/>
</svg>