<?xml version="1.0" encoding="UTF-8"?>
<svg id="Layer_1" xmlns="http://www.w3.org/2000/svg" version="1.1" viewBox="0 0 83 48">
  <!-- Generator: Adobe Illustrator 29.4.0, SVG Export Plug-In . SVG Version: 2.1.0 Build 152)  -->
  <defs>
    <style>
      .st0 {
        fill: #0f0f0f;
      }

      .st1 {
        fill-rule: evenodd;
      }

      .st1, .st2 {
        fill: #f7f7f7;
      }
    </style>
  </defs>
  <rect class="st0" width="83" height="48"/>
  <path class="st2" d="M52.2,16.86v2.58h-2.86v-2.58c0-.39.07-.76.22-1.1.15-.35.35-.66.61-.91.26-.26.56-.46.91-.61.35-.16.73-.24,1.12-.24h9.05c.39,0,.76.08,1.1.24.35.15.66.35.91.61.26.25.46.55.61.91.16.34.24.71.24,1.1v3.65c0,.39-.04.74-.11,1.05-.07.31-.2.59-.36.84-.16.24-.36.46-.61.66-.25.2-.56.38-.92.56l-9.9,4.64v2.89h9.41v-2.57h2.86v5.43h-15.13v-5.26c0-.39.04-.74.11-1.05.08-.31.2-.58.36-.82.16-.24.36-.46.61-.66.26-.2.56-.39.91-.56l9.92-4.66v-4.14h-9.05Z"/>
  <path class="st2" d="M40.59,29.83h4.17v4.17h-4.17v-4.17Z"/>
  <path class="st2" d="M35.72,31.14c0,.39-.07.76-.22,1.12-.15.34-.35.65-.61.91s-.57.46-.92.61c-.34.15-.71.22-1.1.22h-10c-.39,0-.76-.07-1.12-.22-.34-.15-.65-.35-.91-.61-.26-.26-.46-.56-.61-.91-.15-.35-.22-.73-.22-1.12v-14.28c0-.39.07-.76.22-1.1.15-.35.35-.66.61-.91.26-.26.56-.46.91-.61.35-.16.73-.24,1.12-.24h10c.39,0,.76.08,1.1.24.35.15.66.35.92.61.26.25.46.55.61.91.15.34.22.71.22,1.1v14.28ZM22.86,16.86v14.28h10v-14.28h-10Z"/>
  <path class="st1" d="M35.78,17.12l-11.95,16.26-2.26-1.66,11.95-16.26,2.26,1.66Z"/>
</svg>