<?xml version="1.0" encoding="UTF-8"?>
<svg id="Layer_1" xmlns="http://www.w3.org/2000/svg" version="1.1" viewBox="0 0 83 48">
  <!-- Generator: Adobe Illustrator 29.4.0, SVG Export Plug-In . SVG Version: 2.1.0 Build 152)  -->
  <defs>
    <style>
      .st0 {
        fill: #0f0f0f;
      }

      .st1 {
        fill-rule: evenodd;
      }

      .st1, .st2 {
        fill: #f7f7f7;
      }
    </style>
  </defs>
  <rect class="st0" width="83" height="48"/>
  <path class="st2" d="M48.48,27.95h2.8v1.06c0,.75.17,1.31.5,1.66.33.35.88.53,1.65.53h5.76c.76,0,1.31-.18,1.65-.53.33-.35.5-.91.5-1.66v-1.55c0-.76-.17-1.32-.5-1.66-.33-.34-.88-.52-1.65-.52h-5.91v-2.79h5.83c.7-.03,1.19-.21,1.49-.56.31-.35.46-.89.46-1.62v-1.31c0-.76-.17-1.32-.52-1.67-.33-.35-.88-.53-1.63-.53h-5.2c-.75,0-1.3.18-1.63.53-.33.35-.5.91-.5,1.67v1.06h-2.8v-1.2c0-3.24,1.62-4.87,4.85-4.87h5.37c1.65,0,2.86.4,3.65,1.2.8.8,1.2,2.02,1.2,3.67v.36c0,1.13-.2,2.05-.6,2.79-.39.73-.96,1.26-1.72,1.62.85.25,1.49.75,1.94,1.51.45.75.67,1.75.67,3v1c0,3.24-1.62,4.85-4.85,4.85h-5.94c-3.25,0-4.87-1.62-4.87-4.85v-1.2Z"/>
  <path class="st2" d="M40.59,29.83h4.17v4.17h-4.17v-4.17Z"/>
  <path class="st2" d="M35.72,31.14c0,.39-.07.76-.22,1.12-.15.34-.35.65-.61.91s-.57.46-.92.61c-.34.15-.71.22-1.1.22h-10c-.39,0-.76-.07-1.12-.22-.34-.15-.65-.35-.91-.61-.26-.26-.46-.56-.61-.91-.15-.35-.22-.73-.22-1.12v-14.28c0-.39.07-.76.22-1.1.15-.35.35-.66.61-.91.26-.26.56-.46.91-.61.35-.16.73-.24,1.12-.24h10c.39,0,.76.08,1.1.24.35.15.66.35.92.61.26.25.46.55.61.91.15.34.22.71.22,1.1v14.28ZM22.86,16.86v14.28h10v-14.28h-10Z"/>
  <path class="st1" d="M35.78,17.12l-11.95,16.26-2.26-1.66,11.95-16.26,2.26,1.66Z"/>
</svg>