<?xml version="1.0" encoding="UTF-8"?>
<svg id="Layer_1" xmlns="http://www.w3.org/2000/svg" version="1.1" viewBox="0 0 83 48">
  <!-- Generator: Adobe Illustrator 29.2.1, SVG Export Plug-In . SVG Version: 2.1.0 Build 116)  -->
  <defs>
    <style>
      .st0 {
        fill-rule: evenodd;
      }

      .st0, .st1 {
        fill: #121212;
      }

      .st2 {
        fill: #fbfbfb;
      }
    </style>
  </defs>
  <rect class="st2" width="83" height="48"/>
  <g>
    <path class="st1" d="M48.5,28h2.8v1.1c0,.8.2,1.3.5,1.7s.9.5,1.7.5h5.8c.8,0,1.3-.2,1.7-.5.3-.4.5-.9.5-1.7v-1.5c0-.8-.2-1.3-.5-1.7s-.9-.5-1.7-.5h-5.9v-2.8h5.8c.7,0,1.2-.2,1.5-.6.3-.4.5-.9.5-1.6v-1.3c0-.8-.2-1.3-.5-1.7-.3-.4-.9-.5-1.6-.5h-5.2c-.8,0-1.3.2-1.6.5s-.5.9-.5,1.7v1.1h-2.8v-1.2c0-3.2,1.6-4.9,4.8-4.9h5.4c1.7,0,2.9.4,3.7,1.2.8.8,1.2,2,1.2,3.7v.4c0,1.1-.2,2-.6,2.8-.4.7-1,1.3-1.7,1.6.8.2,1.5.8,1.9,1.5.5.8.7,1.8.7,3v1c0,3.2-1.6,4.8-4.8,4.8h-5.9c-3.2,0-4.9-1.6-4.9-4.9v-1.2h0Z"/>
    <path class="st1" d="M40.6,29.8h4.2v4.2h-4.2s0-4.2,0-4.2Z"/>
    <path class="st1" d="M35.7,31.1c0,.4,0,.8-.2,1.1-.2.3-.3.7-.6.9s-.6.5-.9.6c-.3.2-.7.2-1.1.2h-10c-.4,0-.8,0-1.1-.2-.3-.2-.6-.3-.9-.6-.3-.3-.5-.6-.6-.9-.1-.4-.2-.7-.2-1.1v-14.3c0-.4,0-.8.2-1.1.1-.4.4-.7.6-.9.3-.3.6-.5.9-.6.4-.2.7-.2,1.1-.2h10c.4,0,.8,0,1.1.2.3.1.7.4.9.6.3.2.5.6.6.9.2.3.2.7.2,1.1v14.3ZM22.9,16.9v14.3h10v-14.3h-10Z"/>
    <path class="st0" d="M35.8,17.1l-12,16.3-2.3-1.7,11.9-16.3s2.3,1.7,2.3,1.7Z"/>
  </g>
</svg>