<?xml version="1.0" encoding="UTF-8"?>
<svg id="Layer_1" xmlns="http://www.w3.org/2000/svg" version="1.1" viewBox="0 0 83 48">
  <!-- Generator: Adobe Illustrator 29.5.1, SVG Export Plug-In . SVG Version: 2.1.0 Build 141)  -->
  <defs>
    <style>
      .st0 {
        fill: #121212;
      }

      .st1 {
        fill-rule: evenodd;
      }

      .st1, .st2 {
        fill: #f7f7f7;
      }
    </style>
  </defs>
  <rect class="st0" y="0" width="83" height="48"/>
  <g>
    <path class="st2" d="M47.35,27.11l9.86-13.11h3.36v13.11h2.69v2.75h-2.69v4.14h-2.86v-4.14h-10.36v-2.75ZM57.72,27.11v-9.65l-7.25,9.65h7.25Z"/>
    <path class="st2" d="M40.31,29.83h4.17v4.17h-4.17s0-4.17,0-4.17Z"/>
    <path class="st2" d="M35.44,31.14c0,.39-.07.76-.22,1.12-.15.34-.35.65-.61.91s-.57.46-.92.61c-.34.15-.71.22-1.1.22h-10c-.39,0-.76-.07-1.12-.22-.34-.15-.65-.35-.91-.61-.26-.26-.46-.56-.61-.91-.15-.35-.22-.73-.22-1.12v-14.28c0-.39.07-.76.22-1.1.15-.35.35-.66.61-.91.26-.26.56-.46.91-.61.35-.16.73-.24,1.12-.24h10c.39,0,.76.08,1.1.24.35.15.66.35.92.61.26.25.46.55.61.91.15.34.22.71.22,1.1v14.28ZM22.58,16.86v14.28h10v-14.28h-10Z"/>
    <path class="st1" d="M35.5,17.12l-11.95,16.26-2.26-1.66,11.95-16.26s2.26,1.66,2.26,1.66Z"/>
  </g>
</svg>