<?xml version="1.0" encoding="UTF-8"?>
<svg id="Layer_1" xmlns="http://www.w3.org/2000/svg" version="1.1" viewBox="0 0 83 48">
  <!-- Generator: Adobe Illustrator 29.2.1, SVG Export Plug-In . SVG Version: 2.1.0 Build 116)  -->
  <defs>
    <style>
      .st0 {
        fill-rule: evenodd;
      }

      .st0, .st1 {
        fill: #121212;
      }

      .st2 {
        fill: #fbfbfb;
      }
    </style>
  </defs>
  <rect class="st2" width="83" height="48"/>
  <g>
    <path class="st1" d="M48.6,27.1l9.9-13.1h3.4v13.1h2.7v2.8h-2.7v4.1h-2.9v-4.1h-10.4v-2.8ZM59,27.1v-9.6l-7.2,9.6h7.2Z"/>
    <path class="st1" d="M41.6,29.8h4.2v4.2h-4.2s0-4.2,0-4.2Z"/>
    <path class="st1" d="M36.7,31.1c0,.4,0,.8-.2,1.1-.2.3-.3.7-.6.9s-.6.5-.9.6c-.3.2-.7.2-1.1.2h-10c-.4,0-.8,0-1.1-.2-.3-.2-.6-.3-.9-.6-.3-.3-.5-.6-.6-.9-.1-.4-.2-.7-.2-1.1v-14.3c0-.4,0-.8.2-1.1.1-.4.4-.7.6-.9.3-.3.6-.5.9-.6.4-.2.7-.2,1.1-.2h10c.4,0,.8,0,1.1.2.3.1.7.4.9.6.3.2.5.6.6.9.2.3.2.7.2,1.1v14.3ZM23.9,16.9v14.3h10v-14.3h-10Z"/>
    <path class="st0" d="M36.8,17.1l-12,16.3-2.3-1.7,11.9-16.3s2.3,1.7,2.3,1.7Z"/>
  </g>
</svg>