<?xml version="1.0" encoding="UTF-8"?>
<svg id="Layer_1" xmlns="http://www.w3.org/2000/svg" version="1.1" viewBox="0 0 83 48">
  <!-- Generator: Adobe Illustrator 29.5.1, SVG Export Plug-In . SVG Version: 2.1.0 Build 141)  -->
  <defs>
    <style>
      .st0 {
        fill: #121212;
      }

      .st1 {
        fill-rule: evenodd;
      }

      .st1, .st2 {
        fill: #f7f7f7;
      }
    </style>
  </defs>
  <rect class="st0" y="0" width="83" height="48"/>
  <g>
    <path class="st2" d="M63.28,29.15c-.03,1.63-.44,2.85-1.23,3.65s-2,1.2-3.63,1.2h-5.37c-3.24,0-4.87-1.62-4.87-4.85v-1.2h2.8v1.06c0,.75.17,1.31.5,1.66s.88.53,1.65.53h5.19c.76,0,1.31-.18,1.65-.53.33-.35.5-.91.5-1.66v-2.69c0-.75-.17-1.3-.5-1.65s-.88-.53-1.65-.53h-9.57v-10.14h14v2.86h-11.14v4.49h6.81c1.64,0,2.85.4,3.65,1.2.8.79,1.2,2.01,1.2,3.65v2.94h0Z"/>
    <path class="st2" d="M40.3,29.83h4.17v4.17h-4.17s0-4.17,0-4.17Z"/>
    <path class="st2" d="M35.43,31.14c0,.39-.07.76-.22,1.12-.15.34-.35.65-.61.91s-.57.46-.92.61c-.34.15-.71.22-1.1.22h-10c-.39,0-.76-.07-1.12-.22-.34-.15-.65-.35-.91-.61-.26-.26-.46-.56-.61-.91-.15-.35-.22-.73-.22-1.12v-14.28c0-.39.07-.76.22-1.1.15-.35.35-.66.61-.91.26-.26.56-.46.91-.61.35-.16.73-.24,1.12-.24h10c.39,0,.76.08,1.1.24.35.15.66.35.92.61.26.25.46.55.61.91.15.34.22.71.22,1.1v14.28ZM22.57,16.86v14.28h10v-14.28h-10Z"/>
    <path class="st1" d="M35.49,17.12l-11.95,16.26-2.26-1.66,11.95-16.26s2.26,1.66,2.26,1.66Z"/>
  </g>
</svg>