<svg width="83" height="48" viewBox="0 0 83 48" fill="none" xmlns="http://www.w3.org/2000/svg">
<rect width="83" height="48" fill="#FBFBFB"/>
<path d="M63.5704 29.1464C63.5425 30.7736 63.1334 31.9916 62.3431 32.8006C61.5527 33.6002 60.344 34 58.7168 34H53.3472C50.1022 34 48.4797 32.3821 48.4797 29.1464V27.947H51.2831V29.007C51.2831 29.7601 51.4504 30.3133 51.7852 30.6667C52.1199 31.02 52.6685 31.1967 53.4309 31.1967H58.6192C59.3816 31.1967 59.9302 31.02 60.265 30.6667C60.5997 30.3133 60.767 29.7601 60.767 29.007V26.3152C60.767 25.5621 60.5997 25.0135 60.265 24.6695C59.9302 24.3161 59.3816 24.1395 58.6192 24.1395H49.0516V14H63.0544V16.8591H51.9107V21.3501H58.7168C60.3533 21.3501 61.5713 21.7499 62.3709 22.5495C63.1706 23.3398 63.5704 24.5579 63.5704 26.2036V29.1464Z" fill="black"/>
<path d="M40.5857 29.8298H44.7558V34H40.5857V29.8298Z" fill="black"/>
<path d="M35.7183 31.1409C35.7183 31.5314 35.6439 31.9033 35.4951 32.2566C35.3463 32.6007 35.1418 32.9028 34.8814 33.1632C34.6211 33.4235 34.3143 33.6281 33.9609 33.7768C33.6169 33.9256 33.2497 34 32.8591 34H22.8591C22.4686 34 22.0967 33.9256 21.7434 33.7768C21.3993 33.6281 21.0972 33.4235 20.8368 33.1632C20.5765 32.9028 20.3719 32.6007 20.2232 32.2566C20.0744 31.9033 20 31.5314 20 31.1409V16.8591C20 16.4686 20.0744 16.1013 20.2232 15.7573C20.3719 15.404 20.5765 15.1018 20.8368 14.8508C21.0972 14.5904 21.3993 14.3859 21.7434 14.2371C22.0967 14.079 22.4686 14 22.8591 14H32.8591C33.2497 14 33.6169 14.079 33.9609 14.2371C34.3143 14.3859 34.6211 14.5904 34.8814 14.8508C35.1418 15.1018 35.3463 15.404 35.4951 15.7573C35.6439 16.1013 35.7183 16.4686 35.7183 16.8591V31.1409ZM22.8591 16.8591V31.1409H32.8591V16.8591H22.8591Z" fill="black"/>
<path fill-rule="evenodd" clip-rule="evenodd" d="M35.779 17.1178L23.8253 33.3749L21.5618 31.7105L33.5155 15.4535L35.779 17.1178Z" fill="black"/>
</svg>
