<?xml version="1.0" encoding="UTF-8"?>
<svg id="Layer_1" xmlns="http://www.w3.org/2000/svg" version="1.1" viewBox="0 0 83 48">
  <!-- Generator: Adobe Illustrator 29.4.0, SVG Export Plug-In . SVG Version: 2.1.0 Build 152)  -->
  <defs>
    <style>
      .st0 {
        fill: #0f0f0f;
      }

      .st1 {
        fill-rule: evenodd;
      }

      .st1, .st2 {
        fill: #f7f7f7;
      }
    </style>
  </defs>
  <rect class="st0" width="83" height="48"/>
  <path class="st2" d="M43.54,29.79h4.16v4.16h-4.16v-4.16Z"/>
  <path class="st2" d="M38.68,31.1c0,.39-.07.76-.22,1.11-.15.34-.35.64-.61.9-.26.26-.57.46-.92.61-.34.15-.71.22-1.1.22h-9.98c-.39,0-.76-.07-1.11-.22-.34-.15-.64-.35-.9-.61-.26-.26-.46-.56-.61-.9-.15-.35-.22-.72-.22-1.11v-14.25c0-.39.07-.76.22-1.1.15-.35.35-.65.61-.9.26-.26.56-.46.9-.61.35-.16.72-.24,1.11-.24h9.98c.39,0,.76.08,1.1.24.35.15.66.35.92.61.26.25.46.55.61.9.15.34.22.71.22,1.1v14.25ZM25.85,16.85v14.25h9.98v-14.25h-9.98Z"/>
  <path class="st1" d="M38.74,17.11l-11.92,16.22-2.26-1.66,11.92-16.22,2.26,1.66Z"/>
  <path class="st2" d="M51.79,16.86c0-.39.07-.76.22-1.1.15-.35.35-.66.61-.91.26-.26.56-.46.91-.61.35-.16.72-.24,1.11-.24h9.13c.39,0,.76.08,1.1.24.35.15.66.35.92.61.26.25.46.55.61.91.15.34.22.71.22,1.1v2.58h-2.86v-2.58h-9.13v5.71h9.13c.39,0,.76.07,1.1.22.35.15.66.35.92.61s.46.57.61.92c.15.34.22.71.22,1.1v5.7c0,.39-.07.76-.22,1.12-.15.34-.35.65-.61.91s-.57.46-.92.61c-.34.15-.71.22-1.1.22h-9.13c-.39,0-.76-.07-1.11-.22-.34-.15-.65-.35-.91-.61-.26-.26-.46-.56-.61-.91-.15-.35-.22-.72-.22-1.12v-14.27ZM54.65,25.43v5.7h9.13v-5.7h-9.13Z"/>
</svg>