<svg width="83" height="48" viewBox="0 0 83 48" fill="none" xmlns="http://www.w3.org/2000/svg">
<rect width="83" height="48" fill="#FBFBFB"/>
<path d="M43.5361 29.7915H47.6962V33.9515H43.5361V29.7915Z" fill="black"/>
<path d="M38.6801 31.0993C38.6801 31.4888 38.6059 31.8599 38.4575 32.2123C38.3091 32.5555 38.1051 32.857 37.8453 33.1167C37.5856 33.3764 37.2795 33.5805 36.9271 33.7289C36.5839 33.8773 36.2175 33.9515 35.8279 33.9515H25.8522C25.4626 33.9515 25.0916 33.8773 24.7391 33.7289C24.396 33.5805 24.0945 33.3764 23.8348 33.1167C23.5751 32.857 23.371 32.5555 23.2226 32.2123C23.0742 31.8599 23 31.4888 23 31.0993V16.8522C23 16.4626 23.0742 16.0963 23.2226 15.7531C23.371 15.4006 23.5751 15.0991 23.8348 14.8487C24.0945 14.589 24.396 14.3849 24.7391 14.2365C25.0916 14.0788 25.4626 14 25.8522 14H35.8279C36.2175 14 36.5839 14.0788 36.9271 14.2365C37.2795 14.3849 37.5856 14.589 37.8453 14.8487C38.1051 15.0991 38.3091 15.4006 38.4575 15.7531C38.6059 16.0963 38.6801 16.4626 38.6801 16.8522V31.0993ZM25.8522 16.8522V31.0993H35.8279V16.8522H25.8522Z" fill="black"/>
<path fill-rule="evenodd" clip-rule="evenodd" d="M38.7408 17.1102L26.8161 33.3279L24.5581 31.6676L36.4828 15.45L38.7408 17.1102Z" fill="black"/>
<path d="M51.791 16.8571C51.791 16.4669 51.8653 16.0999 52.014 15.7561C52.1627 15.403 52.3671 15.101 52.6272 14.8502C52.8874 14.59 53.1894 14.3856 53.5332 14.2369C53.8862 14.079 54.2579 14 54.6481 14H63.777C64.1672 14 64.5343 14.079 64.878 14.2369C65.2311 14.3856 65.5377 14.59 65.7979 14.8502C66.0581 15.101 66.2625 15.403 66.4111 15.7561C66.5598 16.0999 66.6341 16.4669 66.6341 16.8571V19.4355H63.777V16.8571H54.6481V22.5714H63.777C64.1672 22.5714 64.5343 22.6457 64.878 22.7944C65.2311 22.943 65.5377 23.1474 65.7979 23.4076C66.0581 23.6678 66.2625 23.9744 66.4111 24.3275C66.5598 24.6712 66.6341 25.0383 66.6341 25.4285V31.1288C66.6341 31.519 66.5598 31.8907 66.4111 32.2438C66.2625 32.5876 66.0581 32.8895 65.7979 33.1497C65.5377 33.4099 65.2311 33.6143 64.878 33.7629C64.5343 33.9116 64.1672 33.9859 63.777 33.9859H54.6481C54.2579 33.9859 53.8862 33.9116 53.5332 33.7629C53.1894 33.6143 52.8874 33.4099 52.6272 33.1497C52.3671 32.8895 52.1627 32.5876 52.014 32.2438C51.8653 31.8907 51.791 31.519 51.791 31.1288V16.8571ZM54.6481 25.4285V31.1288H63.777V25.4285H54.6481Z" fill="black"/>
</svg>
