<?xml version="1.0" encoding="UTF-8"?>
<svg id="Layer_1" xmlns="http://www.w3.org/2000/svg" version="1.1" viewBox="0 0 83 48">
  <!-- Generator: Adobe Illustrator 29.2.1, SVG Export Plug-In . SVG Version: 2.1.0 Build 116)  -->
  <defs>
    <style>
      .st0 {
        fill-rule: evenodd;
      }

      .st0, .st1 {
        fill: #121212;
      }

      .st2 {
        fill: #fbfbfb;
      }
    </style>
  </defs>
  <rect class="st2" width="83" height="48"/>
  <g>
    <path class="st1" d="M40.2,29.8h4.2v4.2h-4.2v-4.2Z"/>
    <path class="st1" d="M35.4,31.1c0,.4,0,.8-.2,1.1-.2.3-.3.6-.6.9s-.6.5-.9.6c-.3.2-.7.2-1.1.2h-10c-.4,0-.8,0-1.1-.2-.3-.2-.6-.3-.9-.6-.3-.3-.5-.6-.6-.9-.1-.4-.2-.7-.2-1.1v-14.2c0-.4,0-.8.2-1.1.1-.4.4-.6.6-.9.3-.3.6-.5.9-.6.4-.2.7-.2,1.1-.2h10c.4,0,.8,0,1.1.2.3.1.7.4.9.6.3.2.5.6.6.9.2.3.2.7.2,1.1v14.2ZM22.5,16.9v14.2h10v-14.2h-10Z"/>
    <path class="st0" d="M35.4,17.1l-11.9,16.2-2.3-1.7,11.9-16.2s2.3,1.7,2.3,1.7Z"/>
    <path class="st1" d="M48.5,16.9c0-.4,0-.8.2-1.1.2-.4.3-.7.6-.9.3-.3.6-.5.9-.6.3-.2.7-.2,1.1-.2h9.1c.4,0,.8,0,1.1.2.3.1.7.4.9.6.3.2.5.6.6.9.2.3.2.7.2,1.1v2.6h-2.9v-2.6h-9.1v5.7h9.1c.4,0,.8,0,1.1.2.3.1.7.4.9.6s.5.6.6.9c.2.3.2.7.2,1.1v5.7c0,.4,0,.8-.2,1.1-.2.3-.3.7-.6.9s-.6.5-.9.6c-.3.2-.7.2-1.1.2h-9.1c-.4,0-.8,0-1.1-.2-.3-.2-.7-.3-.9-.6-.3-.3-.5-.6-.6-.9-.2-.4-.2-.7-.2-1.1v-14.3h0ZM51.3,25.4v5.7h9.1v-5.7s-9.1,0-9.1,0Z"/>
  </g>
</svg>