<svg width="83" height="48" viewBox="0 0 83 48" fill="none" xmlns="http://www.w3.org/2000/svg">
<rect width="83" height="48" fill="#FBFBFB"/>
<path d="M43.5361 29.7915H47.6962V33.9515H43.5361V29.7915Z" fill="black"/>
<path d="M38.6801 31.0993C38.6801 31.4888 38.6059 31.8599 38.4575 32.2123C38.3091 32.5555 38.1051 32.857 37.8453 33.1167C37.5856 33.3764 37.2795 33.5805 36.9271 33.7289C36.5839 33.8773 36.2175 33.9515 35.8279 33.9515H25.8522C25.4626 33.9515 25.0916 33.8773 24.7391 33.7289C24.396 33.5805 24.0945 33.3764 23.8348 33.1167C23.5751 32.857 23.371 32.5555 23.2226 32.2123C23.0742 31.8599 23 31.4888 23 31.0993V16.8522C23 16.4626 23.0742 16.0963 23.2226 15.7531C23.371 15.4006 23.5751 15.0991 23.8348 14.8487C24.0945 14.589 24.396 14.3849 24.7391 14.2365C25.0916 14.0788 25.4626 14 25.8522 14H35.8279C36.2175 14 36.5839 14.0788 36.9271 14.2365C37.2795 14.3849 37.5856 14.589 37.8453 14.8487C38.1051 15.0991 38.3091 15.4006 38.4575 15.7531C38.6059 16.0963 38.6801 16.4626 38.6801 16.8522V31.0993ZM25.8522 16.8522V31.0993H35.8279V16.8522H25.8522Z" fill="black"/>
<path fill-rule="evenodd" clip-rule="evenodd" d="M38.7408 17.1102L26.8161 33.3279L24.5581 31.6676L36.4828 15.45L38.7408 17.1102Z" fill="black"/>
<path d="M54.4286 34L64.3119 16.8591H52V14H69V14.8647L58.0714 34H54.4286Z" fill="black"/>
</svg>
