<?xml version="1.0" encoding="UTF-8"?>
<svg id="Layer_1" xmlns="http://www.w3.org/2000/svg" version="1.1" viewBox="0 0 83 48">
  <!-- Generator: Adobe Illustrator 29.4.0, SVG Export Plug-In . SVG Version: 2.1.0 Build 152)  -->
  <defs>
    <style>
      .st0 {
        fill: #0f0f0f;
      }

      .st1 {
        fill-rule: evenodd;
      }

      .st1, .st2 {
        fill: #f7f7f7;
      }
    </style>
  </defs>
  <rect class="st0" width="83" height="48"/>
  <path class="st2" d="M43.54,29.79h4.16v4.16h-4.16v-4.16Z"/>
  <path class="st2" d="M38.68,31.1c0,.39-.07.76-.22,1.11-.15.34-.35.64-.61.9-.26.26-.57.46-.92.61-.34.15-.71.22-1.1.22h-9.98c-.39,0-.76-.07-1.11-.22-.34-.15-.64-.35-.9-.61-.26-.26-.46-.56-.61-.9-.15-.35-.22-.72-.22-1.11v-14.25c0-.39.07-.76.22-1.1.15-.35.35-.65.61-.9.26-.26.56-.46.9-.61.35-.16.72-.24,1.11-.24h9.98c.39,0,.76.08,1.1.24.35.15.66.35.92.61.26.25.46.55.61.9.15.34.22.71.22,1.1v14.25ZM25.85,16.85v14.25h9.98v-14.25h-9.98Z"/>
  <path class="st1" d="M38.74,17.11l-11.92,16.22-2.26-1.66,11.92-16.22,2.26,1.66Z"/>
  <path class="st2" d="M62.79,22.62c.71-.03,1.21-.22,1.52-.57.3-.36.45-.91.45-1.64v-1.33c0-.77-.17-1.34-.51-1.7-.34-.36-.89-.54-1.66-.54h-5.28c-.76,0-1.32.18-1.66.54-.34.36-.51.93-.51,1.7v1.33c0,.74.15,1.28.45,1.64.31.35.82.54,1.52.57h5.68ZM62.88,31.46c.77,0,1.33-.18,1.67-.54s.51-.92.51-1.69v-1.57c0-.77-.17-1.34-.51-1.69s-.9-.52-1.67-.52h-5.85c-.77,0-1.33.17-1.67.52-.34.35-.51.91-.51,1.69v1.57c0,.76.17,1.33.51,1.69.34.36.9.54,1.67.54h5.85ZM56.94,34.31c-3.29,0-4.94-1.64-4.94-4.93v-1.02c0-1.27.23-2.28.68-3.04.45-.76,1.11-1.27,1.97-1.53-.76-.36-1.35-.91-1.76-1.64-.4-.75-.59-1.69-.59-2.83v-.37c0-3.29,1.64-4.94,4.93-4.94h5.45c3.29,0,4.93,1.65,4.93,4.94v.37c0,1.14-.2,2.09-.61,2.83-.4.74-.98,1.28-1.74,1.64.86.25,1.52.76,1.97,1.53.45.76.68,1.78.68,3.04v1.02c0,3.29-1.64,4.93-4.93,4.93h-6.03Z"/>
</svg>