<svg width="83" height="48" viewBox="0 0 83 48" fill="none" xmlns="http://www.w3.org/2000/svg">
<rect width="83" height="48" fill="#FBFBFB"/>
<path d="M43.5361 29.7915H47.6962V33.9515H43.5361V29.7915Z" fill="black"/>
<path d="M38.6801 31.0993C38.6801 31.4888 38.6059 31.8599 38.4575 32.2123C38.3091 32.5555 38.1051 32.857 37.8453 33.1167C37.5856 33.3764 37.2795 33.5805 36.9271 33.7289C36.5839 33.8773 36.2175 33.9515 35.8279 33.9515H25.8522C25.4626 33.9515 25.0916 33.8773 24.7391 33.7289C24.396 33.5805 24.0945 33.3764 23.8348 33.1167C23.5751 32.857 23.371 32.5555 23.2226 32.2123C23.0742 31.8599 23 31.4888 23 31.0993V16.8522C23 16.4626 23.0742 16.0963 23.2226 15.7531C23.371 15.4006 23.5751 15.0991 23.8348 14.8487C24.0945 14.589 24.396 14.3849 24.7391 14.2365C25.0916 14.0788 25.4626 14 25.8522 14H35.8279C36.2175 14 36.5839 14.0788 36.9271 14.2365C37.2795 14.3849 37.5856 14.589 37.8453 14.8487C38.1051 15.0991 38.3091 15.4006 38.4575 15.7531C38.6059 16.0963 38.6801 16.4626 38.6801 16.8522V31.0993ZM25.8522 16.8522V31.0993H35.8279V16.8522H25.8522Z" fill="black"/>
<path fill-rule="evenodd" clip-rule="evenodd" d="M38.7408 17.1102L26.8161 33.3279L24.5581 31.6676L36.4828 15.45L38.7408 17.1102Z" fill="black"/>
<path d="M62.79 22.6235C63.498 22.5952 64.0031 22.4064 64.3052 22.0571C64.6073 21.6984 64.7583 21.1509 64.7583 20.4146V19.0835C64.7583 18.3094 64.5884 17.743 64.2485 17.3843C63.9087 17.0256 63.3564 16.8462 62.5918 16.8462H57.3101C56.5454 16.8462 55.9932 17.0256 55.6533 17.3843C55.3135 17.743 55.1436 18.3094 55.1436 19.0835V20.4146C55.1436 21.1509 55.2946 21.6984 55.5967 22.0571C55.9082 22.4064 56.4132 22.5952 57.1118 22.6235H62.79ZM62.875 31.4595C63.6491 31.4595 64.2061 31.2801 64.5459 30.9214C64.8857 30.5627 65.0557 30.001 65.0557 29.2363V27.6646C65.0557 26.8905 64.8857 26.3288 64.5459 25.9795C64.2061 25.6302 63.6491 25.4556 62.875 25.4556H57.0269C56.2528 25.4556 55.6958 25.6302 55.356 25.9795C55.0161 26.3288 54.8462 26.8905 54.8462 27.6646V29.2363C54.8462 30.001 55.0161 30.5627 55.356 30.9214C55.6958 31.2801 56.2528 31.4595 57.0269 31.4595H62.875ZM56.9419 34.3057C53.6473 34.3057 52 32.6631 52 29.3779V28.3584C52 27.0934 52.2266 26.0786 52.6797 25.314C53.1328 24.5493 53.7889 24.0396 54.6479 23.7847C53.8833 23.4259 53.298 22.8784 52.8921 22.1421C52.4956 21.3963 52.2974 20.4523 52.2974 19.3101V18.9419C52.2974 15.6473 53.9399 14 57.2251 14H62.6768C65.9619 14 67.6045 15.6473 67.6045 18.9419V19.3101C67.6045 20.4523 67.4015 21.3963 66.9956 22.1421C66.5991 22.8784 66.0186 23.4259 65.2539 23.7847C66.113 24.0396 66.769 24.5493 67.2222 25.314C67.6753 26.0786 67.9019 27.0934 67.9019 28.3584V29.3779C67.9019 32.6631 66.2593 34.3057 62.9741 34.3057H56.9419Z" fill="black"/>
</svg>
