<?xml version="1.0" encoding="UTF-8"?>
<svg id="Layer_1" xmlns="http://www.w3.org/2000/svg" version="1.1" viewBox="0 0 83 48">
  <!-- Generator: Adobe Illustrator 29.4.0, SVG Export Plug-In . SVG Version: 2.1.0 Build 152)  -->
  <defs>
    <style>
      .st0 {
        fill: #0f0f0f;
      }

      .st1 {
        fill-rule: evenodd;
      }

      .st1, .st2 {
        fill: #f7f7f7;
      }
    </style>
  </defs>
  <rect class="st0" width="83" height="48"/>
  <path class="st2" d="M43.54,29.79h4.16v4.16h-4.16v-4.16Z"/>
  <path class="st2" d="M38.68,31.1c0,.39-.07.76-.22,1.11-.15.34-.35.64-.61.9-.26.26-.57.46-.92.61-.34.15-.71.22-1.1.22h-9.98c-.39,0-.76-.07-1.11-.22-.34-.15-.64-.35-.9-.61-.26-.26-.46-.56-.61-.9-.15-.35-.22-.72-.22-1.11v-14.25c0-.39.07-.76.22-1.1.15-.35.35-.65.61-.9.26-.26.56-.46.9-.61.35-.16.72-.24,1.11-.24h9.98c.39,0,.76.08,1.1.24.35.15.66.35.92.61.26.25.46.55.61.9.15.34.22.71.22,1.1v14.25ZM25.85,16.85v14.25h9.98v-14.25h-9.98Z"/>
  <path class="st1" d="M38.74,17.11l-11.92,16.22-2.26-1.66,11.92-16.22,2.26,1.66Z"/>
  <path class="st2" d="M67.08,31.4c0,.4-.08.77-.23,1.13-.15.35-.36.66-.62.92-.26.26-.58.47-.93.62-.35.15-.72.23-1.12.23h-9.27c-.4,0-.77-.08-1.13-.23-.35-.15-.66-.36-.92-.62-.26-.26-.47-.57-.62-.92-.15-.36-.23-.74-.23-1.13v-2.61h2.9v2.61h9.27v-5.79h-9.27c-.4,0-.77-.08-1.13-.23-.35-.16-.66-.37-.92-.62-.26-.26-.47-.57-.62-.92-.15-.36-.23-.74-.23-1.13v-5.81c0-.4.08-.77.23-1.12.15-.36.36-.67.62-.92.26-.26.57-.47.92-.62.36-.16.74-.24,1.13-.24h9.27c.4,0,.77.08,1.12.24.36.15.67.36.93.62.26.25.47.56.62.92.15.35.23.72.23,1.12v14.5ZM64.18,22.71v-5.81h-9.27v5.81h9.27Z"/>
</svg>