<?xml version="1.0" encoding="UTF-8"?>
<svg id="Layer_1" xmlns="http://www.w3.org/2000/svg" version="1.1" viewBox="0 0 83 48">
  <!-- Generator: Adobe Illustrator 29.2.1, SVG Export Plug-In . SVG Version: 2.1.0 Build 116)  -->
  <defs>
    <style>
      .st0 {
        fill-rule: evenodd;
      }

      .st0, .st1 {
        fill: #121212;
      }

      .st2 {
        fill: #fbfbfb;
      }
    </style>
  </defs>
  <rect class="st2" y="0" width="83" height="48"/>
  <g>
    <path class="st1" d="M40,29.7h4.2v4.2h-4.2s0-4.2,0-4.2Z"/>
    <path class="st1" d="M35.1,31c0,.4,0,.8-.2,1.1-.2.3-.3.6-.6.9s-.6.5-.9.6c-.3.2-.7.2-1.1.2h-10c-.4,0-.8,0-1.1-.2-.3-.2-.6-.3-.9-.6-.3-.3-.5-.6-.6-.9-.1-.4-.2-.7-.2-1.1v-14.2c0-.4,0-.8.2-1.1.1-.4.4-.6.6-.9.3-.3.6-.5.9-.6.4-.2.7-.2,1.1-.2h10c.4,0,.8,0,1.1.2.3.1.7.4.9.6.3.2.5.6.6.9.2.3.2.7.2,1.1v14.2ZM22.3,16.8v14.2h10v-14.2h-10Z"/>
    <path class="st0" d="M35.2,17l-11.9,16.2-2.3-1.7,11.9-16.2,2.3,1.7Z"/>
    <path class="st1" d="M63.5,31.3c0,.4,0,.8-.2,1.1-.2.3-.4.7-.6.9s-.6.5-.9.6c-.3.2-.7.2-1.1.2h-9.3c-.4,0-.8,0-1.1-.2-.3-.2-.7-.4-.9-.6s-.5-.6-.6-.9c-.2-.4-.2-.7-.2-1.1v-2.6h2.9v2.6h9.3v-5.8h-9.3c-.4,0-.8,0-1.1-.2-.3-.2-.7-.4-.9-.6-.3-.3-.5-.6-.6-.9-.2-.4-.2-.7-.2-1.1v-5.8c0-.4,0-.8.2-1.1.2-.4.4-.7.6-.9.3-.3.6-.5.9-.6.4-.2.7-.2,1.1-.2h9.3c.4,0,.8,0,1.1.2.4.1.7.4.9.6.3.2.5.6.6.9.2.3.2.7.2,1.1,0,0,0,14.5,0,14.5ZM60.6,22.6v-5.8h-9.3v5.8h9.3Z"/>
  </g>
</svg>