<svg width="83" height="48" viewBox="0 0 83 48" fill="none" xmlns="http://www.w3.org/2000/svg">
<rect width="83" height="48" fill="#FBFBFB"/>
<path d="M43.5361 29.7915H47.6962V33.9515H43.5361V29.7915Z" fill="black"/>
<path d="M38.6801 31.0993C38.6801 31.4888 38.6059 31.8599 38.4575 32.2123C38.3091 32.5555 38.1051 32.857 37.8453 33.1167C37.5856 33.3764 37.2795 33.5805 36.9271 33.7289C36.5839 33.8773 36.2175 33.9515 35.8279 33.9515H25.8522C25.4626 33.9515 25.0916 33.8773 24.7391 33.7289C24.396 33.5805 24.0945 33.3764 23.8348 33.1167C23.5751 32.857 23.371 32.5555 23.2226 32.2123C23.0742 31.8599 23 31.4888 23 31.0993V16.8522C23 16.4626 23.0742 16.0963 23.2226 15.7531C23.371 15.4006 23.5751 15.0991 23.8348 14.8487C24.0945 14.589 24.396 14.3849 24.7391 14.2365C25.0916 14.0788 25.4626 14 25.8522 14H35.8279C36.2175 14 36.5839 14.0788 36.9271 14.2365C37.2795 14.3849 37.5856 14.589 37.8453 14.8487C38.1051 15.0991 38.3091 15.4006 38.4575 15.7531C38.6059 16.0963 38.6801 16.4626 38.6801 16.8522V31.0993ZM25.8522 16.8522V31.0993H35.8279V16.8522H25.8522Z" fill="black"/>
<path fill-rule="evenodd" clip-rule="evenodd" d="M38.7408 17.1102L26.8161 33.3279L24.5581 31.6676L36.4828 15.45L38.7408 17.1102Z" fill="black"/>
<path d="M67.0806 31.4028C67.0806 31.7993 67.005 32.1769 66.854 32.5356C66.703 32.8849 66.4953 33.1917 66.231 33.4561C65.9666 33.7204 65.6551 33.9281 65.2964 34.0791C64.9471 34.2301 64.5742 34.3057 64.1777 34.3057H54.9028C54.5063 34.3057 54.1287 34.2301 53.77 34.0791C53.4207 33.9281 53.1139 33.7204 52.8496 33.4561C52.5853 33.1917 52.3776 32.8849 52.2266 32.5356C52.0755 32.1769 52 31.7993 52 31.4028V28.7974H54.9028V31.4028H64.1777V25.6113H54.9028C54.5063 25.6113 54.1287 25.5358 53.77 25.3848C53.4207 25.2243 53.1139 25.0166 52.8496 24.7617C52.5853 24.4974 52.3776 24.1906 52.2266 23.8413C52.0755 23.4826 52 23.105 52 22.7085V16.9028C52 16.5063 52.0755 16.1335 52.2266 15.7842C52.3776 15.4255 52.5853 15.1187 52.8496 14.8638C53.1139 14.5994 53.4207 14.3918 53.77 14.2407C54.1287 14.0802 54.5063 14 54.9028 14H64.1777C64.5742 14 64.9471 14.0802 65.2964 14.2407C65.6551 14.3918 65.9666 14.5994 66.231 14.8638C66.4953 15.1187 66.703 15.4255 66.854 15.7842C67.005 16.1335 67.0806 16.5063 67.0806 16.9028V31.4028ZM64.1777 22.7085V16.9028H54.9028V22.7085H64.1777Z" fill="black"/>
</svg>
