<svg width="200" height="166" viewBox="0 0 200 166" fill="none" xmlns="http://www.w3.org/2000/svg">
<rect y="103.694" width="26.7597" height="26.7597" rx="4" fill="black"/>
<rect x="69.1289" y="103.694" width="26.7597" height="26.7597" rx="4" fill="black"/>
<rect x="69.1289" y="34.5647" width="26.7597" height="26.7597" rx="4" fill="black"/>
<rect x="103.691" y="103.694" width="26.7597" height="26.7597" rx="4" fill="black"/>
<rect x="103.691" y="34.5647" width="26.7597" height="26.7597" rx="4" fill="black"/>
<rect x="172.824" y="103.694" width="26.7597" height="26.7597" rx="4" fill="black"/>
<rect x="172.824" y="34.5647" width="26.7597" height="26.7597" rx="4" fill="black"/>
<rect y="138.259" width="26.7597" height="26.7597" rx="4" fill="black"/>
<rect x="69.1289" y="138.259" width="26.7597" height="26.7597" rx="4" fill="black"/>
<rect x="69.1289" y="69.1294" width="26.7597" height="26.7597" rx="4" fill="black"/>
<rect x="138.258" y="69.1294" width="26.7597" height="26.7597" rx="4" fill="black"/>
<rect x="34.5625" y="138.259" width="26.7597" height="26.7597" rx="4" fill="black"/>
<rect x="34.5625" y="69.1294" width="26.7597" height="26.7597" rx="4" fill="black"/>
<rect x="103.691" y="138.259" width="26.7597" height="26.7597" rx="4" fill="black"/>
<rect x="103.691" y="69.1294" width="26.7597" height="26.7597" rx="4" fill="black"/>
<rect x="172.824" y="138.259" width="26.7597" height="26.7597" rx="4" fill="black"/>
<rect x="172.824" y="69.1294" width="26.7597" height="26.7597" rx="4" fill="black"/>
<rect x="34.5625" width="26.7597" height="26.7597" rx="4" fill="#FF1515"/>
</svg>
