<?xml version="1.0" encoding="UTF-8"?>
<svg id="Layer_1" xmlns="http://www.w3.org/2000/svg" version="1.1" viewBox="0 0 200 166">
  <!-- Generator: Adobe Illustrator 29.4.0, SVG Export Plug-In . SVG Version: 2.1.0 Build 152)  -->
  <defs>
    <style>
      .st0 {
        fill: #ff1515;
      }

      .st1 {
        fill: #f7f7f7;
      }
    </style>
  </defs>
  <rect class="st1" y="103.69" width="26.76" height="26.76" rx="4" ry="4"/>
  <rect class="st1" x="69.13" y="103.69" width="26.76" height="26.76" rx="4" ry="4"/>
  <rect class="st1" x="69.13" y="34.56" width="26.76" height="26.76" rx="4" ry="4"/>
  <rect class="st1" x="103.69" y="103.69" width="26.76" height="26.76" rx="4" ry="4"/>
  <rect class="st1" x="103.69" y="34.56" width="26.76" height="26.76" rx="4" ry="4"/>
  <rect class="st1" x="172.82" y="103.69" width="26.76" height="26.76" rx="4" ry="4"/>
  <rect class="st1" x="172.82" y="34.56" width="26.76" height="26.76" rx="4" ry="4"/>
  <rect class="st1" y="138.26" width="26.76" height="26.76" rx="4" ry="4"/>
  <rect class="st1" x="69.13" y="138.26" width="26.76" height="26.76" rx="4" ry="4"/>
  <rect class="st1" x="69.13" y="69.13" width="26.76" height="26.76" rx="4" ry="4"/>
  <rect class="st1" x="138.26" y="69.13" width="26.76" height="26.76" rx="4" ry="4"/>
  <rect class="st1" x="34.56" y="138.26" width="26.76" height="26.76" rx="4" ry="4"/>
  <rect class="st1" x="34.56" y="69.13" width="26.76" height="26.76" rx="4" ry="4"/>
  <rect class="st1" x="103.69" y="138.26" width="26.76" height="26.76" rx="4" ry="4"/>
  <rect class="st1" x="103.69" y="69.13" width="26.76" height="26.76" rx="4" ry="4"/>
  <rect class="st1" x="172.82" y="138.26" width="26.76" height="26.76" rx="4" ry="4"/>
  <rect class="st1" x="172.82" y="69.13" width="26.76" height="26.76" rx="4" ry="4"/>
  <rect class="st0" x="34.56" width="26.76" height="26.76" rx="4" ry="4"/>
</svg>