<svg width="28" height="20" viewBox="0 0 28 20" fill="none" xmlns="http://www.w3.org/2000/svg">
<path d="M26 18V20H2V18H26ZM26 2H2V20C0.96435 20 0.113005 19.2128 0.0107422 18.2041L0 18V2C2.57706e-07 0.895431 0.895431 4.83192e-08 2 0H26L26.2041 0.0107422C27.2128 0.113005 28 0.96435 28 2V18L27.9893 18.2041C27.8938 19.1457 27.1457 19.8938 26.2041 19.9893L26 20V2Z" fill="black"/>
<path d="M13.5488 10.0303C13.9347 10.3769 14.5216 10.371 14.9004 10.0166L25.3164 0.269531L26.6836 1.73047L16.2676 11.4775C15.1314 12.5407 13.3706 12.5583 12.2129 11.5186L1.33203 1.74414L2.66797 0.255859L13.5488 10.0303Z" fill="black"/>
</svg>
