<svg width="41" height="27" viewBox="0 0 41 27" fill="none" xmlns="http://www.w3.org/2000/svg">
<path d="M37.6631 0.00488281C39.5219 0.0993226 41 1.63626 41 3.51855V22.5752L40.9951 22.7559C40.904 24.5549 39.462 25.9975 37.6631 26.0889L37.4814 26.0938V24.0938C37.8163 24.0938 38.1249 23.9834 38.376 23.7998L26.0752 13.9844L23.7451 15.8447C22.1481 17.1191 19.9022 17.1595 18.2646 15.9648L18.1084 15.8447L15.7764 13.9844L3.39453 23.8652C3.62654 24.009 3.89939 24.0938 4.19238 24.0938V26.0938L4.01074 26.0889C2.21182 25.9975 0.769797 24.5549 0.678711 22.7559L0.673828 22.5752V3.51855C0.673828 1.63627 2.15193 0.0993384 4.01074 0.00488281L4.19238 0H37.4814L37.6631 0.00488281ZM37.4814 24.0938V26.0938H4.19238V24.0938H37.4814ZM2.67383 21.8818L14.1738 12.7051L2.67383 3.52832V21.8818ZM27.6787 12.7051L39 21.7393V3.6709L27.6787 12.7051ZM4.19238 2C4.12147 2 4.05173 2.00622 3.9834 2.01562L19.3555 14.2822L19.5322 14.4111C20.4358 15.0124 21.6357 14.9694 22.4971 14.2822L37.834 2.04297C37.7208 2.01603 37.6029 2 37.4814 2H4.19238Z" fill="#FF1515"/>
</svg>
