<svg width="38" height="38" viewBox="0 0 38 38" fill="none" xmlns="http://www.w3.org/2000/svg">
<path d="M4.91953 0.52002C2.49996 0.52002 0.519531 2.50045 0.519531 4.92002V33.08C0.519531 35.4996 2.49996 37.48 4.91953 37.48H33.0795C35.4991 37.48 37.4795 35.4996 37.4795 33.08V4.92002C37.4795 2.50045 35.4991 0.52002 33.0795 0.52002H4.91953ZM4.91953 2.28002H33.0795C34.5478 2.28002 35.7195 3.45175 35.7195 4.92002V33.08C35.7195 34.5483 34.5478 35.72 33.0795 35.72H4.91953C3.45127 35.72 2.27953 34.5483 2.27953 33.08V4.92002C2.27953 3.45175 3.45127 2.28002 4.91953 2.28002ZM9.31953 6.69033C8.35574 6.69033 7.48844 6.97841 6.84625 7.51877C6.20406 8.05913 5.80984 8.86639 5.80984 9.7308C5.80984 11.3739 7.23506 12.6549 9.04797 12.7816L9.05141 12.7833C9.13779 12.8127 9.22827 12.8284 9.31953 12.8297C11.3198 12.8297 12.8292 11.4286 12.8292 9.7308C12.8291 9.71532 12.8285 9.69984 12.8275 9.68439C12.738 8.01219 11.2471 6.69033 9.31953 6.69033ZM9.31953 8.42971C10.5447 8.42971 11.0285 8.97685 11.0812 9.75315C11.0706 10.5066 10.6044 11.0903 9.31953 11.0903C8.10037 11.0903 7.54922 10.466 7.54922 9.7308C7.54922 9.36321 7.68335 9.0862 7.96516 8.84908C8.24696 8.61196 8.69933 8.42971 9.31953 8.42971ZM6.67953 13.72C6.44615 13.72 6.22233 13.8128 6.0573 13.9778C5.89228 14.1428 5.79955 14.3666 5.79953 14.6V31.32C5.79955 31.5534 5.89228 31.7772 6.0573 31.9422C6.22233 32.1073 6.44615 32.2 6.67953 32.2H11.9595C12.1929 32.2 12.4167 32.1073 12.5818 31.9422C12.7468 31.7772 12.8395 31.5534 12.8395 31.32V26.1586V14.6C12.8395 14.3666 12.7468 14.1428 12.5818 13.9778C12.4167 13.8128 12.1929 13.72 11.9595 13.72H6.67953ZM14.5995 13.72C14.3661 13.72 14.1423 13.8128 13.9773 13.9778C13.8123 14.1428 13.7196 14.3666 13.7195 14.6V31.32C13.7196 31.5534 13.8123 31.7772 13.9773 31.9422C14.1423 32.1073 14.3661 32.2 14.5995 32.2H19.8795C20.1129 32.2 20.3367 32.1073 20.5018 31.9422C20.6668 31.7772 20.7595 31.5534 20.7595 31.32V22.52C20.7595 21.7899 20.9588 21.0636 21.3095 20.5881C21.6603 20.1126 22.1028 19.8273 22.9441 19.8422C23.8115 19.8571 24.2707 20.1543 24.6181 20.6208C24.9655 21.0873 25.1595 21.7867 25.1595 22.52V31.32C25.1596 31.5534 25.2523 31.7772 25.4173 31.9422C25.5823 32.1073 25.8061 32.2 26.0395 32.2H31.3195C31.5529 32.2 31.7767 32.1073 31.9418 31.9422C32.1068 31.7772 32.1995 31.5534 32.1995 31.32V21.8703C32.1995 19.2642 31.4276 17.1998 30.1044 15.8031C28.7812 14.4065 26.9408 13.72 24.9945 13.72C23.1448 13.72 21.7371 14.3403 20.7595 14.973V14.6C20.7595 14.3666 20.6668 14.1428 20.5018 13.9778C20.3367 13.8128 20.1129 13.72 19.8795 13.72H14.5995ZM7.55953 15.48H11.0795V26.1586V30.44H7.55953V15.48ZM15.4795 15.48H18.9995V16.8533C18.9996 17.0378 19.0576 17.2177 19.1655 17.3674C19.2733 17.5171 19.4255 17.6292 19.6005 17.6877C19.7755 17.7462 19.9645 17.7483 20.1407 17.6935C20.3169 17.6388 20.4715 17.53 20.5825 17.3827C20.5825 17.3827 21.9644 15.48 24.9945 15.48C26.5375 15.48 27.8606 15.9927 28.8273 17.0131C29.7941 18.0336 30.4395 19.6057 30.4395 21.8703V30.44H26.9195V22.52C26.9195 21.4934 26.6735 20.4319 26.0309 19.5689C25.3883 18.706 24.3075 18.1051 22.975 18.0822C21.6356 18.0584 20.5373 18.6718 19.8933 19.5449C19.2492 20.418 18.9995 21.4901 18.9995 22.52V30.44H15.4795V15.48Z" fill="#FF1515"/>
</svg>
