<svg width="41" height="41" viewBox="0 0 41 41" fill="none" xmlns="http://www.w3.org/2000/svg">
<path d="M21.7274 1.25C23.3958 1.25003 29.4383 1.43641 33.5712 7.31445H33.5702C36.4627 11.4204 36.9759 15.2404 36.5292 18.3564C36.1412 21.0623 35.0359 23.2 34.2177 24.5059L33.8876 25.0137C32.4004 27.2255 30.2095 30.2381 28.1015 32.9512C26.01 35.6429 23.9476 38.1075 22.7304 39.1729L22.7265 39.1777C22.3755 39.4798 21.9458 39.7499 21.4198 39.75C20.8939 39.75 20.4641 39.4798 20.1132 39.1777L20.1083 39.1729C18.8911 38.1075 16.8286 35.6428 14.7372 32.9512C12.8926 30.5772 10.9854 27.9734 9.54091 25.8779L8.95107 25.0137C8.13833 23.8041 6.75809 21.4566 6.31337 18.3643C5.86527 15.2483 6.37579 11.4255 9.26845 7.31445L9.66103 6.78027C13.7744 1.43398 19.4954 1.25 21.1122 1.25H21.7274ZM21.1122 2.75C19.6179 2.75 14.5209 2.92207 10.8456 7.70117L10.495 8.17773C7.83036 11.9647 7.40226 15.3997 7.79775 18.1504C8.19675 20.9248 9.44167 23.0538 10.1962 24.1768L10.7772 25.0293C12.2022 27.0964 14.0921 29.6755 15.9218 32.0303C18.0262 34.7387 19.9992 37.0828 21.0907 38.04H21.0917C21.2136 38.145 21.2988 38.2001 21.3554 38.2275C21.382 38.2405 21.3992 38.2458 21.4081 38.248C21.4126 38.2492 21.4154 38.2498 21.4169 38.25H21.4218C21.4232 38.2498 21.4262 38.2491 21.4306 38.248C21.4394 38.2458 21.4566 38.2405 21.4833 38.2275C21.5115 38.2138 21.5471 38.1932 21.5907 38.1631L21.747 38.04C22.8383 37.0832 24.812 34.7392 26.9169 32.0303C29.008 29.339 31.1779 26.3549 32.6425 24.1768L32.6434 24.1758L32.9481 23.707C33.7002 22.5062 34.6957 20.571 35.0438 18.1436C35.4259 15.4789 35.0352 12.174 32.5878 8.53125L32.3446 8.17773H32.3436C28.6504 2.92502 23.2714 2.75003 21.7274 2.75H21.1122ZM28.3515 15.9004C28.3515 12.0778 25.247 8.97971 21.4198 8.97949C17.5834 8.97949 14.4872 12.077 14.4872 15.9004C14.4873 19.723 17.5925 22.8213 21.4198 22.8213C25.247 22.8211 28.3513 19.7229 28.3515 15.9004ZM29.8515 15.9004C29.8513 20.5541 26.0726 24.3211 21.4198 24.3213C16.7668 24.3213 12.9873 20.5542 12.9872 15.9004C12.9872 11.2471 16.7565 7.47949 21.4198 7.47949C26.0727 7.47971 29.8515 11.2466 29.8515 15.9004Z" fill="#FF1515"/>
</svg>
