<?xml version="1.0" encoding="UTF-8"?>
<svg id="Layer_1" xmlns="http://www.w3.org/2000/svg" version="1.1" viewBox="0 0 38 44">
  <!-- Generator: Adobe Illustrator 29.5.1, SVG Export Plug-In . SVG Version: 2.1.0 Build 141)  -->
  <defs>
    <style>
      .st0 {
        fill: none;
        stroke: #ff1515;
        stroke-miterlimit: 10;
        stroke-width: 2px;
      }
    </style>
  </defs>
  <path class="st0" d="M6.68,26.31c-1.63-2.46-5.46-9.44.32-17.77,4.07-5.86,10.01-6.06,11.68-6.06h.64c1.67,0,7.61.19,11.68,6.06,5.78,8.32,1.96,15.3.32,17.77-3.07,4.63-9.07,12.65-11.47,14.78-.63.55-1.07.55-1.7,0-2.4-2.13-8.4-10.15-11.47-14.78h0ZM19,9.05c-4.42,0-7.99,3.62-7.99,8.09s3.58,8.09,7.99,8.09,7.99-3.62,7.99-8.09-3.58-8.09-7.99-8.09Z"/>
</svg>