<svg width="27" height="21" viewBox="0 0 27 21" fill="none" xmlns="http://www.w3.org/2000/svg">
<path d="M18 10C18 5.58172 14.4183 2 10 2C5.58172 2 2 5.58172 2 10C2 14.4183 5.58172 18 10 18V20C4.47715 20 0 15.5228 0 10C0 4.47715 4.47715 0 10 0C15.5228 0 20 4.47715 20 10C20 15.5228 15.5228 20 10 20V18C14.4183 18 18 14.4183 18 10Z" fill="black"/>
<path d="M17.6405 14.4893C17.9227 14.0145 18.5359 13.8585 19.0107 14.1406L26.0107 18.3008C26.4854 18.5829 26.6414 19.1962 26.3593 19.6709C26.0771 20.1457 25.4639 20.3017 24.9892 20.0195L17.9892 15.8594C17.5144 15.5772 17.3584 14.964 17.6405 14.4893Z" fill="black"/>
</svg>
