<svg width="55" height="55" viewBox="0 0 55 55" fill="none" xmlns="http://www.w3.org/2000/svg">
<g clip-path="url(#clip0_866_65)">
<path d="M27.5 0C42.69 0 55 12.31 55 27.5C55 42.69 42.69 55 27.5 55C12.31 55 0 42.69 0 27.5C0 12.31 12.31 0 27.5 0Z" fill="#FBFCFC"/>
<path d="M27.5 16.0296C27.8588 16.0298 28.1494 16.3211 28.1494 16.68V26.0003C28.1496 26.4696 28.5307 26.8499 29 26.8499H38.3193C38.6783 26.8499 38.9697 27.1413 38.9697 27.5003C38.9696 27.8592 38.6782 28.1497 38.3193 28.1497H29C28.5306 28.1497 28.1494 28.5309 28.1494 29.0003V38.3196C28.1494 38.6785 27.8588 38.9699 27.5 38.97C27.141 38.97 26.8496 38.6786 26.8496 38.3196V29.0003C26.8496 28.531 26.4693 28.1499 26 28.1497H16.6797C16.3208 28.1497 16.0295 27.8592 16.0293 27.5003C16.0293 27.1413 16.3207 26.8499 16.6797 26.8499H26C26.4692 26.8498 26.8494 26.4695 26.8496 26.0003V16.68C26.8496 16.321 27.141 16.0296 27.5 16.0296Z" fill="#0D0E0E" stroke="#0C0C0C" stroke-width="0.3"/>
</g>
<defs>
<clipPath id="clip0_866_65">
<rect width="55" height="55" fill="white"/>
</clipPath>
</defs>
</svg>
