<svg width="41" height="40" viewBox="0 0 41 40" fill="none" xmlns="http://www.w3.org/2000/svg">
<path d="M33.4283 17.3507C33.4283 8.69661 26.4128 1.68107 17.7587 1.68107C9.10456 1.68107 2.08903 8.69661 2.08903 17.3507C2.08903 26.0048 9.10456 33.0204 17.7587 33.0204C21.2303 33.0204 24.4354 31.8905 27.0324 29.9803L27.5415 29.6062L35.3851 37.2244C36.204 38.0197 37.5132 38.0006 38.3086 37.1816C39.1038 36.3626 39.0847 35.0534 38.2658 34.2581L30.4048 26.6244L30.7536 26.1066C32.4415 23.6066 33.4283 20.5953 33.4283 17.3507ZM34.9207 17.3507C34.9207 20.678 33.9714 23.7847 32.3314 26.4156L39.3054 33.1875C40.7156 34.557 40.7486 36.811 39.3792 38.2212C38.0097 39.6315 35.7557 39.6645 34.3455 38.2951L27.3987 31.5474C24.6507 33.4171 21.3324 34.5127 17.7587 34.5127C8.28036 34.5127 0.59668 26.829 0.59668 17.3507C0.59668 7.87241 8.28036 0.188721 17.7587 0.188721C27.237 0.188721 34.9207 7.87241 34.9207 17.3507Z" fill="#FF1515"/>
<path d="M19.7485 10.8838L21.2409 10.8838L21.2409 15.8583L19.7485 15.8583L19.7485 10.8838ZM18.2562 9.39149C17.432 9.39149 16.7638 10.0596 16.7638 10.8838L16.7638 15.8583C16.7638 16.6825 17.432 17.3507 18.2562 17.3507C19.0804 17.3507 19.7485 16.6825 19.7485 15.8583L21.2409 15.8583L21.237 16.0118C21.1571 17.5889 19.8531 18.843 18.2562 18.843C16.6078 18.843 15.2715 17.5067 15.2715 15.8583L15.2715 10.8838C15.2715 9.23543 16.6078 7.89914 18.2562 7.89914L18.4097 7.90303C19.9359 7.98035 21.1597 9.20411 21.237 10.7303L21.2409 10.8838L19.7485 10.8838C19.7485 10.0596 19.0804 9.39149 18.2562 9.39149Z" fill="#FF1515"/>
<path d="M29.698 17.3508C29.698 10.7572 24.3529 5.41202 17.7592 5.41202C11.1656 5.41202 5.82047 10.7572 5.82047 17.3508C5.82047 23.9444 11.1656 29.2896 17.7592 29.2896V30.7819C10.3414 30.7819 4.32812 24.7686 4.32812 17.3508C4.32812 9.933 10.3414 3.91968 17.7592 3.91968C25.1771 3.91968 31.1904 9.933 31.1904 17.3508C31.1904 24.7686 25.1771 30.7819 17.7592 30.7819V29.2896C24.3529 29.2896 29.698 23.9444 29.698 17.3508Z" fill="#FF1515"/>
<path d="M19.7485 23.8177C19.7485 22.9935 19.0804 22.3254 18.2562 22.3254C17.432 22.3254 16.7638 22.9935 16.7638 23.8177C16.7638 24.6419 17.432 25.31 18.2562 25.31V26.8024C16.6078 26.8024 15.2715 25.4661 15.2715 23.8177C15.2715 22.1693 16.6078 20.833 18.2562 20.833C19.9046 20.833 21.2409 22.1693 21.2409 23.8177C21.2409 25.4661 19.9046 26.8024 18.2562 26.8024V25.31C19.0804 25.31 19.7485 24.6419 19.7485 23.8177Z" fill="#FF1515"/>
</svg>
