<svg width="41" height="41" viewBox="0 0 41 41" fill="none" xmlns="http://www.w3.org/2000/svg">
<path d="M33.25 17.5C33.25 8.80152 26.1985 1.75 17.5 1.75C8.80152 1.75 1.75 8.80152 1.75 17.5C1.75 26.1985 8.80152 33.25 17.5 33.25C20.9894 33.25 24.211 32.1143 26.8213 30.1943L27.333 29.8184L35.2168 37.4756C36.04 38.275 37.3559 38.2557 38.1553 37.4326C38.9546 36.6094 38.9354 35.2935 38.1123 34.4941L30.2109 26.8213L30.5615 26.3008C32.2581 23.788 33.25 20.7612 33.25 17.5ZM34.75 17.5C34.75 20.8444 33.7959 23.967 32.1475 26.6113L39.1572 33.418C40.5747 34.7945 40.6079 37.0601 39.2314 38.4775C37.8549 39.895 35.5894 39.9282 34.1719 38.5518L27.1895 31.7695C24.4273 33.6488 21.092 34.75 17.5 34.75C7.97309 34.75 0.25 27.0269 0.25 17.5C0.25 7.97309 7.97309 0.25 17.5 0.25C27.0269 0.25 34.75 7.97309 34.75 17.5Z" fill="#FF1515"/>
<path d="M19.5 11L21 11L21 16L19.5 16L19.5 11ZM18 9.5C17.1716 9.5 16.5 10.1716 16.5 11L16.5 16C16.5 16.8284 17.1716 17.5 18 17.5C18.8284 17.5 19.5 16.8284 19.5 16L21 16L20.9961 16.1543C20.9158 17.7394 19.6051 19 18 19C16.3431 19 15 17.6569 15 16L15 11C15 9.34315 16.3431 8 18 8L18.1543 8.00391C19.6883 8.08163 20.9184 9.31166 20.9961 10.8457L21 11L19.5 11C19.5 10.1716 18.8284 9.5 18 9.5Z" fill="#FF1515"/>
<path d="M29.5 17.5C29.5 10.8726 24.1274 5.5 17.5 5.5C10.8726 5.5 5.5 10.8726 5.5 17.5C5.5 24.1274 10.8726 29.5 17.5 29.5V31C10.0442 31 4 24.9558 4 17.5C4 10.0442 10.0442 4 17.5 4C24.9558 4 31 10.0442 31 17.5C31 24.9558 24.9558 31 17.5 31V29.5C24.1274 29.5 29.5 24.1274 29.5 17.5Z" fill="#FF1515"/>
<path d="M19.5 24C19.5 23.1716 18.8284 22.5 18 22.5C17.1716 22.5 16.5 23.1716 16.5 24C16.5 24.8284 17.1716 25.5 18 25.5V27C16.3431 27 15 25.6569 15 24C15 22.3431 16.3431 21 18 21C19.6569 21 21 22.3431 21 24C21 25.6569 19.6569 27 18 27V25.5C18.8284 25.5 19.5 24.8284 19.5 24Z" fill="#FF1515"/>
</svg>
