<svg width="41" height="41" viewBox="0 0 41 41" fill="none" xmlns="http://www.w3.org/2000/svg">
<path d="M2.5 29V20.4785C2.5 19.4093 2.88099 18.3746 3.57422 17.5605L10.4678 9.46484L10.5684 9.35352C11.0848 8.81013 11.8036 8.5 12.5576 8.5L12.7451 8.50586C14.6009 8.62785 15.8028 10.5452 15.1035 12.2686L15.0264 12.4395L13.4307 15.7363C12.952 16.7249 13.6722 17.874 14.7705 17.874C17.2493 17.8741 19.2587 19.8835 19.2588 22.3623V29C19.2588 31.4853 17.2441 33.5 14.7588 33.5H7C4.51472 33.5 2.5 31.4853 2.5 29ZM4 29L4.00391 29.1543C4.08163 30.6883 5.31166 31.9184 6.8457 31.9961L7 32H14.7588L14.9131 31.9961C16.4472 31.9184 17.6772 30.6884 17.7549 29.1543L17.7588 29V22.3623C17.7587 20.7633 16.503 19.4578 14.9238 19.3779L14.7705 19.374C12.6343 19.374 11.2102 17.2092 11.9971 15.2695L12.0801 15.083L13.6768 11.7861C14.0767 10.9602 13.4752 10.0003 12.5576 10C12.1931 10 11.8467 10.16 11.6104 10.4375L4.71582 18.5332L4.55273 18.7432C4.19445 19.2485 4 19.8547 4 20.4785V29Z" fill="#FF1515"/>
<path d="M20.5 29V20.4785C20.5 19.4093 20.881 18.3746 21.5742 17.5605L28.4678 9.46484L28.5684 9.35352C29.0848 8.81013 29.8036 8.5 30.5576 8.5L30.7451 8.50586C32.6009 8.62785 33.8028 10.5452 33.1035 12.2686L33.0264 12.4395L31.4307 15.7363C30.952 16.7249 31.6722 17.874 32.7705 17.874C35.2493 17.8741 37.2587 19.8835 37.2588 22.3623V29C37.2588 31.4853 35.2441 33.5 32.7588 33.5H25C22.5147 33.5 20.5 31.4853 20.5 29ZM22 29L22.0039 29.1543C22.0816 30.6883 23.3117 31.9184 24.8457 31.9961L25 32H32.7588L32.9131 31.9961C34.4472 31.9184 35.6772 30.6884 35.7549 29.1543L35.7588 29V22.3623C35.7587 20.7633 34.503 19.4578 32.9238 19.3779L32.7705 19.374C30.6343 19.374 29.2102 17.2092 29.9971 15.2695L30.0801 15.083L31.6768 11.7861C32.0767 10.9602 31.4752 10.0003 30.5576 10C30.1931 10 29.8467 10.16 29.6104 10.4375L22.7158 18.5332L22.5527 18.7432C22.1945 19.2485 22 19.8547 22 20.4785V29Z" fill="#FF1515"/>
</svg>
