<?xml version="1.0" encoding="UTF-8"?>
<svg id="Layer_1" xmlns="http://www.w3.org/2000/svg" version="1.1" viewBox="0 0 88 88">
  <!-- Generator: Adobe Illustrator 29.5.1, SVG Export Plug-In . SVG Version: 2.1.0 Build 141)  -->
  <defs>
    <style>
      .st0, .st1 {
        stroke-width: 2px;
      }

      .st0, .st1, .st2 {
        fill: none;
        stroke: #ff1515;
      }

      .st1 {
        stroke-linecap: round;
        stroke-linejoin: round;
      }

      .st2 {
        stroke-miterlimit: 4;
        stroke-width: 2px;
      }

      .st3 {
        fill: #f7f7f7;
      }
    </style>
  </defs>
  <circle class="st3" cx="44" cy="44" r="44"/>
  <path class="st1" d="M42,59v-10l-5-5.5"/>
  <path class="st1" d="M42.5,43.5v-5l-3-3"/>
  <path class="st1" d="M46.5,55.5v-8l5-5"/>
  <circle class="st0" cx="53.5" cy="40.5" r="2.5"/>
  <circle class="st0" cx="46.5" cy="30.5" r="2.5"/>
  <circle class="st0" cx="37.5" cy="33.5" r="2.5"/>
  <circle class="st2" cx="35" cy="42" r="2"/>
  <path class="st0" d="M43.5,23c-9.11,0-16.5,7.39-16.5,16.5,0,8,4.7,10.64,8,15.5,2.93,4.32-.79,8,3.5,8h10.5c4.29,0,.57-3.68,3.5-8,3.3-4.86,8-7.5,8-15.5,0-9.11-7.39-16.5-16.5-16.5h-.5Z"/>
  <path class="st1" d="M14,39.5h8"/>
  <path class="st1" d="M65,39.5h8"/>
  <path class="st1" d="M22.64,60.36l5.66-5.66"/>
  <path class="st1" d="M58.7,24.3l5.66-5.66"/>
  <path class="st1" d="M64.36,60.36l-5.66-5.66"/>
  <path class="st1" d="M28.3,24.3l-5.66-5.66"/>
  <path class="st1" d="M43.5,18v-8"/>
  <path class="st1" d="M37,68.5l13.09-2.01"/>
  <path class="st1" d="M37,72.5l13.09-2.01"/>
  <path class="st0" d="M43.5,79c1.53,0,2.84-.85,3.31-2.02.21-.51-.26-.98-.81-.98h-5c-.55,0-1.02.46-.81.98.47,1.18,1.78,2.02,3.31,2.02Z"/>
  <path class="st1" d="M46.5,42.5v-9.5"/>
</svg>